Cormorant-Regular.ufo
<glyph name="numbersign" format="1">
  <advance width="450"/>
  <unicode hex="0023"/>
  <outline>
    <contour>
      <point x="202" y="407" type="line" smooth="yes"/>
      <point x="203" y="412"/>
      <point x="174" y="417"/>
      <point x="174" y="412" type="curve" smooth="yes"/>
      <point x="90" y="-64" type="line" smooth="yes"/>
      <point x="89" y="-68"/>
      <point x="118" y="-72"/>
      <point x="118" y="-67" type="curve" smooth="yes"/>
    </contour>
    <contour>
      <point x="362" y="407" type="line" smooth="yes"/>
      <point x="363" y="412"/>
      <point x="334" y="417"/>
      <point x="334" y="412" type="curve" smooth="yes"/>
      <point x="250" y="-64" type="line" smooth="yes"/>
      <point x="249" y="-68"/>
      <point x="278" y="-72"/>
      <point x="278" y="-67" type="curve" smooth="yes"/>
    </contour>
    <contour>
      <point x="366" y="66" type="line" smooth="yes"/>
      <point x="371" y="66"/>
      <point x="371" y="98"/>
      <point x="366" y="98" type="curve" smooth="yes"/>
      <point x="53" y="98" type="line" smooth="yes"/>
      <point x="49" y="98"/>
      <point x="49" y="66"/>
      <point x="54" y="66" type="curve" smooth="yes"/>
    </contour>
    <contour>
      <point x="396" y="236" type="line" smooth="yes"/>
      <point x="401" y="236"/>
      <point x="401" y="268"/>
      <point x="396" y="268" type="curve" smooth="yes"/>
      <point x="83" y="268" type="line" smooth="yes"/>
      <point x="79" y="268"/>
      <point x="79" y="236"/>
      <point x="84" y="236" type="curve" smooth="yes"/>
    </contour>
  </outline>
</glyph>
<glyph name="dollar" format="1">
  <advance width="349"/>
  <unicode hex="0024"/>
  <outline>
    <contour>
      <point x="173" y="-95"/>
      <point x="190" y="-95"/>
      <point x="190" y="-87" type="curve" smooth="yes"/>
      <point x="190" y="480" type="line" smooth="yes"/>
      <point x="190" y="488"/>
      <point x="173" y="488"/>
      <point x="173" y="480" type="curve" smooth="yes"/>
      <point x="173" y="-87" type="line" smooth="yes"/>
    </contour>
    <contour>
      <point x="102" y="369"/>
      <point x="127" y="399"/>
      <point x="172" y="399" type="curve" smooth="yes"/>
      <point x="227" y="399"/>
      <point x="269" y="349"/>
      <point x="277" y="303" type="curve" smooth="yes"/>
      <point x="278" y="298"/>
      <point x="287" y="299"/>
      <point x="287" y="304" type="curve" smooth="yes"/>
      <point x="280" y="377" type="line" smooth="yes"/>
      <point x="279" y="385"/>
      <point x="277" y="386"/>
      <point x="267" y="391" type="curve" smooth="yes"/>
      <point x="235" y="406"/>
      <point x="209" y="410"/>
      <point x="187" y="410" type="curve" smooth="yes"/>
      <point x="122" y="410"/>
      <point x="63" y="375"/>
      <point x="63" y="308" type="curve" smooth="yes"/>
      <point x="63" y="247"/>
      <point x="113" y="220"/>
      <point x="165" y="192" type="curve" smooth="yes"/>
      <point x="215" y="165"/>
      <point x="266" y="137"/>
      <point x="266" y="77" type="curve" smooth="yes"/>
      <point x="266" y="20"/>
      <point x="222" y="2"/>
      <point x="186" y="2" type="curve" smooth="yes"/>
      <point x="127" y="2"/>
      <point x="75" y="52"/>
      <point x="63" y="118" type="curve" smooth="yes"/>
      <point x="62" y="122"/>
      <point x="52" y="121"/>
      <point x="53" y="116" type="curve" smooth="yes"/>
      <point x="63" y="35" type="line" smooth="yes"/>
      <point x="64" y="27"/>
      <point x="65" y="22"/>
      <point x="71" y="19" type="curve" smooth="yes"/>
      <point x="103" y="-3"/>
      <point x="134" y="-10"/>
      <point x="167" y="-10" type="curve" smooth="yes"/>
      <point x="257" y="-10"/>
      <point x="308" y="41"/>
      <point x="308" y="103" type="curve" smooth="yes"/>
      <point x="308" y="165"/>
      <point x="254" y="193"/>
      <point x="203" y="220" type="curve" smooth="yes"/>
      <point x="152" y="246"/>
      <point x="102" y="272"/>
      <point x="102" y="328" type="curve" smooth="yes"/>
    </contour>
    <contour>
      <point x="186" y="400" type="move" name="top"/>
    </contour>
    <contour>
      <point x="184" y="0" type="move" name="bottom"/>
    </contour>
  </outline>
</glyph>
<glyph name="percent" format="1">
  <advance width="491"/>
  <unicode hex="0025"/>
  <outline>
    <contour>
      <point x="187" y="259"/>
      <point x="229" y="307"/>
      <point x="229" y="368" type="curve" smooth="yes"/>
      <point x="229" y="429"/>
      <point x="188" y="479"/>
      <point x="128" y="479" type="curve" smooth="yes"/>
      <point x="68" y="479"/>
      <point x="25" y="430"/>
      <point x="25" y="370" type="curve" smooth="yes"/>
      <point x="25" y="308"/>
      <point x="68" y="259"/>
      <point x="128" y="259" type="curve" smooth="yes"/>
    </contour>
    <contour>
      <point x="85" y="268"/>
      <point x="70" y="314"/>
      <point x="70" y="373" type="curve" smooth="yes"/>
      <point x="70" y="426"/>
      <point x="79" y="470"/>
      <point x="123" y="470" type="curve" smooth="yes"/>
      <point x="163" y="470"/>
      <point x="184" y="433"/>
      <point x="184" y="362" type="curve" smooth="yes"/>
      <point x="184" y="308"/>
      <point x="178" y="268"/>
      <point x="134" y="268" type="curve" smooth="yes"/>
    </contour>
    <contour>
      <point x="424" y="-4"/>
      <point x="466" y="44"/>
      <point x="466" y="105" type="curve" smooth="yes"/>
      <point x="466" y="166"/>
      <point x="425" y="216"/>
      <point x="365" y="216" type="curve" smooth="yes"/>
      <point x="305" y="216"/>
      <point x="262" y="167"/>
      <point x="262" y="107" type="curve" smooth="yes"/>
      <point x="262" y="45"/>
      <point x="305" y="-4"/>
      <point x="365" y="-4" type="curve" smooth="yes"/>
    </contour>
    <contour>
      <point x="322" y="5"/>
      <point x="307" y="51"/>
      <point x="307" y="110" type="curve" smooth="yes"/>
      <point x="307" y="163"/>
      <point x="316" y="207"/>
      <point x="360" y="207" type="curve" smooth="yes"/>
      <point x="400" y="207"/>
      <point x="421" y="170"/>
      <point x="421" y="99" type="curve" smooth="yes"/>
      <point x="421" y="45"/>
      <point x="415" y="5"/>
      <point x="371" y="5" type="curve" smooth="yes"/>
    </contour>
    <contour>
      <point x="407" y="460" type="line" smooth="yes"/>
      <point x="409" y="463"/>
      <point x="391" y="474"/>
      <point x="388" y="470" type="curve" smooth="yes"/>
      <point x="71" y="5" type="line" smooth="yes"/>
      <point x="69" y="2"/>
      <point x="88" y="-7"/>
      <point x="90" y="-4" type="curve" smooth="yes"/>
    </contour>
  </outline>
</glyph>
<glyph name="ampersand" format="1">
  <advance width="592"/>
  <unicode hex="0026"/>
  <outline>
    <contour>
      <point x="55" y="280"/>
      <point x="55" y="119" type="curve" smooth="yes"/>
      <point x="55" y="53"/>
      <point x="102" y="-10"/>
      <point x="209" y="-10" type="curve" smooth="yes"/>
      <point x="378" y="-10"/>
      <point x="445" y="143"/>
      <point x="473" y="242" type="curve" smooth="yes"/>
      <point x="481" y="272"/>
      <point x="488" y="289"/>
      <point x="550" y="289" type="curve" smooth="yes"/>
      <point x="554" y="289"/>
      <point x="554" y="299"/>
      <point x="550" y="299" type="curve" smooth="yes"/>
      <point x="377" y="298" type="line" smooth="yes"/>
      <point x="373" y="298"/>
      <point x="374" y="288"/>
      <point x="377" y="288" type="curve" smooth="yes"/>
      <point x="430" y="288"/>
      <point x="436" y="265"/>
      <point x="436" y="235" type="curve" smooth="yes"/>
      <point x="436" y="124"/>
      <point x="352" y="11"/>
      <point x="240" y="11" type="curve" smooth="yes"/>
      <point x="161" y="11"/>
      <point x="101" y="69"/>
      <point x="101" y="144" type="curve" smooth="yes"/>
      <point x="101" y="302"/>
      <point x="357" y="321"/>
      <point x="357" y="468" type="curve" smooth="yes"/>
      <point x="357" y="538"/>
      <point x="300" y="552"/>
      <point x="261" y="552" type="curve" smooth="yes"/>
      <point x="180" y="552"/>
      <point x="125" y="492"/>
      <point x="125" y="422" type="curve" smooth="yes"/>
      <point x="125" y="395"/>
      <point x="133" y="364"/>
      <point x="149" y="329" type="curve" smooth="yes"/>
      <point x="191" y="245"/>
      <point x="276" y="151"/>
      <point x="364" y="82" type="curve" smooth="yes"/>
      <point x="444" y="15"/>
      <point x="487" y="0"/>
      <point x="510" y="0" type="curve" smooth="yes"/>
      <point x="536" y="0"/>
      <point x="567" y="0"/>
      <point x="590" y="0" type="curve" smooth="yes"/>
      <point x="593" y="0"/>
      <point x="595" y="9"/>
      <point x="590" y="10" type="curve" smooth="yes"/>
      <point x="542" y="19"/>
      <point x="472" y="55"/>
      <point x="401" y="108" type="curve" smooth="yes"/>
      <point x="273" y="204"/>
      <point x="166" y="331"/>
      <point x="166" y="449" type="curve" smooth="yes"/>
      <point x="166" y="510"/>
      <point x="194" y="536"/>
      <point x="239" y="536" type="curve" smooth="yes"/>
      <point x="286" y="536"/>
      <point x="316" y="507"/>
      <point x="316" y="455" type="curve" smooth="yes"/>
      <point x="316" y="313"/>
    </contour>
  </outline>
</glyph>
<glyph name="quotesingle" format="1">
  <advance width="118"/>
  <unicode hex="0027"/>
  <outline>
    <contour>
      <point x="47" y="309"/>
      <point x="55" y="310"/>
      <point x="56" y="313" type="curve" smooth="yes"/>
      <point x="98" y="545" type="line" smooth="yes"/>
      <point x="100" y="554"/>
      <point x="39" y="538"/>
      <point x="40" y="521" type="curve" smooth="yes"/>
      <point x="47" y="312" type="line" smooth="yes"/>
    </contour>
  </outline>
</glyph>
<glyph name="comma" format="1">
  <advance width="190"/>
  <unicode hex="002C"/>
  <outline>
    <contour>
      <point x="63" y="53"/>
      <point x="52" y="43"/>
      <point x="52" y="23" type="curve" smooth="yes"/>
      <point x="52" y="5"/>
      <point x="63" y="-7"/>
      <point x="83" y="-7" type="curve" smooth="yes"/>
      <point x="100" y="-7"/>
      <point x="113" y="3"/>
      <point x="112" y="23" type="curve"/>
      <point x="89" y="17" type="line"/>
      <point x="104" y="14"/>
      <point x="116" y="4"/>
      <point x="116" y="-29" type="curve" smooth="yes"/>
      <point x="116" y="-66"/>
      <point x="104" y="-99"/>
      <point x="74" y="-130" type="curve" smooth="yes"/>
      <point x="71" y="-133"/>
      <point x="77" y="-139"/>
      <point x="81" y="-136" type="curve" smooth="yes"/>
      <point x="118" y="-100"/>
      <point x="140" y="-64"/>
      <point x="140" y="-18" type="curve" smooth="yes"/>
      <point x="140" y="28"/>
      <point x="120" y="53"/>
      <point x="87" y="53" type="curve" smooth="yes"/>
    </contour>
  </outline>
</glyph>
<glyph name="hyphen" format="1">
  <advance width="241"/>
  <unicode hex="002D"/>
  <outline>
    <contour>
      <point x="209" y="174" type="line" smooth="yes"/>
      <point x="214" y="175"/>
      <point x="214" y="211"/>
      <point x="209" y="210" type="curve" smooth="yes"/>
      <point x="26" y="180" type="line" smooth="yes"/>
      <point x="22" y="179"/>
      <point x="22" y="143"/>
      <point x="27" y="144" type="curve" smooth="yes"/>
    </contour>
    <contour>
      <point x="107" y="576" type="move" name="top"/>
    </contour>
    <contour>
      <point x="112" y="10" type="move" name="bottom"/>
    </contour>
    <contour>
      <point x="194" y="340" type="move" name="topright"/>
    </contour>
  </outline>
</glyph>
<glyph name="slash" format="1">
  <advance width="290"/>
  <unicode hex="002F"/>
  <outline>
    <contour>
      <point x="268" y="614" type="line" smooth="yes"/>
      <point x="270" y="619"/>
      <point x="240" y="629"/>
      <point x="238" y="624" type="curve" smooth="yes"/>
      <point x="22" y="-130" type="line" smooth="yes"/>
      <point x="21" y="-134"/>
      <point x="51" y="-144"/>
      <point x="53" y="-139" type="curve" smooth="yes"/>
    </contour>
  </outline>
</glyph>
<glyph name="three" format="1">
  <advance width="322"/>
  <unicode hex="0033"/>
  <outline>
    <contour>
      <point x="154" y="106" type="line"/>
      <point x="218" y="139"/>
      <point x="260" y="189"/>
      <point x="260" y="244" type="curve" smooth="yes"/>
      <point x="260" y="294"/>
      <point x="226" y="341"/>
      <point x="161" y="341" type="curve" smooth="yes"/>
      <point x="120" y="341"/>
      <point x="91" y="322"/>
      <point x="74" y="322" type="curve" smooth="yes"/>
      <point x="66" y="322"/>
      <point x="56" y="327"/>
      <point x="61" y="346" type="curve" smooth="yes"/>
      <point x="62" y="349"/>
      <point x="52" y="351"/>
      <point x="51" y="348" type="curve" smooth="yes"/>
      <point x="19" y="223" type="line" smooth="yes"/>
      <point x="18" y="220"/>
      <point x="28" y="218"/>
      <point x="29" y="221" type="curve" smooth="yes"/>
      <point x="49" y="294"/>
      <point x="83" y="324"/>
      <point x="133" y="324" type="curve" smooth="yes"/>
      <point x="189" y="324"/>
      <point x="213" y="285"/>
      <point x="213" y="229" type="curve" smooth="yes"/>
      <point x="213" y="179"/>
      <point x="192" y="140"/>
      <point x="150" y="110" type="curve"/>
    </contour>
    <contour>
      <point x="33" y="-228"/>
      <point x="37" y="-237"/>
      <point x="41" y="-235" type="curve" smooth="yes"/>
      <point x="210" y="-160"/>
      <point x="285" y="-89"/>
      <point x="285" y="-6" type="curve" smooth="yes"/>
      <point x="285" y="64"/>
      <point x="234" y="117"/>
      <point x="149" y="117" type="curve" smooth="yes"/>
      <point x="114" y="117"/>
      <point x="89" y="108"/>
      <point x="75" y="100" type="curve" smooth="yes"/>
      <point x="71" y="98"/>
      <point x="76" y="90"/>
      <point x="80" y="92" type="curve" smooth="yes"/>
      <point x="91" y="98"/>
      <point x="106" y="103"/>
      <point x="127" y="103" type="curve" smooth="yes"/>
      <point x="197" y="103"/>
      <point x="232" y="45"/>
      <point x="232" y="-16" type="curve" smooth="yes"/>
      <point x="232" y="-84"/>
      <point x="191" y="-151"/>
      <point x="37" y="-226" type="curve" smooth="yes"/>
    </contour>
  </outline>
</glyph>
<glyph name="four" format="1">
  <advance width="385"/>
  <unicode hex="0034"/>
  <outline>
    <contour>
      <point x="189" y="7"/>
      <point x="260" y="6"/>
      <point x="352" y="1" type="curve" smooth="yes"/>
      <point x="357" y="1"/>
      <point x="357" y="37"/>
      <point x="352" y="37" type="curve" smooth="yes"/>
      <point x="254" y="34"/>
      <point x="196" y="32"/>
      <point x="63" y="32" type="curve" smooth="yes"/>
      <point x="58" y="32"/>
      <point x="56" y="34"/>
      <point x="59" y="38" type="curve" smooth="yes"/>
      <point x="251" y="289" type="line"/>
      <point x="234" y="278" type="line"/>
      <point x="234" y="-156" type="line" smooth="yes"/>
      <point x="234" y="-163"/>
      <point x="236" y="-164"/>
      <point x="242" y="-161" type="curve" smooth="yes"/>
      <point x="269" y="-147" type="line" smooth="yes"/>
      <point x="274" y="-145"/>
      <point x="276" y="-141"/>
      <point x="276" y="-135" type="curve" smooth="yes"/>
      <point x="276" y="335" type="line" smooth="yes"/>
      <point x="276" y="340"/>
      <point x="266" y="342"/>
      <point x="263" y="339" type="curve" smooth="yes"/>
      <point x="18" y="17" type="line" smooth="yes"/>
      <point x="14" y="12"/>
      <point x="19" y="7"/>
      <point x="24" y="7" type="curve" smooth="yes"/>
    </contour>
  </outline>
</glyph>
<glyph name="six" format="1">
  <advance width="398"/>
  <unicode hex="0036"/>
  <outline>
    <contour>
      <point x="202" y="241"/>
      <point x="159" y="221"/>
      <point x="128" y="182" type="curve" smooth="yes"/>
      <point x="126" y="179"/>
      <point x="134" y="173"/>
      <point x="137" y="176" type="curve" smooth="yes"/>
      <point x="171" y="207"/>
      <point x="196" y="220"/>
      <point x="228" y="220" type="curve" smooth="yes"/>
      <point x="291" y="220"/>
      <point x="319" y="173"/>
      <point x="319" y="114" type="curve" smooth="yes"/>
      <point x="319" y="45"/>
      <point x="279" y="4"/>
      <point x="221" y="4" type="curve" smooth="yes"/>
      <point x="137" y="4"/>
      <point x="89" y="89"/>
      <point x="89" y="193" type="curve" smooth="yes"/>
      <point x="89" y="325"/>
      <point x="174" y="480"/>
      <point x="346" y="556" type="curve" smooth="yes"/>
      <point x="350" y="558"/>
      <point x="346" y="566"/>
      <point x="342" y="565" type="curve" smooth="yes"/>
      <point x="153" y="499"/>
      <point x="42" y="336"/>
      <point x="42" y="178" type="curve" smooth="yes"/>
      <point x="42" y="57"/>
      <point x="102" y="-11"/>
      <point x="197" y="-11" type="curve" smooth="yes"/>
      <point x="290" y="-11"/>
      <point x="366" y="55"/>
      <point x="366" y="136" type="curve" smooth="yes"/>
      <point x="366" y="188"/>
      <point x="336" y="241"/>
      <point x="253" y="241" type="curve" smooth="yes"/>
    </contour>
  </outline>
</glyph>
<glyph name="eight" format="1">
  <advance width="418"/>
  <unicode hex="0038"/>
  <outline>
    <contour>
      <point x="238" y="285" type="line"/>
      <point x="298" y="320"/>
      <point x="333" y="361"/>
      <point x="333" y="401" type="curve" smooth="yes"/>
      <point x="333" y="444"/>
      <point x="291" y="491"/>
      <point x="222" y="491" type="curve" smooth="yes"/>
      <point x="165" y="491"/>
      <point x="89" y="458"/>
      <point x="89" y="390" type="curve" smooth="yes"/>
      <point x="89" y="333"/>
      <point x="144" y="305"/>
      <point x="203" y="274" type="curve" smooth="yes"/>
      <point x="271" y="239"/>
      <point x="344" y="202"/>
      <point x="344" y="113" type="curve" smooth="yes"/>
      <point x="344" y="43"/>
      <point x="294" y="3"/>
      <point x="231" y="3" type="curve" smooth="yes"/>
      <point x="147" y="3"/>
      <point x="90" y="74"/>
      <point x="90" y="150" type="curve" smooth="yes"/>
      <point x="90" y="217"/>
      <point x="128" y="272"/>
      <point x="196" y="301" type="curve"/>
      <point x="191" y="308" type="line"/>
      <point x="121" y="284"/>
      <point x="42" y="212"/>
      <point x="42" y="127" type="curve" smooth="yes"/>
      <point x="42" y="56"/>
      <point x="106" y="-11"/>
      <point x="207" y="-11" type="curve" smooth="yes"/>
      <point x="304" y="-11"/>
      <point x="386" y="52"/>
      <point x="386" y="138" type="curve" smooth="yes"/>
      <point x="386" y="222"/>
      <point x="313" y="261"/>
      <point x="244" y="297" type="curve" smooth="yes"/>
      <point x="185" y="328"/>
      <point x="129" y="357"/>
      <point x="129" y="413" type="curve" smooth="yes"/>
      <point x="129" y="455"/>
      <point x="162" y="478"/>
      <point x="202" y="478" type="curve" smooth="yes"/>
      <point x="253" y="478"/>
      <point x="290" y="442"/>
      <point x="290" y="387" type="curve" smooth="yes"/>
      <point x="290" y="348"/>
      <point x="271" y="320"/>
      <point x="233" y="290" type="curve"/>
    </contour>
  </outline>
</glyph>
<glyph name="nine" format="1">
  <advance width="398"/>
  <unicode hex="0039"/>
  <outline>
    <contour>
      <point x="203" y="94"/>
      <point x="242" y="111"/>
      <point x="270" y="143" type="curve" smooth="yes"/>
      <point x="272" y="146"/>
      <point x="264" y="152"/>
      <point x="261" y="149" type="curve" smooth="yes"/>
      <point x="231" y="125"/>
      <point x="210" y="115"/>
      <point x="178" y="115" type="curve" smooth="yes"/>
      <point x="111" y="115"/>
      <point x="79" y="166"/>
      <point x="79" y="224" type="curve" smooth="yes"/>
      <point x="79" y="289"/>
      <point x="116" y="326"/>
      <point x="172" y="326" type="curve" smooth="yes"/>
      <point x="273" y="326"/>
      <point x="309" y="205"/>
      <point x="309" y="123" type="curve" smooth="yes"/>
      <point x="309" y="-2"/>
      <point x="224" y="-158"/>
      <point x="52" y="-226" type="curve" smooth="yes"/>
      <point x="48" y="-228"/>
      <point x="52" y="-236"/>
      <point x="56" y="-235" type="curve" smooth="yes"/>
      <point x="245" y="-177"/>
      <point x="356" y="-14"/>
      <point x="356" y="140" type="curve" smooth="yes"/>
      <point x="356" y="260"/>
      <point x="290" y="341"/>
      <point x="186" y="341" type="curve" smooth="yes"/>
      <point x="101" y="341"/>
      <point x="32" y="286"/>
      <point x="32" y="209" type="curve" smooth="yes"/>
      <point x="32" y="157"/>
      <point x="65" y="94"/>
      <point x="154" y="94" type="curve" smooth="yes"/>
    </contour>
  </outline>
</glyph>
<glyph name="A" format="1">
  <advance width="597"/>
  <unicode hex="0041"/>
  <outline>
    <contour>
      <point x="376" y="290" type="line"/>
      <point x="370" y="306" type="line"/>
      <point x="194" y="306" type="line"/>
      <point x="181" y="290" type="line"/>
    </contour>
    <contour>
      <point x="555" y="10"/>
      <point x="533" y="31"/>
      <point x="493" y="117" type="curve" smooth="yes"/>
      <point x="295" y="543" type="line" smooth="yes"/>
      <point x="294" y="546"/>
      <point x="286" y="546"/>
      <point x="285" y="543" type="curve" smooth="yes"/>
      <point x="106" y="113" type="line" smooth="yes"/>
      <point x="72" y="31"/>
      <point x="48" y="10"/>
      <point x="2" y="10" type="curve" smooth="yes"/>
      <point x="-3" y="10"/>
      <point x="-3" y="0"/>
      <point x="2" y="0" type="curve" smooth="yes"/>
      <point x="36" y="0"/>
      <point x="54" y="3"/>
      <point x="94" y="3" type="curve" smooth="yes"/>
      <point x="138" y="3"/>
      <point x="161" y="0"/>
      <point x="195" y="0" type="curve" smooth="yes"/>
      <point x="200" y="0"/>
      <point x="200" y="10"/>
      <point x="195" y="10" type="curve" smooth="yes"/>
      <point x="117" y="10"/>
      <point x="93" y="35"/>
      <point x="122" y="105" type="curve" smooth="yes"/>
      <point x="287" y="502" type="line"/>
      <point x="271" y="487" type="line"/>
      <point x="464" y="72" type="line" smooth="yes"/>
      <point x="486" y="24"/>
      <point x="472" y="10"/>
      <point x="408" y="10" type="curve" smooth="yes"/>
      <point x="403" y="10"/>
      <point x="403" y="0"/>
      <point x="408" y="0" type="curve" smooth="yes"/>
      <point x="439" y="0"/>
      <point x="461" y="3"/>
      <point x="496" y="3" type="curve" smooth="yes"/>
      <point x="527" y="3"/>
      <point x="562" y="0"/>
      <point x="593" y="0" type="curve" smooth="yes"/>
      <point x="598" y="0"/>
      <point x="598" y="10"/>
      <point x="593" y="10" type="curve" smooth="yes"/>
    </contour>
    <contour>
      <point x="567" y="10" type="move" name="ogonek"/>
    </contour>
    <contour>
      <point x="299" y="0" type="move" name="bottom"/>
    </contour>
    <contour>
      <point x="289" y="534" type="move" name="top"/>
    </contour>
  </outline>
</glyph>
<glyph name="B" format="1">
  <advance width="469"/>
  <unicode hex="0042"/>
  <outline>
    <contour>
      <point x="323" y="312"/>
      <point x="375" y="358"/>
      <point x="375" y="423" type="curve" smooth="yes"/>
      <point x="375" y="484"/>
      <point x="338" y="537"/>
      <point x="237" y="537" type="curve" smooth="yes"/>
      <point x="211" y="537"/>
      <point x="166" y="532"/>
      <point x="137" y="532" type="curve" smooth="yes"/>
      <point x="100" y="532"/>
      <point x="66" y="534"/>
      <point x="39" y="534" type="curve" smooth="yes"/>
      <point x="36" y="534"/>
      <point x="36" y="524"/>
      <point x="39" y="524" type="curve" smooth="yes"/>
      <point x="104" y="524"/>
      <point x="115" y="514"/>
      <point x="115" y="465" type="curve" smooth="yes"/>
      <point x="115" y="69" type="line" smooth="yes"/>
      <point x="115" y="20"/>
      <point x="103" y="10"/>
      <point x="38" y="10" type="curve" smooth="yes"/>
      <point x="35" y="10"/>
      <point x="35" y="0"/>
      <point x="38" y="0" type="curve" smooth="yes"/>
      <point x="65" y="0"/>
      <point x="100" y="2"/>
      <point x="137" y="2" type="curve" smooth="yes"/>
      <point x="176" y="2"/>
      <point x="226" y="-3"/>
      <point x="263" y="-3" type="curve" smooth="yes"/>
      <point x="356" y="-3"/>
      <point x="427" y="65"/>
      <point x="427" y="158" type="curve" smooth="yes"/>
      <point x="427" y="240"/>
      <point x="362" y="302"/>
      <point x="264" y="302" type="curve"/>
      <point x="255" y="294" type="line"/>
    </contour>
    <contour>
      <point x="300" y="526"/>
      <point x="329" y="475"/>
      <point x="329" y="417" type="curve" smooth="yes"/>
      <point x="329" y="351"/>
      <point x="295" y="300"/>
      <point x="200" y="300" type="curve" smooth="yes"/>
      <point x="197" y="300"/>
      <point x="171" y="300"/>
      <point x="134" y="303" type="curve"/>
      <point x="160" y="296" type="line"/>
      <point x="160" y="463" type="line" smooth="yes"/>
      <point x="160" y="524"/>
      <point x="175" y="526"/>
      <point x="217" y="526" type="curve" smooth="yes"/>
    </contour>
    <contour>
      <point x="175" y="10"/>
      <point x="160" y="26"/>
      <point x="160" y="69" type="curve" smooth="yes"/>
      <point x="160" y="289" type="line"/>
      <point x="137" y="280" type="line"/>
      <point x="168" y="284"/>
      <point x="198" y="285"/>
      <point x="230" y="284" type="curve" smooth="yes"/>
      <point x="321" y="282"/>
      <point x="377" y="222"/>
      <point x="377" y="137" type="curve" smooth="yes"/>
      <point x="377" y="58"/>
      <point x="338" y="10"/>
      <point x="251" y="10" type="curve" smooth="yes"/>
    </contour>
    <contour>
      <point x="134" y="303" type="move"/>
    </contour>
    <contour>
      <point x="235" y="534" type="move" name="top"/>
    </contour>
    <contour>
      <point x="235" y="0" type="move" name="bottom"/>
    </contour>
  </outline>
</glyph>
<glyph name="C" format="1">
  <advance width="572"/>
  <unicode hex="0043"/>
  <outline>
    <contour>
      <point x="192" y="544"/>
      <point x="42" y="434"/>
      <point x="42" y="273" type="curve" smooth="yes"/>
      <point x="42" y="140"/>
      <point x="129" y="-10"/>
      <point x="346" y="-10" type="curve" smooth="yes"/>
      <point x="401" y="-10"/>
      <point x="455" y="-1"/>
      <point x="510" y="23" type="curve" smooth="yes"/>
      <point x="520" y="27"/>
      <point x="521" y="29"/>
      <point x="523" y="43" type="curve" smooth="yes"/>
      <point x="535" y="134" type="line" smooth="yes"/>
      <point x="535" y="137"/>
      <point x="526" y="139"/>
      <point x="525" y="135" type="curve" smooth="yes"/>
      <point x="495" y="41"/>
      <point x="430" y="0"/>
      <point x="349" y="0" type="curve" smooth="yes"/>
      <point x="213" y="0"/>
      <point x="95" y="132"/>
      <point x="95" y="296" type="curve" smooth="yes"/>
      <point x="95" y="434"/>
      <point x="185" y="526"/>
      <point x="320" y="526" type="curve" smooth="yes"/>
      <point x="417" y="526"/>
      <point x="494" y="493"/>
      <point x="517" y="401" type="curve" smooth="yes"/>
      <point x="518" y="397"/>
      <point x="527" y="399"/>
      <point x="527" y="402" type="curve" smooth="yes"/>
      <point x="517" y="492" type="line" smooth="yes"/>
      <point x="516" y="504"/>
      <point x="515" y="506"/>
      <point x="505" y="512" type="curve" smooth="yes"/>
      <point x="470" y="533"/>
      <point x="407" y="544"/>
      <point x="353" y="544" type="curve" smooth="yes"/>
    </contour>
    <contour>
      <point x="324" y="534" type="move" name="top"/>
    </contour>
    <contour>
      <point x="334" y="0" type="move" name="bottom"/>
    </contour>
  </outline>
</glyph>
<glyph name="D" format="1">
  <advance width="588"/>
  <unicode hex="0044"/>
  <outline>
    <contour>
      <point x="412" y="-3"/>
      <point x="546" y="105"/>
      <point x="546" y="276" type="curve" smooth="yes"/>
      <point x="546" y="423"/>
      <point x="425" y="536"/>
      <point x="242" y="536" type="curve" smooth="yes"/>
      <point x="212" y="536"/>
      <point x="166" y="532"/>
      <point x="130" y="532" type="curve" smooth="yes"/>
      <point x="93" y="532"/>
      <point x="59" y="534"/>
      <point x="32" y="534" type="curve" smooth="yes"/>
      <point x="29" y="534"/>
      <point x="29" y="524"/>
      <point x="32" y="524" type="curve" smooth="yes"/>
      <point x="97" y="524"/>
      <point x="108" y="514"/>
      <point x="108" y="465" type="curve" smooth="yes"/>
      <point x="108" y="69" type="line" smooth="yes"/>
      <point x="108" y="20"/>
      <point x="96" y="10"/>
      <point x="31" y="10" type="curve" smooth="yes"/>
      <point x="28" y="10"/>
      <point x="28" y="0"/>
      <point x="31" y="0" type="curve" smooth="yes"/>
      <point x="58" y="0"/>
      <point x="93" y="2"/>
      <point x="130" y="2" type="curve" smooth="yes"/>
      <point x="169" y="2"/>
      <point x="222" y="-3"/>
      <point x="254" y="-3" type="curve" smooth="yes"/>
    </contour>
    <contour>
      <point x="169" y="8"/>
      <point x="153" y="30"/>
      <point x="153" y="79" type="curve" smooth="yes"/>
      <point x="153" y="463" type="line" smooth="yes"/>
      <point x="153" y="517"/>
      <point x="180" y="525"/>
      <point x="250" y="525" type="curve" smooth="yes"/>
      <point x="398" y="525"/>
      <point x="491" y="407"/>
      <point x="491" y="257" type="curve" smooth="yes"/>
      <point x="491" y="96"/>
      <point x="388" y="8"/>
      <point x="245" y="8" type="curve" smooth="yes"/>
    </contour>
    <contour>
      <point x="294" y="267" type="move" name="center"/>
    </contour>
    <contour>
      <point x="274" y="0" type="move" name="bottom"/>
    </contour>
    <contour>
      <point x="271" y="534" type="move" name="top"/>
    </contour>
  </outline>
</glyph>
<glyph name="E" format="1">
  <advance width="456"/>
  <unicode hex="0045"/>
  <outline>
    <contour>
      <point x="401" y="0"/>
      <point x="404" y="3"/>
      <point x="404" y="13" type="curve" smooth="yes"/>
      <point x="404" y="48"/>
      <point x="408" y="94"/>
      <point x="412" y="124" type="curve" smooth="yes"/>
      <point x="412" y="127"/>
      <point x="402" y="128"/>
      <point x="402" y="125" type="curve" smooth="yes"/>
      <point x="393" y="60"/>
      <point x="357" y="16"/>
      <point x="312" y="16" type="curve" smooth="yes"/>
      <point x="233" y="16" type="line" smooth="yes"/>
      <point x="170" y="16"/>
      <point x="159" y="25"/>
      <point x="159" y="73" type="curve" smooth="yes"/>
      <point x="159" y="460" type="line" smooth="yes"/>
      <point x="159" y="509"/>
      <point x="170" y="518"/>
      <point x="233" y="518" type="curve" smooth="yes"/>
      <point x="292" y="518" type="line" smooth="yes"/>
      <point x="342" y="518"/>
      <point x="376" y="482"/>
      <point x="376" y="423" type="curve" smooth="yes"/>
      <point x="376" y="420"/>
      <point x="386" y="420"/>
      <point x="386" y="423" type="curve" smooth="yes"/>
      <point x="384" y="527" type="line" smooth="yes"/>
      <point x="384" y="532"/>
      <point x="382" y="534"/>
      <point x="376" y="534" type="curve" smooth="yes"/>
      <point x="38" y="534" type="line" smooth="yes"/>
      <point x="35" y="534"/>
      <point x="35" y="524"/>
      <point x="38" y="524" type="curve" smooth="yes"/>
      <point x="103" y="524"/>
      <point x="114" y="514"/>
      <point x="114" y="465" type="curve" smooth="yes"/>
      <point x="114" y="69" type="line" smooth="yes"/>
      <point x="114" y="20"/>
      <point x="103" y="10"/>
      <point x="38" y="10" type="curve" smooth="yes"/>
      <point x="35" y="10"/>
      <point x="35" y="0"/>
      <point x="38" y="0" type="curve" smooth="yes"/>
      <point x="391" y="0" type="line" smooth="yes"/>
    </contour>
    <contour>
      <point x="343" y="198"/>
      <point x="353" y="198"/>
      <point x="353" y="201" type="curve" smooth="yes"/>
      <point x="353" y="229"/>
      <point x="351" y="252"/>
      <point x="351" y="278" type="curve" smooth="yes"/>
      <point x="351" y="298"/>
      <point x="352" y="312"/>
      <point x="352" y="345" type="curve" smooth="yes"/>
      <point x="352" y="348"/>
      <point x="342" y="348"/>
      <point x="342" y="345" type="curve" smooth="yes"/>
      <point x="342" y="302"/>
      <point x="324" y="286"/>
      <point x="272" y="286" type="curve" smooth="yes"/>
      <point x="138" y="286" type="line"/>
      <point x="138" y="270" type="line" smooth="yes"/>
      <point x="269" y="270" type="line" smooth="yes"/>
      <point x="324" y="270"/>
      <point x="343" y="252"/>
      <point x="343" y="201" type="curve" smooth="yes"/>
    </contour>
    <contour>
      <point x="402" y="10" type="move" name="ogonek"/>
    </contour>
    <contour>
      <point x="248" y="534" type="move" name="top"/>
    </contour>
    <contour>
      <point x="20" y="534" type="move" name="topleft"/>
    </contour>
    <contour>
      <point x="243" y="0" type="move" name="bottom"/>
    </contour>
  </outline>
</glyph>
<glyph name="F" format="1">
  <advance width="433"/>
  <unicode hex="0046"/>
  <outline>
    <contour>
      <point x="65" y="0"/>
      <point x="100" y="2"/>
      <point x="137" y="2" type="curve" smooth="yes"/>
      <point x="187" y="2"/>
      <point x="229" y="0"/>
      <point x="266" y="0" type="curve" smooth="yes"/>
      <point x="269" y="0"/>
      <point x="269" y="10"/>
      <point x="266" y="10" type="curve" smooth="yes"/>
      <point x="173" y="10"/>
      <point x="159" y="21"/>
      <point x="159" y="73" type="curve" smooth="yes"/>
      <point x="159" y="464" type="line" smooth="yes"/>
      <point x="159" y="509"/>
      <point x="172" y="518"/>
      <point x="233" y="518" type="curve" smooth="yes"/>
      <point x="292" y="518" type="line" smooth="yes"/>
      <point x="342" y="518"/>
      <point x="376" y="482"/>
      <point x="376" y="423" type="curve" smooth="yes"/>
      <point x="376" y="420"/>
      <point x="386" y="420"/>
      <point x="386" y="423" type="curve" smooth="yes"/>
      <point x="384" y="527" type="line" smooth="yes"/>
      <point x="384" y="532"/>
      <point x="382" y="534"/>
      <point x="376" y="534" type="curve" smooth="yes"/>
      <point x="38" y="534" type="line" smooth="yes"/>
      <point x="35" y="534"/>
      <point x="35" y="524"/>
      <point x="38" y="524" type="curve" smooth="yes"/>
      <point x="103" y="524"/>
      <point x="114" y="514"/>
      <point x="114" y="465" type="curve" smooth="yes"/>
      <point x="114" y="69" type="line" smooth="yes"/>
      <point x="114" y="20"/>
      <point x="103" y="10"/>
      <point x="38" y="10" type="curve" smooth="yes"/>
      <point x="35" y="10"/>
      <point x="35" y="0"/>
      <point x="38" y="0" type="curve" smooth="yes"/>
    </contour>
    <contour>
      <point x="333" y="188"/>
      <point x="343" y="188"/>
      <point x="343" y="191" type="curve" smooth="yes"/>
      <point x="343" y="219"/>
      <point x="341" y="242"/>
      <point x="341" y="268" type="curve" smooth="yes"/>
      <point x="341" y="288"/>
      <point x="342" y="302"/>
      <point x="342" y="335" type="curve" smooth="yes"/>
      <point x="342" y="338"/>
      <point x="332" y="338"/>
      <point x="332" y="335" type="curve" smooth="yes"/>
      <point x="332" y="292"/>
      <point x="311" y="276"/>
      <point x="252" y="276" type="curve" smooth="yes"/>
      <point x="138" y="276" type="line"/>
      <point x="138" y="260" type="line" smooth="yes"/>
      <point x="249" y="260" type="line" smooth="yes"/>
      <point x="311" y="260"/>
      <point x="333" y="242"/>
      <point x="333" y="191" type="curve" smooth="yes"/>
    </contour>
    <contour>
      <point x="217" y="534" type="move" name="top"/>
    </contour>
    <contour>
      <point x="217" y="0" type="move" name="bottom"/>
    </contour>
  </outline>
</glyph>
<glyph name="G" format="1">
  <advance width="610"/>
  <unicode hex="0047"/>
  <outline>
    <contour>
      <point x="402" y="-10"/>
      <point x="466" y="0"/>
      <point x="523" y="14" type="curve" smooth="yes"/>
      <point x="531" y="16"/>
      <point x="533" y="17"/>
      <point x="533" y="24" type="curve" smooth="yes"/>
      <point x="533" y="38"/>
      <point x="527" y="42"/>
      <point x="527" y="99" type="curve" smooth="yes"/>
      <point x="527" y="190"/>
      <point x="530" y="200"/>
      <point x="573" y="199" type="curve" smooth="yes"/>
      <point x="579" y="199"/>
      <point x="578" y="211"/>
      <point x="573" y="211" type="curve" smooth="yes"/>
      <point x="509" y="208"/>
      <point x="456" y="208"/>
      <point x="385" y="213" type="curve" smooth="yes"/>
      <point x="379" y="213"/>
      <point x="379" y="199"/>
      <point x="386" y="199" type="curve" smooth="yes"/>
      <point x="479" y="199"/>
      <point x="486" y="190"/>
      <point x="486" y="108" type="curve" smooth="yes"/>
      <point x="486" y="20"/>
      <point x="452" y="4"/>
      <point x="366" y="4" type="curve" smooth="yes"/>
      <point x="210" y="4"/>
      <point x="95" y="123"/>
      <point x="95" y="291" type="curve" smooth="yes"/>
      <point x="95" y="436"/>
      <point x="180" y="526"/>
      <point x="333" y="526" type="curve" smooth="yes"/>
      <point x="430" y="526"/>
      <point x="497" y="483"/>
      <point x="518" y="401" type="curve" smooth="yes"/>
      <point x="519" y="397"/>
      <point x="528" y="399"/>
      <point x="528" y="402" type="curve" smooth="yes"/>
      <point x="518" y="492" type="line" smooth="yes"/>
      <point x="517" y="501"/>
      <point x="519" y="504"/>
      <point x="509" y="511" type="curve" smooth="yes"/>
      <point x="475" y="533"/>
      <point x="422" y="544"/>
      <point x="368" y="544" type="curve" smooth="yes"/>
      <point x="180" y="544"/>
      <point x="42" y="429"/>
      <point x="42" y="261" type="curve" smooth="yes"/>
      <point x="42" y="110"/>
      <point x="154" y="-10"/>
      <point x="345" y="-10" type="curve" smooth="yes"/>
    </contour>
    <contour>
      <point x="337" y="534" type="move" name="top"/>
    </contour>
    <contour>
      <point x="357" y="0" type="move" name="bottom"/>
    </contour>
  </outline>
</glyph>
<glyph name="H" format="1">
  <advance width="648"/>
  <unicode hex="0048"/>
  <outline>
    <contour>
      <point x="494" y="69" type="line" smooth="yes"/>
      <point x="494" y="20"/>
      <point x="484" y="10"/>
      <point x="418" y="10" type="curve" smooth="yes"/>
      <point x="415" y="10"/>
      <point x="415" y="0"/>
      <point x="418" y="0" type="curve" smooth="yes"/>
      <point x="445" y="0"/>
      <point x="478" y="2"/>
      <point x="517" y="2" type="curve" smooth="yes"/>
      <point x="554" y="2"/>
      <point x="589" y="0"/>
      <point x="616" y="0" type="curve" smooth="yes"/>
      <point x="619" y="0"/>
      <point x="619" y="10"/>
      <point x="616" y="10" type="curve" smooth="yes"/>
      <point x="551" y="10"/>
      <point x="539" y="20"/>
      <point x="539" y="69" type="curve" smooth="yes"/>
      <point x="539" y="465" type="line" smooth="yes"/>
      <point x="539" y="514"/>
      <point x="551" y="524"/>
      <point x="616" y="524" type="curve" smooth="yes"/>
      <point x="619" y="524"/>
      <point x="619" y="534"/>
      <point x="616" y="534" type="curve" smooth="yes"/>
      <point x="589" y="534"/>
      <point x="554" y="532"/>
      <point x="517" y="532" type="curve" smooth="yes"/>
      <point x="478" y="532"/>
      <point x="445" y="534"/>
      <point x="418" y="534" type="curve" smooth="yes"/>
      <point x="415" y="534"/>
      <point x="415" y="524"/>
      <point x="418" y="524" type="curve" smooth="yes"/>
      <point x="484" y="524"/>
      <point x="494" y="512"/>
      <point x="494" y="463" type="curve" smooth="yes"/>
    </contour>
    <contour>
      <point x="513" y="270" type="line"/>
      <point x="513" y="286" type="line"/>
      <point x="128" y="286" type="line"/>
      <point x="128" y="270" type="line"/>
    </contour>
    <contour>
      <point x="108" y="20"/>
      <point x="96" y="10"/>
      <point x="31" y="10" type="curve" smooth="yes"/>
      <point x="28" y="10"/>
      <point x="28" y="0"/>
      <point x="31" y="0" type="curve" smooth="yes"/>
      <point x="58" y="0"/>
      <point x="93" y="2"/>
      <point x="130" y="2" type="curve" smooth="yes"/>
      <point x="169" y="2"/>
      <point x="202" y="0"/>
      <point x="229" y="0" type="curve" smooth="yes"/>
      <point x="232" y="0"/>
      <point x="232" y="10"/>
      <point x="229" y="10" type="curve" smooth="yes"/>
      <point x="163" y="10"/>
      <point x="153" y="20"/>
      <point x="153" y="69" type="curve" smooth="yes"/>
      <point x="153" y="463" type="line" smooth="yes"/>
      <point x="153" y="512"/>
      <point x="164" y="524"/>
      <point x="229" y="524" type="curve" smooth="yes"/>
      <point x="232" y="524"/>
      <point x="232" y="534"/>
      <point x="229" y="534" type="curve" smooth="yes"/>
      <point x="203" y="534"/>
      <point x="169" y="532"/>
      <point x="130" y="532" type="curve" smooth="yes"/>
      <point x="93" y="532"/>
      <point x="59" y="534"/>
      <point x="32" y="534" type="curve" smooth="yes"/>
      <point x="29" y="534"/>
      <point x="29" y="524"/>
      <point x="32" y="524" type="curve" smooth="yes"/>
      <point x="97" y="524"/>
      <point x="108" y="514"/>
      <point x="108" y="465" type="curve" smooth="yes"/>
      <point x="108" y="69" type="line" smooth="yes"/>
    </contour>
    <contour>
      <point x="324" y="0" type="move" name="bottom"/>
    </contour>
    <contour>
      <point x="324" y="534" type="move" name="top"/>
    </contour>
    <contour>
      <point x="20" y="534" type="move" name="topleft"/>
    </contour>
    <contour>
      <point x="324" y="267" type="move" name="center"/>
    </contour>
  </outline>
</glyph>
<glyph name="I" format="1">
  <advance width="282"/>
  <unicode hex="0049"/>
  <outline>
    <contour>
      <point x="164" y="463" type="line" smooth="yes"/>
      <point x="164" y="512"/>
      <point x="175" y="524"/>
      <point x="240" y="524" type="curve" smooth="yes"/>
      <point x="243" y="524"/>
      <point x="243" y="534"/>
      <point x="240" y="534" type="curve" smooth="yes"/>
      <point x="214" y="534"/>
      <point x="180" y="532"/>
      <point x="140" y="532" type="curve" smooth="yes"/>
      <point x="103" y="532"/>
      <point x="68" y="534"/>
      <point x="41" y="534" type="curve" smooth="yes"/>
      <point x="38" y="534"/>
      <point x="38" y="524"/>
      <point x="41" y="524" type="curve" smooth="yes"/>
      <point x="106" y="524"/>
      <point x="118" y="514"/>
      <point x="118" y="465" type="curve" smooth="yes"/>
      <point x="118" y="69" type="line" smooth="yes"/>
      <point x="118" y="20"/>
      <point x="106" y="10"/>
      <point x="41" y="10" type="curve" smooth="yes"/>
      <point x="38" y="10"/>
      <point x="38" y="0"/>
      <point x="41" y="0" type="curve" smooth="yes"/>
      <point x="68" y="0"/>
      <point x="103" y="2"/>
      <point x="140" y="2" type="curve" smooth="yes"/>
      <point x="180" y="2"/>
      <point x="213" y="0"/>
      <point x="240" y="0" type="curve" smooth="yes"/>
      <point x="243" y="0"/>
      <point x="243" y="10"/>
      <point x="240" y="10" type="curve" smooth="yes"/>
      <point x="174" y="10"/>
      <point x="164" y="20"/>
      <point x="164" y="69" type="curve" smooth="yes"/>
    </contour>
    <contour>
      <point x="228" y="10" type="move" name="ogonek"/>
    </contour>
    <contour>
      <point x="141" y="534" type="move" name="top"/>
    </contour>
    <contour>
      <point x="20" y="534" type="move" name="topleft"/>
    </contour>
    <contour>
      <point x="141" y="0" type="move" name="bottom"/>
    </contour>
  </outline>
</glyph>
<glyph name="K" format="1">
  <advance width="555"/>
  <unicode hex="004B"/>
  <outline>
    <contour>
      <point x="108" y="20"/>
      <point x="96" y="10"/>
      <point x="31" y="10" type="curve" smooth="yes"/>
      <point x="28" y="10"/>
      <point x="28" y="0"/>
      <point x="31" y="0" type="curve" smooth="yes"/>
      <point x="58" y="0"/>
      <point x="93" y="2"/>
      <point x="130" y="2" type="curve" smooth="yes"/>
      <point x="169" y="2"/>
      <point x="202" y="0"/>
      <point x="229" y="0" type="curve" smooth="yes"/>
      <point x="232" y="0"/>
      <point x="232" y="10"/>
      <point x="229" y="10" type="curve" smooth="yes"/>
      <point x="163" y="10"/>
      <point x="153" y="20"/>
      <point x="153" y="69" type="curve" smooth="yes"/>
      <point x="153" y="463" type="line" smooth="yes"/>
      <point x="153" y="512"/>
      <point x="164" y="524"/>
      <point x="229" y="524" type="curve" smooth="yes"/>
      <point x="232" y="524"/>
      <point x="232" y="534"/>
      <point x="229" y="534" type="curve" smooth="yes"/>
      <point x="203" y="534"/>
      <point x="169" y="532"/>
      <point x="130" y="532" type="curve" smooth="yes"/>
      <point x="93" y="532"/>
      <point x="59" y="534"/>
      <point x="32" y="534" type="curve" smooth="yes"/>
      <point x="29" y="534"/>
      <point x="29" y="524"/>
      <point x="32" y="524" type="curve" smooth="yes"/>
      <point x="97" y="524"/>
      <point x="108" y="514"/>
      <point x="108" y="465" type="curve" smooth="yes"/>
      <point x="108" y="69" type="line" smooth="yes"/>
    </contour>
    <contour>
      <point x="425" y="-8"/>
      <point x="390" y="0"/>
      <point x="447" y="0" type="curve" smooth="yes"/>
      <point x="462" y="0"/>
      <point x="492" y="0"/>
      <point x="543" y="0" type="curve" smooth="yes"/>
      <point x="546" y="0"/>
      <point x="546" y="10"/>
      <point x="543" y="10" type="curve" smooth="yes"/>
      <point x="488" y="10"/>
      <point x="472" y="0"/>
      <point x="338" y="169" type="curve" smooth="yes"/>
      <point x="215" y="324" type="line"/>
      <point x="179" y="298" type="line"/>
      <point x="319" y="124" type="line" smooth="yes"/>
    </contour>
    <contour>
      <point x="142" y="252" type="line"/>
      <point x="361" y="465" type="line" smooth="yes"/>
      <point x="409" y="512"/>
      <point x="463" y="524"/>
      <point x="503" y="524" type="curve" smooth="yes"/>
      <point x="506" y="524"/>
      <point x="506" y="534"/>
      <point x="503" y="534" type="curve" smooth="yes"/>
      <point x="480" y="534"/>
      <point x="459" y="532"/>
      <point x="417" y="532" type="curve" smooth="yes"/>
      <point x="371" y="532"/>
      <point x="348" y="534"/>
      <point x="321" y="534" type="curve" smooth="yes"/>
      <point x="318" y="534"/>
      <point x="318" y="524"/>
      <point x="321" y="524" type="curve" smooth="yes"/>
      <point x="381" y="524"/>
      <point x="385" y="514"/>
      <point x="341" y="470" type="curve" smooth="yes"/>
      <point x="121" y="251" type="line"/>
    </contour>
    <contour>
      <point x="278" y="534" type="move" name="top"/>
    </contour>
    <contour>
      <point x="293" y="0" type="move" name="bottom"/>
    </contour>
  </outline>
</glyph>
<glyph name="L" format="1">
  <advance width="453"/>
  <unicode hex="004C"/>
  <outline>
    <contour>
      <point x="152" y="513"/>
      <point x="163" y="524"/>
      <point x="228" y="524" type="curve" smooth="yes"/>
      <point x="231" y="524"/>
      <point x="231" y="534"/>
      <point x="228" y="534" type="curve" smooth="yes"/>
      <point x="202" y="534"/>
      <point x="168" y="532"/>
      <point x="129" y="532" type="curve" smooth="yes"/>
      <point x="92" y="532"/>
      <point x="58" y="534"/>
      <point x="31" y="534" type="curve" smooth="yes"/>
      <point x="28" y="534"/>
      <point x="28" y="524"/>
      <point x="31" y="524" type="curve" smooth="yes"/>
      <point x="96" y="524"/>
      <point x="107" y="514"/>
      <point x="107" y="465" type="curve" smooth="yes"/>
      <point x="107" y="69" type="line" smooth="yes"/>
      <point x="107" y="20"/>
      <point x="96" y="10"/>
      <point x="31" y="10" type="curve" smooth="yes"/>
      <point x="28" y="10"/>
      <point x="28" y="0"/>
      <point x="31" y="0" type="curve" smooth="yes"/>
      <point x="424" y="0" type="line" smooth="yes"/>
      <point x="434" y="0"/>
      <point x="437" y="3"/>
      <point x="437" y="13" type="curve" smooth="yes"/>
      <point x="437" y="48"/>
      <point x="441" y="94"/>
      <point x="445" y="124" type="curve" smooth="yes"/>
      <point x="445" y="127"/>
      <point x="435" y="128"/>
      <point x="435" y="125" type="curve" smooth="yes"/>
      <point x="426" y="60"/>
      <point x="396" y="16"/>
      <point x="335" y="16" type="curve" smooth="yes"/>
      <point x="226" y="16" type="line" smooth="yes"/>
      <point x="163" y="16"/>
      <point x="152" y="25"/>
      <point x="152" y="73" type="curve" smooth="yes"/>
      <point x="152" y="464" type="line" smooth="yes"/>
    </contour>
    <contour>
      <point x="255" y="0" type="move" name="bottom"/>
    </contour>
    <contour>
      <point x="134" y="534" type="move" name="top"/>
    </contour>
    <contour>
      <point x="423" y="534" type="move" name="topright"/>
    </contour>
    <contour>
      <point x="227" y="267" type="move" name="center"/>
    </contour>
  </outline>
</glyph>
<glyph name="M" format="1">
  <advance width="710"/>
  <unicode hex="004D"/>
  <outline>
    <contour>
      <point x="102" y="31"/>
      <point x="84" y="10"/>
      <point x="36" y="10" type="curve" smooth="yes"/>
      <point x="33" y="10"/>
      <point x="33" y="0"/>
      <point x="36" y="0" type="curve" smooth="yes"/>
      <point x="58" y="0"/>
      <point x="84" y="2"/>
      <point x="111" y="2" type="curve" smooth="yes"/>
      <point x="143" y="2"/>
      <point x="169" y="0"/>
      <point x="194" y="0" type="curve" smooth="yes"/>
      <point x="197" y="0"/>
      <point x="197" y="10"/>
      <point x="194" y="10" type="curve" smooth="yes"/>
      <point x="137" y="10"/>
      <point x="121" y="31"/>
      <point x="122" y="89" type="curve" smooth="yes"/>
      <point x="130" y="513" type="line"/>
      <point x="111" y="515" type="line"/>
      <point x="103" y="89" type="line" smooth="yes"/>
    </contour>
    <contour>
      <point x="625" y="10"/>
      <point x="615" y="20"/>
      <point x="613" y="69" type="curve" smooth="yes"/>
      <point x="597" y="467" type="line" smooth="yes"/>
      <point x="595" y="515"/>
      <point x="622" y="524"/>
      <point x="677" y="524" type="curve" smooth="yes"/>
      <point x="680" y="524"/>
      <point x="680" y="534"/>
      <point x="677" y="534" type="curve" smooth="yes"/>
      <point x="657" y="534"/>
      <point x="641" y="533"/>
      <point x="612" y="533" type="curve" smooth="yes"/>
      <point x="597" y="533"/>
      <point x="585" y="534"/>
      <point x="580" y="534" type="curve" smooth="yes"/>
      <point x="570" y="534"/>
      <point x="560" y="526"/>
      <point x="554" y="513" type="curve" smooth="yes"/>
      <point x="344" y="31" type="line"/>
      <point x="366" y="67" type="line"/>
      <point x="170" y="490" type="line" smooth="yes"/>
      <point x="152" y="528"/>
      <point x="146" y="534"/>
      <point x="131" y="534" type="curve" smooth="yes"/>
      <point x="124" y="534"/>
      <point x="109" y="533"/>
      <point x="93" y="533" type="curve" smooth="yes"/>
      <point x="80" y="533"/>
      <point x="59" y="534"/>
      <point x="42" y="534" type="curve" smooth="yes"/>
      <point x="39" y="534"/>
      <point x="39" y="524"/>
      <point x="42" y="524" type="curve" smooth="yes"/>
      <point x="83" y="524"/>
      <point x="111" y="505"/>
      <point x="130" y="463" type="curve" smooth="yes"/>
      <point x="339" y="6" type="line"/>
      <point x="341" y="2"/>
      <point x="351" y="2"/>
      <point x="353" y="6" type="curve"/>
      <point x="577" y="522" type="line"/>
      <point x="552" y="491" type="line"/>
      <point x="568" y="69" type="line" smooth="yes"/>
      <point x="570" y="20"/>
      <point x="559" y="10"/>
      <point x="502" y="10" type="curve" smooth="yes"/>
      <point x="499" y="10"/>
      <point x="499" y="0"/>
      <point x="502" y="0" type="curve" smooth="yes"/>
      <point x="526" y="0"/>
      <point x="556" y="2"/>
      <point x="591" y="2" type="curve" smooth="yes"/>
      <point x="628" y="2"/>
      <point x="663" y="0"/>
      <point x="690" y="0" type="curve" smooth="yes"/>
      <point x="693" y="0"/>
      <point x="693" y="10"/>
      <point x="690" y="10" type="curve" smooth="yes"/>
    </contour>
    <contour>
      <point x="355" y="534" type="move" name="top"/>
    </contour>
    <contour>
      <point x="347" y="0" type="move" name="bottom"/>
    </contour>
  </outline>
</glyph>
<glyph name="N" format="1">
  <advance width="620"/>
  <unicode hex="004E"/>
  <outline>
    <contour>
      <point x="101" y="31"/>
      <point x="86" y="10"/>
      <point x="37" y="10" type="curve" smooth="yes"/>
      <point x="34" y="10"/>
      <point x="34" y="0"/>
      <point x="37" y="0" type="curve" smooth="yes"/>
      <point x="59" y="0"/>
      <point x="85" y="2"/>
      <point x="112" y="2" type="curve" smooth="yes"/>
      <point x="140" y="2"/>
      <point x="163" y="0"/>
      <point x="185" y="0" type="curve" smooth="yes"/>
      <point x="188" y="0"/>
      <point x="188" y="10"/>
      <point x="185" y="10" type="curve" smooth="yes"/>
      <point x="137" y="10"/>
      <point x="120" y="31"/>
      <point x="120" y="89" type="curve" smooth="yes"/>
      <point x="120" y="513" type="line"/>
      <point x="101" y="515" type="line"/>
      <point x="101" y="89" type="line" smooth="yes"/>
    </contour>
    <contour>
      <point x="524" y="56" type="line"/>
      <point x="174" y="490" type="line" smooth="yes"/>
      <point x="148" y="522"/>
      <point x="150" y="534"/>
      <point x="135" y="534" type="curve" smooth="yes"/>
      <point x="128" y="534"/>
      <point x="113" y="533"/>
      <point x="97" y="533" type="curve" smooth="yes"/>
      <point x="80" y="533"/>
      <point x="58" y="534"/>
      <point x="39" y="534" type="curve" smooth="yes"/>
      <point x="36" y="534"/>
      <point x="36" y="524"/>
      <point x="39" y="524" type="curve" smooth="yes"/>
      <point x="67" y="524"/>
      <point x="96" y="511"/>
      <point x="134" y="464" type="curve" smooth="yes"/>
      <point x="521" y="-11" type="line" smooth="yes"/>
      <point x="523" y="-13"/>
      <point x="531" y="-12"/>
      <point x="531" y="-9" type="curve" smooth="yes"/>
    </contour>
    <contour>
      <point x="531" y="503"/>
      <point x="549" y="524"/>
      <point x="598" y="524" type="curve" smooth="yes"/>
      <point x="601" y="524"/>
      <point x="601" y="534"/>
      <point x="598" y="534" type="curve" smooth="yes"/>
      <point x="576" y="534"/>
      <point x="549" y="532"/>
      <point x="522" y="532" type="curve" smooth="yes"/>
      <point x="494" y="532"/>
      <point x="471" y="534"/>
      <point x="449" y="534" type="curve" smooth="yes"/>
      <point x="446" y="534"/>
      <point x="446" y="524"/>
      <point x="449" y="524" type="curve" smooth="yes"/>
      <point x="497" y="524"/>
      <point x="512" y="503"/>
      <point x="512" y="445" type="curve" smooth="yes"/>
      <point x="512" y="17" type="line"/>
      <point x="531" y="-9" type="line"/>
      <point x="531" y="445" type="line" smooth="yes"/>
    </contour>
    <contour>
      <point x="320" y="534" type="move" name="top"/>
    </contour>
    <contour>
      <point x="320" y="0" type="move" name="bottom"/>
    </contour>
  </outline>
</glyph>
<glyph name="O" format="1">
  <advance width="655"/>
  <unicode hex="004F"/>
  <outline>
    <contour>
      <point x="475" y="-10"/>
      <point x="613" y="114"/>
      <point x="613" y="273" type="curve" smooth="yes"/>
      <point x="613" y="410"/>
      <point x="511" y="544"/>
      <point x="343" y="544" type="curve" smooth="yes"/>
      <point x="204" y="544"/>
      <point x="42" y="452"/>
      <point x="42" y="267" type="curve" smooth="yes"/>
      <point x="42" y="116"/>
      <point x="149" y="-10"/>
      <point x="313" y="-10" type="curve" smooth="yes"/>
    </contour>
    <contour>
      <point x="196" y="7"/>
      <point x="97" y="136"/>
      <point x="97" y="296" type="curve" smooth="yes"/>
      <point x="97" y="437"/>
      <point x="174" y="525"/>
      <point x="307" y="525" type="curve" smooth="yes"/>
      <point x="459" y="525"/>
      <point x="558" y="410"/>
      <point x="558" y="249" type="curve" smooth="yes"/>
      <point x="558" y="92"/>
      <point x="463" y="7"/>
      <point x="344" y="7" type="curve" smooth="yes"/>
    </contour>
    <contour>
      <point x="338" y="0" type="move" name="bottom"/>
    </contour>
    <contour>
      <point x="428" y="10" type="move" name="ogonek"/>
    </contour>
    <contour>
      <point x="328" y="534" type="move" name="top"/>
    </contour>
    <contour>
      <point x="515" y="494" type="move" name="topright"/>
    </contour>
    <contour>
      <point x="20" y="534" type="move" name="topleft"/>
    </contour>
    <contour>
      <point x="328" y="267" type="move" name="center"/>
    </contour>
  </outline>
</glyph>
<glyph name="P" format="1">
  <advance width="462"/>
  <unicode hex="0050"/>
  <outline>
    <contour>
      <point x="159" y="463" type="line" smooth="yes"/>
      <point x="159" y="524"/>
      <point x="174" y="526"/>
      <point x="236" y="526" type="curve" smooth="yes"/>
      <point x="310" y="526"/>
      <point x="372" y="473"/>
      <point x="372" y="380" type="curve" smooth="yes"/>
      <point x="372" y="281"/>
      <point x="302" y="236"/>
      <point x="227" y="236" type="curve" smooth="yes"/>
      <point x="217" y="236"/>
      <point x="206" y="237"/>
      <point x="196" y="239" type="curve" smooth="yes"/>
      <point x="192" y="240"/>
      <point x="190" y="229"/>
      <point x="194" y="228" type="curve" smooth="yes"/>
      <point x="207" y="225"/>
      <point x="221" y="224"/>
      <point x="236" y="224" type="curve" smooth="yes"/>
      <point x="322" y="224"/>
      <point x="425" y="276"/>
      <point x="425" y="397" type="curve" smooth="yes"/>
      <point x="425" y="496"/>
      <point x="350" y="537"/>
      <point x="256" y="537" type="curve" smooth="yes"/>
      <point x="210" y="537"/>
      <point x="165" y="532"/>
      <point x="136" y="532" type="curve" smooth="yes"/>
      <point x="99" y="532"/>
      <point x="65" y="534"/>
      <point x="38" y="534" type="curve" smooth="yes"/>
      <point x="35" y="534"/>
      <point x="35" y="524"/>
      <point x="38" y="524" type="curve" smooth="yes"/>
      <point x="103" y="524"/>
      <point x="114" y="514"/>
      <point x="114" y="465" type="curve" smooth="yes"/>
      <point x="114" y="69" type="line" smooth="yes"/>
      <point x="114" y="20"/>
      <point x="103" y="10"/>
      <point x="38" y="10" type="curve" smooth="yes"/>
      <point x="35" y="10"/>
      <point x="35" y="0"/>
      <point x="38" y="0" type="curve" smooth="yes"/>
      <point x="65" y="0"/>
      <point x="100" y="2"/>
      <point x="137" y="2" type="curve" smooth="yes"/>
      <point x="187" y="2"/>
      <point x="229" y="0"/>
      <point x="266" y="0" type="curve" smooth="yes"/>
      <point x="269" y="0"/>
      <point x="269" y="10"/>
      <point x="266" y="10" type="curve" smooth="yes"/>
      <point x="173" y="10"/>
      <point x="159" y="21"/>
      <point x="159" y="73" type="curve" smooth="yes"/>
    </contour>
    <contour>
      <point x="231" y="534" type="move" name="top"/>
    </contour>
    <contour>
      <point x="231" y="0" type="move" name="bottom"/>
    </contour>
  </outline>
</glyph>
<glyph name="Q" format="1">
  <advance width="655"/>
  <unicode hex="0051"/>
  <outline>
    <contour>
      <point x="327" y="2" type="line"/>
      <point x="391" y="-98"/>
      <point x="490" y="-152"/>
      <point x="567" y="-152" type="curve" smooth="yes"/>
      <point x="588" y="-152"/>
      <point x="614" y="-148"/>
      <point x="640" y="-142" type="curve" smooth="yes"/>
      <point x="643" y="-141"/>
      <point x="640" y="-132"/>
      <point x="637" y="-133" type="curve" smooth="yes"/>
      <point x="629" y="-135"/>
      <point x="616" y="-136"/>
      <point x="606" y="-136" type="curve" smooth="yes"/>
      <point x="533" y="-136"/>
      <point x="439" y="-78"/>
      <point x="390" y="5" type="curve"/>
    </contour>
    <component base="O"/>
    <contour>
      <point x="328" y="534" type="move" name="top"/>
    </contour>
    <contour>
      <point x="328" y="0" type="move" name="bottom"/>
    </contour>
  </outline>
</glyph>
<glyph name="R" format="1">
  <advance width="570"/>
  <unicode hex="0052"/>
  <outline>
    <contour>
      <point x="494" y="0"/>
      <point x="527" y="0"/>
      <point x="578" y="0" type="curve" smooth="yes"/>
      <point x="581" y="0"/>
      <point x="581" y="10"/>
      <point x="578" y="10" type="curve" smooth="yes"/>
      <point x="504" y="10"/>
      <point x="433" y="83"/>
      <point x="286" y="298" type="curve"/>
      <point x="245" y="285" type="line"/>
      <point x="361" y="109"/>
      <point x="449" y="0"/>
      <point x="479" y="0" type="curve" smooth="yes"/>
    </contour>
    <contour>
      <point x="211" y="537"/>
      <point x="166" y="532"/>
      <point x="137" y="532" type="curve" smooth="yes"/>
      <point x="100" y="532"/>
      <point x="66" y="534"/>
      <point x="39" y="534" type="curve" smooth="yes"/>
      <point x="36" y="534"/>
      <point x="36" y="524"/>
      <point x="39" y="524" type="curve" smooth="yes"/>
      <point x="104" y="524"/>
      <point x="115" y="514"/>
      <point x="115" y="465" type="curve" smooth="yes"/>
      <point x="115" y="69" type="line" smooth="yes"/>
      <point x="115" y="20"/>
      <point x="103" y="10"/>
      <point x="38" y="10" type="curve" smooth="yes"/>
      <point x="35" y="10"/>
      <point x="35" y="0"/>
      <point x="38" y="0" type="curve" smooth="yes"/>
      <point x="65" y="0"/>
      <point x="100" y="2"/>
      <point x="137" y="2" type="curve" smooth="yes"/>
      <point x="176" y="2"/>
      <point x="209" y="0"/>
      <point x="236" y="0" type="curve" smooth="yes"/>
      <point x="239" y="0"/>
      <point x="239" y="10"/>
      <point x="236" y="10" type="curve" smooth="yes"/>
      <point x="170" y="10"/>
      <point x="160" y="20"/>
      <point x="160" y="69" type="curve" smooth="yes"/>
      <point x="160" y="274" type="line"/>
      <point x="171" y="273"/>
      <point x="186" y="272"/>
      <point x="197" y="272" type="curve" smooth="yes"/>
      <point x="295" y="272"/>
      <point x="376" y="345"/>
      <point x="376" y="430" type="curve" smooth="yes"/>
      <point x="376" y="496"/>
      <point x="328" y="537"/>
      <point x="237" y="537" type="curve" smooth="yes"/>
    </contour>
    <contour>
      <point x="328" y="323"/>
      <point x="294" y="291"/>
      <point x="211" y="291" type="curve" smooth="yes"/>
      <point x="196" y="291"/>
      <point x="176" y="292"/>
      <point x="160" y="294" type="curve"/>
      <point x="160" y="463" type="line" smooth="yes"/>
      <point x="160" y="524"/>
      <point x="175" y="526"/>
      <point x="217" y="526" type="curve" smooth="yes"/>
      <point x="280" y="526"/>
      <point x="328" y="493"/>
      <point x="328" y="401" type="curve" smooth="yes"/>
    </contour>
    <contour>
      <point x="220" y="534" type="move" name="top"/>
    </contour>
    <contour>
      <point x="291" y="0" type="move" name="bottom"/>
    </contour>
  </outline>
</glyph>
<glyph name="S" format="1">
  <advance width="415"/>
  <unicode hex="0053"/>
  <outline>
    <contour>
      <point x="118" y="480"/>
      <point x="143" y="533"/>
      <point x="217" y="533" type="curve" smooth="yes"/>
      <point x="299" y="533"/>
      <point x="332" y="468"/>
      <point x="336" y="418" type="curve" smooth="yes"/>
      <point x="337" y="413"/>
      <point x="346" y="413"/>
      <point x="346" y="418" type="curve" smooth="yes"/>
      <point x="339" y="509" type="line" smooth="yes"/>
      <point x="339" y="515"/>
      <point x="334" y="520"/>
      <point x="326" y="523" type="curve" smooth="yes"/>
      <point x="290" y="538"/>
      <point x="257" y="544"/>
      <point x="228" y="544" type="curve" smooth="yes"/>
      <point x="151" y="544"/>
      <point x="74" y="500"/>
      <point x="74" y="411" type="curve" smooth="yes"/>
      <point x="74" y="331"/>
      <point x="135" y="296"/>
      <point x="196" y="260" type="curve" smooth="yes"/>
      <point x="258" y="223"/>
      <point x="321" y="187"/>
      <point x="321" y="104" type="curve" smooth="yes"/>
      <point x="321" y="27"/>
      <point x="266" y="2"/>
      <point x="213" y="2" type="curve" smooth="yes"/>
      <point x="120" y="2"/>
      <point x="76" y="80"/>
      <point x="67" y="148" type="curve" smooth="yes"/>
      <point x="66" y="152"/>
      <point x="56" y="151"/>
      <point x="57" y="146" type="curve" smooth="yes"/>
      <point x="70" y="35" type="line" smooth="yes"/>
      <point x="71" y="27"/>
      <point x="72" y="22"/>
      <point x="78" y="19" type="curve" smooth="yes"/>
      <point x="122" y="-3"/>
      <point x="156" y="-10"/>
      <point x="194" y="-10" type="curve" smooth="yes"/>
      <point x="310" y="-10"/>
      <point x="368" y="56"/>
      <point x="368" y="134" type="curve" smooth="yes"/>
      <point x="368" y="216"/>
      <point x="302" y="252"/>
      <point x="239" y="289" type="curve" smooth="yes"/>
      <point x="178" y="325"/>
      <point x="118" y="358"/>
      <point x="118" y="431" type="curve" smooth="yes"/>
    </contour>
    <contour>
      <point x="215" y="534" type="move" name="top"/>
    </contour>
    <contour>
      <point x="225" y="0" type="move" name="bottom"/>
    </contour>
  </outline>
</glyph>
<glyph name="T" format="1">
  <advance width="540"/>
  <unicode hex="0054"/>
  <outline>
    <contour>
      <point x="234" y="520"/>
      <point x="249" y="520"/>
      <point x="249" y="465" type="curve" smooth="yes"/>
      <point x="249" y="69" type="line" smooth="yes"/>
      <point x="249" y="20"/>
      <point x="235" y="10"/>
      <point x="162" y="10" type="curve" smooth="yes"/>
      <point x="159" y="10"/>
      <point x="159" y="0"/>
      <point x="162" y="0" type="curve" smooth="yes"/>
      <point x="192" y="0"/>
      <point x="230" y="2"/>
      <point x="271" y="2" type="curve" smooth="yes"/>
      <point x="315" y="2"/>
      <point x="351" y="0"/>
      <point x="381" y="0" type="curve" smooth="yes"/>
      <point x="384" y="0"/>
      <point x="384" y="10"/>
      <point x="381" y="10" type="curve" smooth="yes"/>
      <point x="306" y="10"/>
      <point x="295" y="20"/>
      <point x="295" y="69" type="curve" smooth="yes"/>
      <point x="295" y="463" type="line" smooth="yes"/>
      <point x="295" y="517"/>
      <point x="307" y="520"/>
      <point x="388" y="520" type="curve" smooth="yes"/>
      <point x="467" y="520"/>
      <point x="492" y="491"/>
      <point x="492" y="403" type="curve" smooth="yes"/>
      <point x="492" y="400"/>
      <point x="502" y="400"/>
      <point x="502" y="403" type="curve" smooth="yes"/>
      <point x="502" y="429"/>
      <point x="506" y="522"/>
      <point x="510" y="556" type="curve" smooth="yes"/>
      <point x="510" y="560"/>
      <point x="501" y="560"/>
      <point x="500" y="556" type="curve" smooth="yes"/>
      <point x="494" y="538"/>
      <point x="474" y="534"/>
      <point x="436" y="534" type="curve" smooth="yes"/>
      <point x="392" y="534"/>
      <point x="351" y="532"/>
      <point x="271" y="532" type="curve" smooth="yes"/>
      <point x="207" y="532"/>
      <point x="148" y="533"/>
      <point x="99" y="534" type="curve" smooth="yes"/>
      <point x="83" y="534"/>
      <point x="54" y="536"/>
      <point x="54" y="553" type="curve" smooth="yes"/>
      <point x="54" y="559"/>
      <point x="44" y="558"/>
      <point x="44" y="553" type="curve" smooth="yes"/>
      <point x="44" y="516"/>
      <point x="36" y="431"/>
      <point x="32" y="403" type="curve" smooth="yes"/>
      <point x="32" y="400"/>
      <point x="42" y="400"/>
      <point x="42" y="403" type="curve" smooth="yes"/>
      <point x="54" y="491"/>
      <point x="82" y="520"/>
      <point x="154" y="520" type="curve" smooth="yes"/>
    </contour>
    <contour>
      <point x="270" y="267" type="move" name="center"/>
    </contour>
    <contour>
      <point x="275" y="0" type="move" name="bottom"/>
    </contour>
    <contour>
      <point x="270" y="534" type="move" name="top"/>
    </contour>
  </outline>
</glyph>
<glyph name="U" format="1">
  <advance width="596"/>
  <unicode hex="0055"/>
  <outline>
    <contour>
      <point x="489" y="199" type="line" smooth="yes"/>
      <point x="489" y="84"/>
      <point x="428" y="14"/>
      <point x="324" y="14" type="curve" smooth="yes"/>
      <point x="211" y="14"/>
      <point x="145" y="88"/>
      <point x="145" y="222" type="curve" smooth="yes"/>
      <point x="145" y="463" type="line" smooth="yes"/>
      <point x="145" y="512"/>
      <point x="156" y="524"/>
      <point x="221" y="524" type="curve" smooth="yes"/>
      <point x="224" y="524"/>
      <point x="224" y="534"/>
      <point x="221" y="534" type="curve" smooth="yes"/>
      <point x="195" y="534"/>
      <point x="161" y="532"/>
      <point x="122" y="532" type="curve" smooth="yes"/>
      <point x="85" y="532"/>
      <point x="51" y="534"/>
      <point x="24" y="534" type="curve" smooth="yes"/>
      <point x="21" y="534"/>
      <point x="21" y="524"/>
      <point x="24" y="524" type="curve" smooth="yes"/>
      <point x="89" y="524"/>
      <point x="100" y="514"/>
      <point x="100" y="465" type="curve" smooth="yes"/>
      <point x="100" y="192" type="line" smooth="yes"/>
      <point x="100" y="69"/>
      <point x="181" y="-11"/>
      <point x="309" y="-11" type="curve" smooth="yes"/>
      <point x="428" y="-11"/>
      <point x="508" y="65"/>
      <point x="508" y="200" type="curve" smooth="yes"/>
      <point x="508" y="445" type="line" smooth="yes"/>
      <point x="508" y="499"/>
      <point x="529" y="524"/>
      <point x="575" y="524" type="curve" smooth="yes"/>
      <point x="578" y="524"/>
      <point x="578" y="534"/>
      <point x="575" y="534" type="curve" smooth="yes"/>
      <point x="553" y="534"/>
      <point x="526" y="532"/>
      <point x="499" y="532" type="curve" smooth="yes"/>
      <point x="467" y="532"/>
      <point x="441" y="534"/>
      <point x="416" y="534" type="curve" smooth="yes"/>
      <point x="413" y="534"/>
      <point x="413" y="524"/>
      <point x="416" y="524" type="curve" smooth="yes"/>
      <point x="466" y="524"/>
      <point x="489" y="499"/>
      <point x="489" y="445" type="curve" smooth="yes"/>
    </contour>
    <contour>
      <point x="420" y="10" type="move" name="ogonek"/>
    </contour>
    <contour>
      <point x="320" y="534" type="move" name="top"/>
    </contour>
    <contour>
      <point x="576" y="534" type="move" name="topright"/>
    </contour>
    <contour>
      <point x="298" y="0" type="move" name="bottom"/>
    </contour>
  </outline>
</glyph>
<glyph name="V" format="1">
  <advance width="570"/>
  <unicode hex="0056"/>
  <outline>
    <contour>
      <point x="544" y="534"/>
      <point x="529" y="532"/>
      <point x="497" y="532" type="curve" smooth="yes"/>
      <point x="458" y="532"/>
      <point x="438" y="534"/>
      <point x="411" y="534" type="curve" smooth="yes"/>
      <point x="408" y="534"/>
      <point x="408" y="524"/>
      <point x="411" y="524" type="curve" smooth="yes"/>
      <point x="475" y="524"/>
      <point x="489" y="510"/>
      <point x="473" y="470" type="curve" smooth="yes"/>
      <point x="290" y="17" type="line"/>
      <point x="313" y="49" type="line"/>
      <point x="121" y="472" type="line" smooth="yes"/>
      <point x="102" y="513"/>
      <point x="123" y="524"/>
      <point x="167" y="524" type="curve" smooth="yes"/>
      <point x="170" y="524"/>
      <point x="170" y="534"/>
      <point x="167" y="534" type="curve" smooth="yes"/>
      <point x="141" y="534"/>
      <point x="112" y="532"/>
      <point x="71" y="532" type="curve" smooth="yes"/>
      <point x="48" y="532"/>
      <point x="21" y="534"/>
      <point x="-2" y="534" type="curve" smooth="yes"/>
      <point x="-5" y="534"/>
      <point x="-5" y="524"/>
      <point x="-2" y="524" type="curve" smooth="yes"/>
      <point x="34" y="524"/>
      <point x="53" y="508"/>
      <point x="73" y="463" type="curve" smooth="yes"/>
      <point x="284" y="1" type="line" smooth="yes"/>
      <point x="286" y="-3"/>
      <point x="301" y="-3"/>
      <point x="303" y="1" type="curve" smooth="yes"/>
      <point x="491" y="465" type="line" smooth="yes"/>
      <point x="511" y="514"/>
      <point x="538" y="524"/>
      <point x="573" y="524" type="curve" smooth="yes"/>
      <point x="576" y="524"/>
      <point x="576" y="534"/>
      <point x="573" y="534" type="curve" smooth="yes"/>
    </contour>
    <contour>
      <point x="285" y="534" type="move" name="top"/>
    </contour>
    <contour>
      <point x="285" y="0" type="move" name="bottom"/>
    </contour>
  </outline>
</glyph>
<glyph name="W" format="1">
  <advance width="800"/>
  <unicode hex="0057"/>
  <outline>
    <contour>
      <point x="403" y="295" type="line"/>
      <point x="287" y="11" type="line"/>
      <point x="316" y="48" type="line"/>
      <point x="120" y="472" type="line" smooth="yes"/>
      <point x="101" y="513"/>
      <point x="123" y="524"/>
      <point x="167" y="524" type="curve" smooth="yes"/>
      <point x="170" y="524"/>
      <point x="170" y="534"/>
      <point x="167" y="534" type="curve" smooth="yes"/>
      <point x="141" y="534"/>
      <point x="112" y="532"/>
      <point x="71" y="532" type="curve" smooth="yes"/>
      <point x="48" y="532"/>
      <point x="21" y="534"/>
      <point x="-2" y="534" type="curve" smooth="yes"/>
      <point x="-5" y="534"/>
      <point x="-5" y="524"/>
      <point x="-2" y="524" type="curve" smooth="yes"/>
      <point x="34" y="524"/>
      <point x="53" y="508"/>
      <point x="73" y="463" type="curve" smooth="yes"/>
      <point x="284" y="1" type="line" smooth="yes"/>
      <point x="286" y="-3"/>
      <point x="301" y="-3"/>
      <point x="303" y="1" type="curve" smooth="yes"/>
      <point x="415" y="278" type="line"/>
    </contour>
    <contour>
      <point x="774" y="534"/>
      <point x="759" y="532"/>
      <point x="727" y="532" type="curve" smooth="yes"/>
      <point x="688" y="532"/>
      <point x="668" y="534"/>
      <point x="641" y="534" type="curve" smooth="yes"/>
      <point x="638" y="534"/>
      <point x="638" y="524"/>
      <point x="641" y="524" type="curve" smooth="yes"/>
      <point x="705" y="524"/>
      <point x="720" y="510"/>
      <point x="704" y="470" type="curve" smooth="yes"/>
      <point x="517" y="11" type="line"/>
      <point x="546" y="48" type="line"/>
      <point x="350" y="472" type="line" smooth="yes"/>
      <point x="328" y="519"/>
      <point x="330" y="524"/>
      <point x="367" y="524" type="curve" smooth="yes"/>
      <point x="370" y="524"/>
      <point x="370" y="534"/>
      <point x="367" y="534" type="curve" smooth="yes"/>
      <point x="350" y="534"/>
      <point x="330" y="532"/>
      <point x="301" y="532" type="curve" smooth="yes"/>
      <point x="278" y="532"/>
      <point x="251" y="534"/>
      <point x="228" y="534" type="curve" smooth="yes"/>
      <point x="225" y="534"/>
      <point x="225" y="524"/>
      <point x="228" y="524" type="curve" smooth="yes"/>
      <point x="264" y="524"/>
      <point x="283" y="508"/>
      <point x="303" y="463" type="curve" smooth="yes"/>
      <point x="514" y="1" type="line" smooth="yes"/>
      <point x="516" y="-3"/>
      <point x="531" y="-3"/>
      <point x="533" y="1" type="curve" smooth="yes"/>
      <point x="721" y="465" type="line" smooth="yes"/>
      <point x="741" y="514"/>
      <point x="768" y="524"/>
      <point x="803" y="524" type="curve" smooth="yes"/>
      <point x="806" y="524"/>
      <point x="806" y="534"/>
      <point x="803" y="534" type="curve" smooth="yes"/>
    </contour>
    <contour>
      <point x="418" y="278" type="line"/>
      <point x="494" y="465" type="line" smooth="yes"/>
      <point x="514" y="514"/>
      <point x="541" y="524"/>
      <point x="576" y="524" type="curve" smooth="yes"/>
      <point x="579" y="524"/>
      <point x="579" y="534"/>
      <point x="576" y="534" type="curve" smooth="yes"/>
      <point x="547" y="534"/>
      <point x="532" y="532"/>
      <point x="500" y="532" type="curve" smooth="yes"/>
      <point x="475" y="532"/>
      <point x="462" y="534"/>
      <point x="444" y="534" type="curve" smooth="yes"/>
      <point x="441" y="534"/>
      <point x="441" y="524"/>
      <point x="444" y="524" type="curve" smooth="yes"/>
      <point x="485" y="524"/>
      <point x="493" y="510"/>
      <point x="477" y="470" type="curve" smooth="yes"/>
      <point x="406" y="295" type="line"/>
    </contour>
    <contour>
      <point x="400" y="534" type="move" name="top"/>
    </contour>
    <contour>
      <point x="400" y="0" type="move" name="bottom"/>
    </contour>
  </outline>
</glyph>
<glyph name="X" format="1">
  <advance width="558"/>
  <unicode hex="0058"/>
  <outline>
    <contour>
      <point x="384" y="0"/>
      <point x="416" y="2"/>
      <point x="461" y="2" type="curve" smooth="yes"/>
      <point x="491" y="2"/>
      <point x="518" y="0"/>
      <point x="541" y="0" type="curve" smooth="yes"/>
      <point x="544" y="0"/>
      <point x="544" y="10"/>
      <point x="541" y="10" type="curve" smooth="yes"/>
      <point x="492" y="10"/>
      <point x="464" y="26"/>
      <point x="434" y="71" type="curve" smooth="yes"/>
      <point x="156" y="490" type="line" smooth="yes"/>
      <point x="139" y="515"/>
      <point x="149" y="524"/>
      <point x="196" y="524" type="curve" smooth="yes"/>
      <point x="199" y="524"/>
      <point x="199" y="534"/>
      <point x="196" y="534" type="curve" smooth="yes"/>
      <point x="167" y="534"/>
      <point x="128" y="532"/>
      <point x="83" y="532" type="curve" smooth="yes"/>
      <point x="63" y="532"/>
      <point x="40" y="534"/>
      <point x="20" y="534" type="curve" smooth="yes"/>
      <point x="17" y="534"/>
      <point x="17" y="524"/>
      <point x="20" y="524" type="curve" smooth="yes"/>
      <point x="61" y="524"/>
      <point x="87" y="508"/>
      <point x="117" y="463" type="curve" smooth="yes"/>
      <point x="395" y="44" type="line" smooth="yes"/>
      <point x="412" y="19"/>
      <point x="402" y="10"/>
      <point x="355" y="10" type="curve" smooth="yes"/>
      <point x="352" y="10"/>
      <point x="352" y="0"/>
      <point x="355" y="0" type="curve" smooth="yes"/>
    </contour>
    <contour>
      <point x="42" y="0"/>
      <point x="55" y="2"/>
      <point x="83" y="2" type="curve" smooth="yes"/>
      <point x="127" y="2"/>
      <point x="149" y="0"/>
      <point x="179" y="0" type="curve" smooth="yes"/>
      <point x="182" y="0"/>
      <point x="182" y="10"/>
      <point x="179" y="10" type="curve" smooth="yes"/>
      <point x="125" y="10"/>
      <point x="112" y="34"/>
      <point x="144" y="79" type="curve" smooth="yes"/>
      <point x="270" y="256" type="line"/>
      <point x="261" y="264" type="line"/>
      <point x="126" y="79" type="line" smooth="yes"/>
      <point x="93" y="34"/>
      <point x="56" y="10"/>
      <point x="17" y="10" type="curve" smooth="yes"/>
      <point x="14" y="10"/>
      <point x="14" y="0"/>
      <point x="17" y="0" type="curve" smooth="yes"/>
    </contour>
    <contour>
      <point x="412" y="447" type="line" smooth="yes"/>
      <point x="448" y="496"/>
      <point x="487" y="524"/>
      <point x="527" y="524" type="curve" smooth="yes"/>
      <point x="530" y="524"/>
      <point x="530" y="534"/>
      <point x="527" y="534" type="curve" smooth="yes"/>
      <point x="502" y="534"/>
      <point x="489" y="532"/>
      <point x="461" y="532" type="curve" smooth="yes"/>
      <point x="417" y="532"/>
      <point x="395" y="534"/>
      <point x="365" y="534" type="curve" smooth="yes"/>
      <point x="362" y="534"/>
      <point x="362" y="524"/>
      <point x="365" y="524" type="curve" smooth="yes"/>
      <point x="419" y="524"/>
      <point x="429" y="498"/>
      <point x="394" y="448" type="curve" smooth="yes"/>
      <point x="274" y="278" type="line"/>
      <point x="283" y="270" type="line"/>
    </contour>
    <contour>
      <point x="279" y="534" type="move" name="top"/>
    </contour>
    <contour>
      <point x="279" y="0" type="move" name="bottom"/>
    </contour>
  </outline>
</glyph>
<glyph name="Y" format="1">
  <advance width="519"/>
  <unicode hex="0059"/>
  <outline>
    <contour>
      <point x="268" y="236" type="line"/>
      <point x="407" y="447" type="line" smooth="yes"/>
      <point x="439" y="496"/>
      <point x="480" y="524"/>
      <point x="522" y="524" type="curve" smooth="yes"/>
      <point x="525" y="524"/>
      <point x="525" y="534"/>
      <point x="522" y="534" type="curve" smooth="yes"/>
      <point x="497" y="534"/>
      <point x="484" y="532"/>
      <point x="456" y="532" type="curve" smooth="yes"/>
      <point x="412" y="532"/>
      <point x="390" y="534"/>
      <point x="360" y="534" type="curve" smooth="yes"/>
      <point x="357" y="534"/>
      <point x="357" y="524"/>
      <point x="360" y="524" type="curve" smooth="yes"/>
      <point x="410" y="524"/>
      <point x="419" y="499"/>
      <point x="387" y="450" type="curve" smooth="yes"/>
      <point x="254" y="248" type="line"/>
    </contour>
    <contour>
      <point x="286" y="271" type="line"/>
      <point x="134" y="490" type="line" smooth="yes"/>
      <point x="116" y="515"/>
      <point x="127" y="524"/>
      <point x="174" y="524" type="curve" smooth="yes"/>
      <point x="177" y="524"/>
      <point x="177" y="534"/>
      <point x="174" y="534" type="curve" smooth="yes"/>
      <point x="145" y="534"/>
      <point x="106" y="532"/>
      <point x="61" y="532" type="curve" smooth="yes"/>
      <point x="41" y="532"/>
      <point x="18" y="534"/>
      <point x="-2" y="534" type="curve" smooth="yes"/>
      <point x="-5" y="534"/>
      <point x="-5" y="524"/>
      <point x="-2" y="524" type="curve" smooth="yes"/>
      <point x="40" y="524"/>
      <point x="65" y="508"/>
      <point x="95" y="463" type="curve" smooth="yes"/>
      <point x="255" y="232" type="line"/>
    </contour>
    <contour>
      <point x="241" y="69" type="line" smooth="yes"/>
      <point x="241" y="20"/>
      <point x="229" y="10"/>
      <point x="164" y="10" type="curve" smooth="yes"/>
      <point x="161" y="10"/>
      <point x="161" y="0"/>
      <point x="164" y="0" type="curve" smooth="yes"/>
      <point x="191" y="0"/>
      <point x="226" y="2"/>
      <point x="263" y="2" type="curve" smooth="yes"/>
      <point x="302" y="2"/>
      <point x="335" y="0"/>
      <point x="362" y="0" type="curve" smooth="yes"/>
      <point x="365" y="0"/>
      <point x="365" y="10"/>
      <point x="362" y="10" type="curve" smooth="yes"/>
      <point x="296" y="10"/>
      <point x="286" y="20"/>
      <point x="286" y="69" type="curve" smooth="yes"/>
      <point x="286" y="273" type="line"/>
      <point x="241" y="265" type="line"/>
    </contour>
    <contour>
      <point x="270" y="534" type="move" name="top"/>
    </contour>
    <contour>
      <point x="260" y="0" type="move" name="bottom"/>
    </contour>
    <contour>
      <point x="20" y="534" type="move" name="topleft"/>
    </contour>
  </outline>
</glyph>
<glyph name="Z" format="1">
  <advance width="507"/>
  <unicode hex="005A"/>
  <outline>
    <contour>
      <point x="43" y="7"/>
      <point x="46" y="0"/>
      <point x="51" y="0" type="curve" smooth="yes"/>
      <point x="178" y="0"/>
      <point x="333" y="0"/>
      <point x="460" y="-2" type="curve" smooth="yes"/>
      <point x="465" y="-2"/>
      <point x="468" y="3"/>
      <point x="468" y="7" type="curve" smooth="yes"/>
      <point x="480" y="111" type="line" smooth="yes"/>
      <point x="480" y="114"/>
      <point x="471" y="114"/>
      <point x="470" y="111" type="curve" smooth="yes"/>
      <point x="458" y="41"/>
      <point x="425" y="16"/>
      <point x="345" y="16" type="curve" smooth="yes"/>
      <point x="296" y="16"/>
      <point x="216" y="16"/>
      <point x="116" y="16" type="curve" smooth="yes"/>
      <point x="109" y="16"/>
      <point x="108" y="17"/>
      <point x="112" y="23" type="curve" smooth="yes"/>
      <point x="455" y="523" type="line" smooth="yes"/>
      <point x="458" y="527"/>
      <point x="454" y="534"/>
      <point x="449" y="534" type="curve" smooth="yes"/>
      <point x="299" y="534"/>
      <point x="205" y="534"/>
      <point x="137" y="534" type="curve" smooth="yes"/>
      <point x="93" y="534"/>
      <point x="85" y="538"/>
      <point x="88" y="558" type="curve" smooth="yes"/>
      <point x="89" y="561"/>
      <point x="79" y="563"/>
      <point x="78" y="560" type="curve" smooth="yes"/>
      <point x="44" y="431" type="line" smooth="yes"/>
      <point x="43" y="428"/>
      <point x="53" y="426"/>
      <point x="54" y="429" type="curve" smooth="yes"/>
      <point x="83" y="519"/>
      <point x="86" y="520"/>
      <point x="389" y="520" type="curve" smooth="yes"/>
      <point x="397" y="520"/>
      <point x="397" y="519"/>
      <point x="393" y="513" type="curve" smooth="yes"/>
      <point x="46" y="11" type="line" smooth="yes"/>
    </contour>
    <contour>
      <point x="266" y="534" type="move" name="top"/>
    </contour>
    <contour>
      <point x="254" y="0" type="move" name="bottom"/>
    </contour>
  </outline>
</glyph>
<glyph name="grave" format="1">
  <advance width="182"/>
  <unicode hex="0060"/>
  <outline>
    <contour>
      <point x="123" y="405" type="line" smooth="yes"/>
      <point x="124" y="402"/>
      <point x="133" y="404"/>
      <point x="132" y="407" type="curve" smooth="yes"/>
      <point x="84" y="612" type="line" smooth="yes"/>
      <point x="83" y="619"/>
      <point x="37" y="630"/>
      <point x="40" y="622" type="curve" smooth="yes"/>
    </contour>
    <contour>
      <point x="118" y="330" type="move" name="_top"/>
    </contour>
  </outline>
</glyph>
<glyph name="b" format="1">
  <advance width="434"/>
  <unicode hex="0062"/>
  <outline>
    <contour>
      <point x="305" y="-11"/>
      <point x="402" y="53"/>
      <point x="402" y="183" type="curve" smooth="yes"/>
      <point x="402" y="289"/>
      <point x="337" y="341"/>
      <point x="266" y="341" type="curve" smooth="yes"/>
      <point x="192" y="341"/>
      <point x="142" y="285"/>
      <point x="106" y="244" type="curve"/>
      <point x="113" y="238" type="line"/>
      <point x="149" y="279"/>
      <point x="190" y="317"/>
      <point x="240" y="317" type="curve" smooth="yes"/>
      <point x="305" y="317"/>
      <point x="354" y="262"/>
      <point x="354" y="156" type="curve" smooth="yes"/>
      <point x="354" y="57"/>
      <point x="311" y="5"/>
      <point x="241" y="5" type="curve" smooth="yes"/>
      <point x="197" y="5"/>
      <point x="123" y="31"/>
      <point x="123" y="105" type="curve"/>
      <point x="86" y="35" type="line"/>
      <point x="127" y="1"/>
      <point x="169" y="-11"/>
      <point x="213" y="-11" type="curve" smooth="yes"/>
    </contour>
    <contour>
      <point x="123" y="38" type="line"/>
      <point x="123" y="614" type="line" smooth="yes"/>
      <point x="123" y="617"/>
      <point x="119" y="620"/>
      <point x="117" y="620" type="curve" smooth="yes"/>
      <point x="116" y="620"/>
      <point x="115" y="620"/>
      <point x="113" y="619" type="curve" smooth="yes"/>
      <point x="10" y="569" type="line" smooth="yes"/>
      <point x="5" y="567"/>
      <point x="9" y="557"/>
      <point x="14" y="559" type="curve" smooth="yes"/>
      <point x="31" y="567"/>
      <point x="45" y="571"/>
      <point x="55" y="571" type="curve" smooth="yes"/>
      <point x="76" y="571"/>
      <point x="83" y="553"/>
      <point x="83" y="512" type="curve" smooth="yes"/>
      <point x="83" y="88" type="line" smooth="yes"/>
      <point x="83" y="43"/>
      <point x="66" y="29"/>
      <point x="32" y="5" type="curve" smooth="yes"/>
      <point x="28" y="2"/>
      <point x="31" y="-5"/>
      <point x="36" y="-3" type="curve" smooth="yes"/>
    </contour>
    <contour>
      <point x="217" y="330" type="move" name="top"/>
    </contour>
    <contour>
      <point x="217" y="0" type="move" name="bottom"/>
    </contour>
  </outline>
</glyph>
<glyph name="c" format="1">
  <advance width="348"/>
  <unicode hex="0063"/>
  <outline>
    <contour>
      <point x="243" y="-10"/>
      <point x="281" y="4"/>
      <point x="321" y="39" type="curve" smooth="yes"/>
      <point x="324" y="42"/>
      <point x="318" y="48"/>
      <point x="315" y="46" type="curve" smooth="yes"/>
      <point x="289" y="23"/>
      <point x="256" y="16"/>
      <point x="227" y="16" type="curve" smooth="yes"/>
      <point x="124" y="16"/>
      <point x="80" y="95"/>
      <point x="80" y="183" type="curve" smooth="yes"/>
      <point x="80" y="265"/>
      <point x="118" y="321"/>
      <point x="187" y="321" type="curve" smooth="yes"/>
      <point x="223" y="321"/>
      <point x="239" y="308"/>
      <point x="253" y="288" type="curve" smooth="yes"/>
      <point x="260" y="277"/>
      <point x="271" y="264"/>
      <point x="287" y="264" type="curve" smooth="yes"/>
      <point x="303" y="264"/>
      <point x="312" y="275"/>
      <point x="312" y="289" type="curve" smooth="yes"/>
      <point x="312" y="316"/>
      <point x="262" y="338"/>
      <point x="215" y="338" type="curve" smooth="yes"/>
      <point x="129" y="338"/>
      <point x="32" y="273"/>
      <point x="32" y="158" type="curve" smooth="yes"/>
      <point x="32" y="78"/>
      <point x="80" y="-10"/>
      <point x="197" y="-10" type="curve" smooth="yes"/>
    </contour>
    <contour>
      <point x="187" y="330" type="move" name="top"/>
    </contour>
    <contour>
      <point x="196" y="0" type="move" name="bottom"/>
    </contour>
  </outline>
</glyph>
<glyph name="d" format="1">
  <advance width="439"/>
  <unicode hex="0064"/>
  <outline>
    <contour>
      <point x="241" y="-11"/>
      <point x="293" y="45"/>
      <point x="330" y="86" type="curve"/>
      <point x="323" y="92" type="line"/>
      <point x="286" y="51"/>
      <point x="247" y="17"/>
      <point x="195" y="17" type="curve" smooth="yes"/>
      <point x="129" y="17"/>
      <point x="79" y="80"/>
      <point x="79" y="176" type="curve" smooth="yes"/>
      <point x="79" y="270"/>
      <point x="127" y="325"/>
      <point x="201" y="325" type="curve" smooth="yes"/>
      <point x="262" y="325"/>
      <point x="295" y="288"/>
      <point x="323" y="245" type="curve"/>
      <point x="331" y="300" type="line"/>
      <point x="301" y="327"/>
      <point x="267" y="341"/>
      <point x="227" y="341" type="curve" smooth="yes"/>
      <point x="142" y="341"/>
      <point x="32" y="278"/>
      <point x="32" y="151" type="curve" smooth="yes"/>
      <point x="32" y="54"/>
      <point x="94" y="-11"/>
      <point x="165" y="-11" type="curve" smooth="yes"/>
    </contour>
    <contour>
      <point x="352" y="617"/>
      <point x="348" y="620"/>
      <point x="346" y="620" type="curve" smooth="yes"/>
      <point x="345" y="620"/>
      <point x="344" y="620"/>
      <point x="342" y="619" type="curve" smooth="yes"/>
      <point x="238" y="568" type="line" smooth="yes"/>
      <point x="233" y="566"/>
      <point x="237" y="556"/>
      <point x="242" y="558" type="curve" smooth="yes"/>
      <point x="261" y="566"/>
      <point x="273" y="571"/>
      <point x="283" y="571" type="curve" smooth="yes"/>
      <point x="305" y="571"/>
      <point x="312" y="553"/>
      <point x="312" y="512" type="curve" smooth="yes"/>
      <point x="312" y="69" type="line" smooth="yes"/>
      <point x="312" y="19"/>
      <point x="326" y="-7"/>
      <point x="341" y="-7" type="curve" smooth="yes"/>
      <point x="344" y="-7"/>
      <point x="346" y="-6"/>
      <point x="348" y="-5" type="curve" smooth="yes"/>
      <point x="436" y="37" type="line" smooth="yes"/>
      <point x="441" y="39"/>
      <point x="437" y="49"/>
      <point x="432" y="46" type="curve" smooth="yes"/>
      <point x="414" y="35"/>
      <point x="396" y="33"/>
      <point x="385" y="33" type="curve" smooth="yes"/>
      <point x="361" y="33"/>
      <point x="352" y="51"/>
      <point x="352" y="92" type="curve" smooth="yes"/>
      <point x="352" y="614" type="line" smooth="yes"/>
    </contour>
    <contour>
      <point x="220" y="0" type="move" name="bottom"/>
    </contour>
    <contour>
      <point x="220" y="330" type="move" name="top"/>
    </contour>
    <contour>
      <point x="417" y="330" type="move" name="topright"/>
    </contour>
    <contour>
      <point x="219" y="165" type="move" name="center"/>
    </contour>
  </outline>
</glyph>
<glyph name="e" format="1">
  <advance width="346"/>
  <unicode hex="0065"/>
  <outline>
    <contour>
      <point x="231" y="-10"/>
      <point x="271" y="3"/>
      <point x="311" y="38" type="curve" smooth="yes"/>
      <point x="314" y="41"/>
      <point x="308" y="48"/>
      <point x="305" y="46" type="curve" smooth="yes"/>
      <point x="278" y="26"/>
      <point x="246" y="17"/>
      <point x="216" y="17" type="curve" smooth="yes"/>
      <point x="130" y="17"/>
      <point x="80" y="89"/>
      <point x="80" y="186" type="curve" smooth="yes"/>
      <point x="80" y="269"/>
      <point x="116" y="321"/>
      <point x="184" y="321" type="curve" smooth="yes"/>
      <point x="230" y="321"/>
      <point x="261" y="291"/>
      <point x="255" y="234" type="curve"/>
      <point x="297" y="234" type="line" smooth="yes"/>
      <point x="305" y="234"/>
      <point x="307" y="240"/>
      <point x="307" y="253" type="curve" smooth="yes"/>
      <point x="307" y="305"/>
      <point x="273" y="338"/>
      <point x="213" y="338" type="curve" smooth="yes"/>
      <point x="110" y="338"/>
      <point x="32" y="257"/>
      <point x="32" y="154" type="curve" smooth="yes"/>
      <point x="32" y="70"/>
      <point x="85" y="-10"/>
      <point x="189" y="-10" type="curve" smooth="yes"/>
    </contour>
    <contour>
      <point x="265" y="234" type="line"/>
      <point x="265" y="247" type="line"/>
      <point x="68" y="243" type="line"/>
      <point x="69" y="233" type="line"/>
    </contour>
    <contour>
      <point x="319" y="10" type="move" name="ogonek"/>
    </contour>
    <contour>
      <point x="195" y="0" type="move" name="bottom"/>
    </contour>
    <contour>
      <point x="192" y="330" type="move" name="top"/>
    </contour>
  </outline>
</glyph>
<glyph name="f" format="1">
  <advance width="261"/>
  <unicode hex="0066"/>
  <outline>
    <contour>
      <point x="50" y="0"/>
      <point x="79" y="2"/>
      <point x="109" y="2" type="curve" smooth="yes"/>
      <point x="145" y="2"/>
      <point x="179" y="0"/>
      <point x="216" y="0" type="curve" smooth="yes"/>
      <point x="219" y="0"/>
      <point x="219" y="10"/>
      <point x="216" y="10" type="curve" smooth="yes"/>
      <point x="140" y="10"/>
      <point x="130" y="20"/>
      <point x="130" y="69" type="curve" smooth="yes"/>
      <point x="130" y="375" type="line" smooth="yes"/>
      <point x="130" y="537"/>
      <point x="177" y="607"/>
      <point x="244" y="607" type="curve" smooth="yes"/>
      <point x="275" y="607"/>
      <point x="296" y="596"/>
      <point x="315" y="572" type="curve" smooth="yes"/>
      <point x="327" y="557"/>
      <point x="335" y="553"/>
      <point x="345" y="553" type="curve" smooth="yes"/>
      <point x="359" y="553"/>
      <point x="372" y="561"/>
      <point x="372" y="577" type="curve" smooth="yes"/>
      <point x="372" y="599"/>
      <point x="332" y="621"/>
      <point x="273" y="621" type="curve" smooth="yes"/>
      <point x="157" y="621"/>
      <point x="94" y="546"/>
      <point x="88" y="357" type="curve" smooth="yes"/>
      <point x="87" y="328"/>
      <point x="74" y="319"/>
      <point x="25" y="319" type="curve" smooth="yes"/>
      <point x="21" y="319"/>
      <point x="21" y="309"/>
      <point x="25" y="309" type="curve" smooth="yes"/>
      <point x="84" y="309"/>
      <point x="89" y="304"/>
      <point x="89" y="262" type="curve" smooth="yes"/>
      <point x="89" y="69" type="line" smooth="yes"/>
      <point x="89" y="20"/>
      <point x="79" y="10"/>
      <point x="28" y="10" type="curve" smooth="yes"/>
      <point x="25" y="10"/>
      <point x="25" y="0"/>
      <point x="28" y="0" type="curve" smooth="yes"/>
    </contour>
    <contour>
      <point x="245" y="288"/>
      <point x="250" y="300"/>
      <point x="250" y="309" type="curve" smooth="yes"/>
      <point x="250" y="320"/>
      <point x="247" y="328"/>
      <point x="244" y="328" type="curve" smooth="yes"/>
      <point x="197" y="323"/>
      <point x="157" y="320"/>
      <point x="113" y="320" type="curve"/>
      <point x="113" y="302" type="line"/>
      <point x="158" y="302"/>
      <point x="197" y="300"/>
      <point x="241" y="289" type="curve" smooth="yes"/>
    </contour>
    <contour>
      <point x="131" y="330" type="move" name="top"/>
    </contour>
    <contour>
      <point x="131" y="0" type="move" name="bottom"/>
    </contour>
  </outline>
</glyph>
<glyph name="h" format="1">
  <advance width="424"/>
  <unicode hex="0068"/>
  <outline>
    <contour>
      <point x="43" y="0"/>
      <point x="70" y="2"/>
      <point x="99" y="2" type="curve" smooth="yes"/>
      <point x="128" y="2"/>
      <point x="155" y="0"/>
      <point x="175" y="0" type="curve" smooth="yes"/>
      <point x="178" y="0"/>
      <point x="178" y="10"/>
      <point x="175" y="10" type="curve" smooth="yes"/>
      <point x="127" y="10"/>
      <point x="119" y="20"/>
      <point x="119" y="69" type="curve" smooth="yes"/>
      <point x="119" y="614" type="line" smooth="yes"/>
      <point x="119" y="617"/>
      <point x="116" y="620"/>
      <point x="113" y="620" type="curve" smooth="yes"/>
      <point x="112" y="620"/>
      <point x="112" y="620"/>
      <point x="111" y="620" type="curve" smooth="yes"/>
      <point x="6" y="569" type="line" smooth="yes"/>
      <point x="1" y="567"/>
      <point x="5" y="557"/>
      <point x="10" y="559" type="curve" smooth="yes"/>
      <point x="28" y="568"/>
      <point x="41" y="572"/>
      <point x="51" y="572" type="curve" smooth="yes"/>
      <point x="72" y="572"/>
      <point x="79" y="554"/>
      <point x="79" y="513" type="curve" smooth="yes"/>
      <point x="79" y="69" type="line" smooth="yes"/>
      <point x="79" y="20"/>
      <point x="70" y="10"/>
      <point x="23" y="10" type="curve" smooth="yes"/>
      <point x="20" y="10"/>
      <point x="20" y="0"/>
      <point x="23" y="0" type="curve" smooth="yes"/>
    </contour>
    <contour>
      <point x="273" y="0"/>
      <point x="300" y="2"/>
      <point x="329" y="2" type="curve" smooth="yes"/>
      <point x="358" y="2"/>
      <point x="385" y="0"/>
      <point x="405" y="0" type="curve" smooth="yes"/>
      <point x="408" y="0"/>
      <point x="408" y="10"/>
      <point x="405" y="10" type="curve" smooth="yes"/>
      <point x="357" y="10"/>
      <point x="349" y="20"/>
      <point x="349" y="69" type="curve" smooth="yes"/>
      <point x="349" y="235" type="line" smooth="yes"/>
      <point x="349" y="305"/>
      <point x="313" y="339"/>
      <point x="251" y="339" type="curve" smooth="yes"/>
      <point x="200" y="339"/>
      <point x="153" y="311"/>
      <point x="99" y="240" type="curve"/>
      <point x="103" y="230" type="line"/>
      <point x="136" y="279"/>
      <point x="184" y="310"/>
      <point x="228" y="310" type="curve" smooth="yes"/>
      <point x="283" y="310"/>
      <point x="309" y="278"/>
      <point x="309" y="209" type="curve" smooth="yes"/>
      <point x="309" y="69" type="line" smooth="yes"/>
      <point x="309" y="20"/>
      <point x="300" y="10"/>
      <point x="253" y="10" type="curve" smooth="yes"/>
      <point x="250" y="10"/>
      <point x="250" y="0"/>
      <point x="253" y="0" type="curve" smooth="yes"/>
    </contour>
    <contour>
      <point x="213" y="165" type="move" name="center"/>
    </contour>
    <contour>
      <point x="213" y="0" type="move" name="bottom"/>
    </contour>
    <contour>
      <point x="106" y="564" type="move" name="top"/>
    </contour>
  </outline>
</glyph>
<glyph name="k" format="1">
  <advance width="420"/>
  <unicode hex="006B"/>
  <outline>
    <contour>
      <point x="43" y="0"/>
      <point x="70" y="2"/>
      <point x="99" y="2" type="curve" smooth="yes"/>
      <point x="128" y="2"/>
      <point x="155" y="0"/>
      <point x="175" y="0" type="curve" smooth="yes"/>
      <point x="178" y="0"/>
      <point x="178" y="10"/>
      <point x="175" y="10" type="curve" smooth="yes"/>
      <point x="127" y="10"/>
      <point x="119" y="20"/>
      <point x="119" y="69" type="curve" smooth="yes"/>
      <point x="119" y="614" type="line" smooth="yes"/>
      <point x="119" y="617"/>
      <point x="115" y="620"/>
      <point x="113" y="620" type="curve" smooth="yes"/>
      <point x="112" y="620"/>
      <point x="111" y="620"/>
      <point x="109" y="619" type="curve" smooth="yes"/>
      <point x="6" y="569" type="line" smooth="yes"/>
      <point x="1" y="567"/>
      <point x="5" y="557"/>
      <point x="10" y="559" type="curve" smooth="yes"/>
      <point x="28" y="568"/>
      <point x="41" y="572"/>
      <point x="51" y="572" type="curve" smooth="yes"/>
      <point x="72" y="572"/>
      <point x="79" y="554"/>
      <point x="79" y="513" type="curve" smooth="yes"/>
      <point x="79" y="69" type="line" smooth="yes"/>
      <point x="79" y="20"/>
      <point x="70" y="10"/>
      <point x="23" y="10" type="curve" smooth="yes"/>
      <point x="20" y="10"/>
      <point x="20" y="0"/>
      <point x="23" y="0" type="curve" smooth="yes"/>
    </contour>
    <contour>
      <point x="263" y="0"/>
      <point x="292" y="2"/>
      <point x="334" y="2" type="curve" smooth="yes"/>
      <point x="363" y="2"/>
      <point x="390" y="0"/>
      <point x="410" y="0" type="curve" smooth="yes"/>
      <point x="413" y="0"/>
      <point x="413" y="10"/>
      <point x="410" y="10" type="curve" smooth="yes"/>
      <point x="376" y="10"/>
      <point x="341" y="25"/>
      <point x="310" y="69" type="curve" smooth="yes"/>
      <point x="201" y="222" type="line"/>
      <point x="166" y="197" type="line"/>
      <point x="275" y="45" type="line" smooth="yes"/>
      <point x="293" y="19"/>
      <point x="281" y="10"/>
      <point x="238" y="10" type="curve" smooth="yes"/>
      <point x="235" y="10"/>
      <point x="235" y="0"/>
      <point x="238" y="0" type="curve" smooth="yes"/>
    </contour>
    <contour>
      <point x="258" y="261" type="line" smooth="yes"/>
      <point x="312" y="302"/>
      <point x="360" y="320"/>
      <point x="400" y="320" type="curve" smooth="yes"/>
      <point x="403" y="320"/>
      <point x="403" y="330"/>
      <point x="400" y="330" type="curve" smooth="yes"/>
      <point x="377" y="330"/>
      <point x="356" y="328"/>
      <point x="314" y="328" type="curve" smooth="yes"/>
      <point x="268" y="328"/>
      <point x="245" y="330"/>
      <point x="218" y="330" type="curve" smooth="yes"/>
      <point x="215" y="330"/>
      <point x="215" y="320"/>
      <point x="218" y="320" type="curve" smooth="yes"/>
      <point x="278" y="320"/>
      <point x="290" y="299"/>
      <point x="243" y="263" type="curve" smooth="yes"/>
      <point x="104" y="156" type="line"/>
      <point x="108" y="147" type="line"/>
    </contour>
    <contour>
      <point x="81" y="577" type="move" name="top"/>
    </contour>
    <contour>
      <point x="210" y="0" type="move" name="bottom"/>
    </contour>
  </outline>
</glyph>
<glyph name="m" format="1">
  <advance width="650"/>
  <unicode hex="006D"/>
  <outline>
    <contour>
      <point x="499" y="0"/>
      <point x="526" y="2"/>
      <point x="555" y="2" type="curve" smooth="yes"/>
      <point x="584" y="2"/>
      <point x="611" y="0"/>
      <point x="631" y="0" type="curve" smooth="yes"/>
      <point x="634" y="0"/>
      <point x="634" y="10"/>
      <point x="631" y="10" type="curve" smooth="yes"/>
      <point x="583" y="10"/>
      <point x="575" y="20"/>
      <point x="575" y="69" type="curve" smooth="yes"/>
      <point x="575" y="235" type="line" smooth="yes"/>
      <point x="575" y="305"/>
      <point x="541" y="339"/>
      <point x="482" y="339" type="curve" smooth="yes"/>
      <point x="433" y="339"/>
      <point x="387" y="311"/>
      <point x="335" y="240" type="curve"/>
      <point x="339" y="230" type="line"/>
      <point x="371" y="279"/>
      <point x="417" y="310"/>
      <point x="459" y="310" type="curve" smooth="yes"/>
      <point x="511" y="310"/>
      <point x="535" y="278"/>
      <point x="535" y="209" type="curve" smooth="yes"/>
      <point x="535" y="69" type="line" smooth="yes"/>
      <point x="535" y="20"/>
      <point x="526" y="10"/>
      <point x="479" y="10" type="curve" smooth="yes"/>
      <point x="476" y="10"/>
      <point x="476" y="0"/>
      <point x="479" y="0" type="curve" smooth="yes"/>
    </contour>
    <contour>
      <point x="279" y="0"/>
      <point x="306" y="2"/>
      <point x="335" y="2" type="curve" smooth="yes"/>
      <point x="364" y="2"/>
      <point x="391" y="0"/>
      <point x="411" y="0" type="curve" smooth="yes"/>
      <point x="414" y="0"/>
      <point x="414" y="10"/>
      <point x="411" y="10" type="curve" smooth="yes"/>
      <point x="363" y="10"/>
      <point x="355" y="20"/>
      <point x="355" y="69" type="curve" smooth="yes"/>
      <point x="355" y="235" type="line" smooth="yes"/>
      <point x="355" y="305"/>
      <point x="321" y="339"/>
      <point x="262" y="339" type="curve" smooth="yes"/>
      <point x="213" y="339"/>
      <point x="167" y="311"/>
      <point x="115" y="240" type="curve"/>
      <point x="119" y="230" type="line"/>
      <point x="151" y="279"/>
      <point x="197" y="310"/>
      <point x="239" y="310" type="curve" smooth="yes"/>
      <point x="291" y="310"/>
      <point x="315" y="278"/>
      <point x="315" y="209" type="curve" smooth="yes"/>
      <point x="315" y="69" type="line" smooth="yes"/>
      <point x="315" y="20"/>
      <point x="306" y="10"/>
      <point x="259" y="10" type="curve" smooth="yes"/>
      <point x="256" y="10"/>
      <point x="256" y="0"/>
      <point x="259" y="0" type="curve" smooth="yes"/>
    </contour>
    <contour>
      <point x="59" y="0"/>
      <point x="86" y="2"/>
      <point x="115" y="2" type="curve" smooth="yes"/>
      <point x="144" y="2"/>
      <point x="171" y="0"/>
      <point x="191" y="0" type="curve" smooth="yes"/>
      <point x="194" y="0"/>
      <point x="194" y="10"/>
      <point x="191" y="10" type="curve" smooth="yes"/>
      <point x="143" y="10"/>
      <point x="135" y="20"/>
      <point x="135" y="69" type="curve" smooth="yes"/>
      <point x="135" y="269" type="line" smooth="yes"/>
      <point x="135" y="314"/>
      <point x="119" y="338"/>
      <point x="111" y="338" type="curve" smooth="yes"/>
      <point x="110" y="338"/>
      <point x="109" y="338"/>
      <point x="107" y="337" type="curve" smooth="yes"/>
      <point x="12" y="292" type="line" smooth="yes"/>
      <point x="7" y="290"/>
      <point x="11" y="281"/>
      <point x="16" y="283" type="curve" smooth="yes"/>
      <point x="37" y="291"/>
      <point x="52" y="296"/>
      <point x="64" y="296" type="curve" smooth="yes"/>
      <point x="87" y="296"/>
      <point x="95" y="279"/>
      <point x="95" y="240" type="curve" smooth="yes"/>
      <point x="95" y="69" type="line" smooth="yes"/>
      <point x="95" y="20"/>
      <point x="86" y="10"/>
      <point x="39" y="10" type="curve" smooth="yes"/>
      <point x="36" y="10"/>
      <point x="36" y="0"/>
      <point x="39" y="0" type="curve" smooth="yes"/>
    </contour>
    <contour>
      <point x="326" y="330" type="move" name="top"/>
    </contour>
    <contour>
      <point x="331" y="0" type="move" name="bottom"/>
    </contour>
  </outline>
</glyph>
<glyph name="n" format="1">
  <advance width="440"/>
  <unicode hex="006E"/>
  <outline>
    <contour>
      <point x="289" y="0"/>
      <point x="316" y="2"/>
      <point x="345" y="2" type="curve" smooth="yes"/>
      <point x="374" y="2"/>
      <point x="401" y="0"/>
      <point x="421" y="0" type="curve" smooth="yes"/>
      <point x="424" y="0"/>
      <point x="424" y="10"/>
      <point x="421" y="10" type="curve" smooth="yes"/>
      <point x="373" y="10"/>
      <point x="365" y="20"/>
      <point x="365" y="69" type="curve" smooth="yes"/>
      <point x="365" y="238" type="line" smooth="yes"/>
      <point x="365" y="308"/>
      <point x="329" y="341"/>
      <point x="267" y="341" type="curve" smooth="yes"/>
      <point x="216" y="341"/>
      <point x="169" y="313"/>
      <point x="115" y="242" type="curve"/>
      <point x="119" y="232" type="line"/>
      <point x="152" y="281"/>
      <point x="200" y="312"/>
      <point x="244" y="312" type="curve" smooth="yes"/>
      <point x="299" y="312"/>
      <point x="325" y="281"/>
      <point x="325" y="212" type="curve" smooth="yes"/>
      <point x="325" y="69" type="line" smooth="yes"/>
      <point x="325" y="20"/>
      <point x="316" y="10"/>
      <point x="269" y="10" type="curve" smooth="yes"/>
      <point x="266" y="10"/>
      <point x="266" y="0"/>
      <point x="269" y="0" type="curve" smooth="yes"/>
    </contour>
    <contour>
      <point x="59" y="0"/>
      <point x="86" y="2"/>
      <point x="115" y="2" type="curve" smooth="yes"/>
      <point x="144" y="2"/>
      <point x="171" y="0"/>
      <point x="191" y="0" type="curve" smooth="yes"/>
      <point x="194" y="0"/>
      <point x="194" y="10"/>
      <point x="191" y="10" type="curve" smooth="yes"/>
      <point x="143" y="10"/>
      <point x="135" y="20"/>
      <point x="135" y="69" type="curve" smooth="yes"/>
      <point x="135" y="269" type="line" smooth="yes"/>
      <point x="135" y="314"/>
      <point x="119" y="338"/>
      <point x="111" y="338" type="curve" smooth="yes"/>
      <point x="110" y="338"/>
      <point x="109" y="338"/>
      <point x="107" y="337" type="curve" smooth="yes"/>
      <point x="12" y="292" type="line" smooth="yes"/>
      <point x="7" y="290"/>
      <point x="11" y="281"/>
      <point x="16" y="283" type="curve" smooth="yes"/>
      <point x="37" y="291"/>
      <point x="52" y="296"/>
      <point x="64" y="296" type="curve" smooth="yes"/>
      <point x="87" y="296"/>
      <point x="95" y="279"/>
      <point x="95" y="240" type="curve" smooth="yes"/>
      <point x="95" y="69" type="line" smooth="yes"/>
      <point x="95" y="20"/>
      <point x="86" y="10"/>
      <point x="39" y="10" type="curve" smooth="yes"/>
      <point x="36" y="10"/>
      <point x="36" y="0"/>
      <point x="39" y="0" type="curve" smooth="yes"/>
    </contour>
    <contour>
      <point x="230" y="330" type="move" name="top"/>
    </contour>
    <contour>
      <point x="220" y="0" type="move" name="bottom"/>
    </contour>
  </outline>
</glyph>
<glyph name="o" format="1">
  <advance width="408"/>
  <unicode hex="006F"/>
  <outline>
    <contour>
      <point x="293" y="-11"/>
      <point x="376" y="56"/>
      <point x="376" y="165" type="curve" smooth="yes"/>
      <point x="376" y="254"/>
      <point x="315" y="341"/>
      <point x="212" y="341" type="curve" smooth="yes"/>
      <point x="130" y="341"/>
      <point x="32" y="287"/>
      <point x="32" y="169" type="curve" smooth="yes"/>
      <point x="32" y="73"/>
      <point x="96" y="-11"/>
      <point x="197" y="-11" type="curve" smooth="yes"/>
    </contour>
    <contour>
      <point x="137" y="4"/>
      <point x="80" y="92"/>
      <point x="80" y="194" type="curve" smooth="yes"/>
      <point x="80" y="279"/>
      <point x="119" y="325"/>
      <point x="184" y="325" type="curve" smooth="yes"/>
      <point x="269" y="325"/>
      <point x="327" y="246"/>
      <point x="327" y="143" type="curve" smooth="yes"/>
      <point x="327" y="44"/>
      <point x="284" y="4"/>
      <point x="221" y="4" type="curve" smooth="yes"/>
    </contour>
    <contour>
      <point x="213" y="0" type="move" name="bottom"/>
    </contour>
    <contour>
      <point x="367" y="10" type="move" name="ogonek"/>
    </contour>
    <contour>
      <point x="204" y="330" type="move" name="top"/>
    </contour>
    <contour>
      <point x="281" y="330" type="move" name="topright"/>
    </contour>
    <contour>
      <point x="204" y="165" type="move" name="center"/>
    </contour>
  </outline>
</glyph>
<glyph name="p" format="1">
  <advance width="437"/>
  <unicode hex="0070"/>
  <outline>
    <contour>
      <point x="51" y="-235"/>
      <point x="79" y="-233"/>
      <point x="108" y="-233" type="curve" smooth="yes"/>
      <point x="148" y="-233"/>
      <point x="185" y="-235"/>
      <point x="215" y="-235" type="curve" smooth="yes"/>
      <point x="218" y="-235"/>
      <point x="218" y="-225"/>
      <point x="215" y="-225" type="curve" smooth="yes"/>
      <point x="141" y="-225"/>
      <point x="129" y="-215"/>
      <point x="129" y="-166" type="curve" smooth="yes"/>
      <point x="129" y="261" type="line" smooth="yes"/>
      <point x="129" y="311"/>
      <point x="115" y="337"/>
      <point x="99" y="337" type="curve" smooth="yes"/>
      <point x="97" y="337"/>
      <point x="94" y="336"/>
      <point x="92" y="335" type="curve" smooth="yes"/>
      <point x="4" y="293" type="line" smooth="yes"/>
      <point x="-1" y="291"/>
      <point x="3" y="282"/>
      <point x="8" y="284" type="curve" smooth="yes"/>
      <point x="28" y="293"/>
      <point x="44" y="297"/>
      <point x="55" y="297" type="curve" smooth="yes"/>
      <point x="79" y="297"/>
      <point x="87" y="279"/>
      <point x="87" y="238" type="curve" smooth="yes"/>
      <point x="87" y="-166" type="line" smooth="yes"/>
      <point x="87" y="-215"/>
      <point x="78" y="-225"/>
      <point x="31" y="-225" type="curve" smooth="yes"/>
      <point x="28" y="-225"/>
      <point x="28" y="-235"/>
      <point x="31" y="-235" type="curve" smooth="yes"/>
    </contour>
    <contour>
      <point x="294" y="-11"/>
      <point x="405" y="48"/>
      <point x="405" y="184" type="curve" smooth="yes"/>
      <point x="405" y="284"/>
      <point x="344" y="341"/>
      <point x="275" y="341" type="curve" smooth="yes"/>
      <point x="220" y="341"/>
      <point x="168" y="311"/>
      <point x="110" y="244" type="curve"/>
      <point x="117" y="238" type="line"/>
      <point x="154" y="279"/>
      <point x="192" y="313"/>
      <point x="244" y="313" type="curve" smooth="yes"/>
      <point x="308" y="313"/>
      <point x="358" y="258"/>
      <point x="358" y="157" type="curve" smooth="yes"/>
      <point x="358" y="62"/>
      <point x="310" y="6"/>
      <point x="250" y="6" type="curve" smooth="yes"/>
      <point x="185" y="6"/>
      <point x="149" y="35"/>
      <point x="117" y="75" type="curve"/>
      <point x="109" y="30" type="line"/>
      <point x="148" y="-2"/>
      <point x="178" y="-11"/>
      <point x="222" y="-11" type="curve" smooth="yes"/>
    </contour>
  </outline>
</glyph>
<glyph name="q" format="1">
  <advance width="414"/>
  <unicode hex="0071"/>
  <outline>
    <contour>
      <point x="237" y="-11"/>
      <point x="287" y="45"/>
      <point x="323" y="86" type="curve"/>
      <point x="316" y="92" type="line"/>
      <point x="280" y="51"/>
      <point x="239" y="13"/>
      <point x="189" y="13" type="curve" smooth="yes"/>
      <point x="125" y="13"/>
      <point x="80" y="73"/>
      <point x="80" y="173" type="curve" smooth="yes"/>
      <point x="80" y="278"/>
      <point x="119" y="325"/>
      <point x="188" y="325" type="curve" smooth="yes"/>
      <point x="251" y="325"/>
      <point x="285" y="297"/>
      <point x="316" y="251" type="curve"/>
      <point x="344" y="310" type="line"/>
      <point x="302" y="330"/>
      <point x="258" y="341"/>
      <point x="216" y="341" type="curve" smooth="yes"/>
      <point x="134" y="341"/>
      <point x="32" y="292"/>
      <point x="32" y="146" type="curve" smooth="yes"/>
      <point x="32" y="46"/>
      <point x="93" y="-11"/>
      <point x="163" y="-11" type="curve" smooth="yes"/>
    </contour>
    <contour>
      <point x="262" y="-235"/>
      <point x="291" y="-233"/>
      <point x="323" y="-233" type="curve" smooth="yes"/>
      <point x="352" y="-233"/>
      <point x="380" y="-235"/>
      <point x="400" y="-235" type="curve" smooth="yes"/>
      <point x="403" y="-235"/>
      <point x="403" y="-225"/>
      <point x="400" y="-225" type="curve" smooth="yes"/>
      <point x="353" y="-225"/>
      <point x="344" y="-215"/>
      <point x="344" y="-166" type="curve" smooth="yes"/>
      <point x="344" y="252" type="line" smooth="yes"/>
      <point x="344" y="292"/>
      <point x="361" y="304"/>
      <point x="395" y="325" type="curve" smooth="yes"/>
      <point x="399" y="328"/>
      <point x="396" y="335"/>
      <point x="391" y="333" type="curve" smooth="yes"/>
      <point x="302" y="302" type="line"/>
      <point x="302" y="-166" type="line" smooth="yes"/>
      <point x="302" y="-215"/>
      <point x="293" y="-225"/>
      <point x="236" y="-225" type="curve" smooth="yes"/>
      <point x="233" y="-225"/>
      <point x="233" y="-235"/>
      <point x="236" y="-235" type="curve" smooth="yes"/>
    </contour>
  </outline>
</glyph>
<glyph name="r" format="1">
  <advance width="308"/>
  <unicode hex="0072"/>
  <outline>
    <contour>
      <point x="172" y="298"/>
      <point x="185" y="306"/>
      <point x="201" y="306" type="curve" smooth="yes"/>
      <point x="230" y="306"/>
      <point x="236" y="283"/>
      <point x="257" y="283" type="curve" smooth="yes"/>
      <point x="274" y="283"/>
      <point x="282" y="294"/>
      <point x="282" y="305" type="curve" smooth="yes"/>
      <point x="282" y="323"/>
      <point x="254" y="338"/>
      <point x="230" y="338" type="curve" smooth="yes"/>
      <point x="202" y="338"/>
      <point x="178" y="318"/>
      <point x="115" y="240" type="curve"/>
      <point x="119" y="232" type="line"/>
    </contour>
    <contour>
      <point x="59" y="0"/>
      <point x="86" y="2"/>
      <point x="115" y="2" type="curve" smooth="yes"/>
      <point x="155" y="2"/>
      <point x="193" y="0"/>
      <point x="221" y="0" type="curve" smooth="yes"/>
      <point x="224" y="0"/>
      <point x="224" y="10"/>
      <point x="221" y="10" type="curve" smooth="yes"/>
      <point x="147" y="10"/>
      <point x="135" y="20"/>
      <point x="135" y="69" type="curve" smooth="yes"/>
      <point x="135" y="269" type="line" smooth="yes"/>
      <point x="135" y="314"/>
      <point x="119" y="338"/>
      <point x="111" y="338" type="curve" smooth="yes"/>
      <point x="110" y="338"/>
      <point x="109" y="338"/>
      <point x="107" y="337" type="curve" smooth="yes"/>
      <point x="12" y="292" type="line" smooth="yes"/>
      <point x="7" y="290"/>
      <point x="11" y="281"/>
      <point x="16" y="283" type="curve" smooth="yes"/>
      <point x="37" y="291"/>
      <point x="52" y="296"/>
      <point x="64" y="296" type="curve" smooth="yes"/>
      <point x="87" y="296"/>
      <point x="95" y="279"/>
      <point x="95" y="240" type="curve" smooth="yes"/>
      <point x="95" y="69" type="line" smooth="yes"/>
      <point x="95" y="20"/>
      <point x="86" y="10"/>
      <point x="39" y="10" type="curve" smooth="yes"/>
      <point x="36" y="10"/>
      <point x="36" y="0"/>
      <point x="39" y="0" type="curve" smooth="yes"/>
    </contour>
    <contour>
      <point x="155" y="330" type="move" name="top"/>
    </contour>
    <contour>
      <point x="132" y="0" type="move" name="bottom"/>
    </contour>
  </outline>
</glyph>
<glyph name="s" format="1">
  <advance width="289"/>
  <unicode hex="0073"/>
  <outline>
    <contour>
      <point x="82" y="308"/>
      <point x="101" y="324"/>
      <point x="132" y="324" type="curve" smooth="yes"/>
      <point x="170" y="324"/>
      <point x="220" y="299"/>
      <point x="220" y="260" type="curve" smooth="yes"/>
      <point x="220" y="257"/>
      <point x="230" y="257"/>
      <point x="230" y="260" type="curve" smooth="yes"/>
      <point x="230" y="282"/>
      <point x="232" y="302"/>
      <point x="232" y="319" type="curve" smooth="yes"/>
      <point x="232" y="323"/>
      <point x="231" y="325"/>
      <point x="224" y="328" type="curve" smooth="yes"/>
      <point x="204" y="337"/>
      <point x="184" y="341"/>
      <point x="163" y="341" type="curve" smooth="yes"/>
      <point x="107" y="341"/>
      <point x="49" y="311"/>
      <point x="49" y="246" type="curve" smooth="yes"/>
      <point x="49" y="190"/>
      <point x="91" y="169"/>
      <point x="133" y="149" type="curve" smooth="yes"/>
      <point x="173" y="130"/>
      <point x="212" y="112"/>
      <point x="214" y="63" type="curve" smooth="yes"/>
      <point x="216" y="26"/>
      <point x="194" y="7"/>
      <point x="154" y="7" type="curve" smooth="yes"/>
      <point x="108" y="7"/>
      <point x="74" y="32"/>
      <point x="52" y="90" type="curve" smooth="yes"/>
      <point x="51" y="93"/>
      <point x="42" y="92"/>
      <point x="42" y="89" type="curve" smooth="yes"/>
      <point x="44" y="27" type="line" smooth="yes"/>
      <point x="44" y="22"/>
      <point x="46" y="19"/>
      <point x="49" y="17" type="curve" smooth="yes"/>
      <point x="76" y="-3"/>
      <point x="102" y="-9"/>
      <point x="129" y="-9" type="curve" smooth="yes"/>
      <point x="206" y="-9"/>
      <point x="249" y="38"/>
      <point x="249" y="92" type="curve" smooth="yes"/>
      <point x="249" y="146"/>
      <point x="205" y="168"/>
      <point x="162" y="189" type="curve" smooth="yes"/>
      <point x="122" y="209"/>
      <point x="82" y="228"/>
      <point x="82" y="275" type="curve" smooth="yes"/>
    </contour>
    <contour>
      <point x="147" y="330" type="move" name="top"/>
    </contour>
    <contour>
      <point x="150" y="0" type="move" name="bottom"/>
    </contour>
  </outline>
</glyph>
<glyph name="u" format="1">
  <advance width="419"/>
  <unicode hex="0075"/>
  <outline>
    <contour>
      <point x="207" y="-6"/>
      <point x="257" y="21"/>
      <point x="313" y="92" type="curve"/>
      <point x="309" y="102" type="line"/>
      <point x="274" y="53"/>
      <point x="223" y="23"/>
      <point x="177" y="23" type="curve" smooth="yes"/>
      <point x="129" y="23"/>
      <point x="105" y="55"/>
      <point x="105" y="124" type="curve" smooth="yes"/>
      <point x="105" y="332" type="line" smooth="yes"/>
      <point x="105" y="335"/>
      <point x="100" y="338"/>
      <point x="98" y="338" type="curve" smooth="yes"/>
      <point x="97" y="338"/>
      <point x="97" y="338"/>
      <point x="95" y="337" type="curve" smooth="yes"/>
      <point x="5" y="297" type="line" smooth="yes"/>
      <point x="0" y="295"/>
      <point x="4" y="285"/>
      <point x="9" y="287" type="curve" smooth="yes"/>
      <point x="22" y="293"/>
      <point x="32" y="296"/>
      <point x="40" y="296" type="curve" smooth="yes"/>
      <point x="59" y="296"/>
      <point x="65" y="277"/>
      <point x="65" y="231" type="curve" smooth="yes"/>
      <point x="65" y="98" type="line" smooth="yes"/>
      <point x="65" y="28"/>
      <point x="99" y="-6"/>
      <point x="154" y="-6" type="curve" smooth="yes"/>
    </contour>
    <contour>
      <point x="333" y="335"/>
      <point x="328" y="338"/>
      <point x="326" y="338" type="curve" smooth="yes"/>
      <point x="325" y="338"/>
      <point x="325" y="338"/>
      <point x="323" y="337" type="curve" smooth="yes"/>
      <point x="233" y="297" type="line" smooth="yes"/>
      <point x="228" y="295"/>
      <point x="232" y="285"/>
      <point x="237" y="287" type="curve" smooth="yes"/>
      <point x="250" y="293"/>
      <point x="260" y="296"/>
      <point x="268" y="296" type="curve" smooth="yes"/>
      <point x="287" y="296"/>
      <point x="293" y="277"/>
      <point x="293" y="231" type="curve" smooth="yes"/>
      <point x="293" y="61" type="line" smooth="yes"/>
      <point x="293" y="16"/>
      <point x="309" y="-8"/>
      <point x="317" y="-8" type="curve" smooth="yes"/>
      <point x="318" y="-8"/>
      <point x="319" y="-8"/>
      <point x="321" y="-7" type="curve" smooth="yes"/>
      <point x="416" y="38" type="line" smooth="yes"/>
      <point x="421" y="40"/>
      <point x="417" y="49"/>
      <point x="412" y="47" type="curve" smooth="yes"/>
      <point x="391" y="39"/>
      <point x="376" y="34"/>
      <point x="364" y="34" type="curve" smooth="yes"/>
      <point x="341" y="34"/>
      <point x="333" y="51"/>
      <point x="333" y="90" type="curve" smooth="yes"/>
      <point x="333" y="332" type="line"/>
    </contour>
    <contour>
      <point x="416" y="41" type="move" name="ogonek"/>
    </contour>
    <contour>
      <point x="199" y="330" type="move" name="top"/>
    </contour>
    <contour>
      <point x="399" y="330" type="move" name="topright"/>
    </contour>
    <contour>
      <point x="210" y="0" type="move" name="bottom"/>
    </contour>
  </outline>
</glyph>
<glyph name="v" format="1">
  <advance width="370"/>
  <unicode hex="0076"/>
  <outline>
    <contour>
      <point x="342" y="330"/>
      <point x="331" y="328"/>
      <point x="307" y="328" type="curve" smooth="yes"/>
      <point x="268" y="328"/>
      <point x="248" y="330"/>
      <point x="221" y="330" type="curve" smooth="yes"/>
      <point x="218" y="330"/>
      <point x="218" y="320"/>
      <point x="221" y="320" type="curve" smooth="yes"/>
      <point x="285" y="320"/>
      <point x="302" y="306"/>
      <point x="286" y="266" type="curve" smooth="yes"/>
      <point x="185" y="19" type="line"/>
      <point x="204" y="44" type="line"/>
      <point x="93" y="286" type="line" smooth="yes"/>
      <point x="80" y="314"/>
      <point x="106" y="320"/>
      <point x="142" y="320" type="curve" smooth="yes"/>
      <point x="145" y="320"/>
      <point x="145" y="330"/>
      <point x="142" y="330" type="curve" smooth="yes"/>
      <point x="119" y="330"/>
      <point x="93" y="328"/>
      <point x="56" y="328" type="curve" smooth="yes"/>
      <point x="39" y="328"/>
      <point x="20" y="330"/>
      <point x="3" y="330" type="curve" smooth="yes"/>
      <point x="0" y="330"/>
      <point x="0" y="320"/>
      <point x="3" y="320" type="curve" smooth="yes"/>
      <point x="24" y="320"/>
      <point x="35" y="310"/>
      <point x="58" y="259" type="curve" smooth="yes"/>
      <point x="175" y="1" type="line" smooth="yes"/>
      <point x="177" y="-3"/>
      <point x="192" y="-3"/>
      <point x="194" y="1" type="curve" smooth="yes"/>
      <point x="301" y="261" type="line" smooth="yes"/>
      <point x="320" y="307"/>
      <point x="336" y="320"/>
      <point x="363" y="320" type="curve" smooth="yes"/>
      <point x="366" y="320"/>
      <point x="366" y="330"/>
      <point x="363" y="330" type="curve" smooth="yes"/>
    </contour>
    <contour>
      <point x="185" y="330" type="move" name="top"/>
    </contour>
    <contour>
      <point x="185" y="0" type="move" name="bottom"/>
    </contour>
  </outline>
</glyph>
<glyph name="w" format="1">
  <advance width="570"/>
  <unicode hex="0077"/>
  <outline>
    <contour>
      <point x="377" y="-3"/>
      <point x="392" y="-3"/>
      <point x="394" y="1" type="curve" smooth="yes"/>
      <point x="501" y="261" type="line" smooth="yes"/>
      <point x="520" y="307"/>
      <point x="536" y="320"/>
      <point x="563" y="320" type="curve" smooth="yes"/>
      <point x="566" y="320"/>
      <point x="566" y="330"/>
      <point x="563" y="330" type="curve" smooth="yes"/>
      <point x="542" y="330"/>
      <point x="531" y="328"/>
      <point x="507" y="328" type="curve" smooth="yes"/>
      <point x="468" y="328"/>
      <point x="448" y="330"/>
      <point x="421" y="330" type="curve" smooth="yes"/>
      <point x="418" y="330"/>
      <point x="418" y="320"/>
      <point x="421" y="320" type="curve" smooth="yes"/>
      <point x="485" y="320"/>
      <point x="502" y="306"/>
      <point x="486" y="266" type="curve" smooth="yes"/>
      <point x="385" y="19" type="line"/>
      <point x="404" y="43" type="line"/>
      <point x="293" y="286" type="line" smooth="yes"/>
      <point x="280" y="314"/>
      <point x="306" y="320"/>
      <point x="342" y="320" type="curve" smooth="yes"/>
      <point x="345" y="320"/>
      <point x="345" y="330"/>
      <point x="342" y="330" type="curve" smooth="yes"/>
      <point x="319" y="330"/>
      <point x="293" y="328"/>
      <point x="256" y="328" type="curve" smooth="yes"/>
      <point x="239" y="328"/>
      <point x="220" y="330"/>
      <point x="203" y="330" type="curve" smooth="yes"/>
      <point x="200" y="330"/>
      <point x="200" y="320"/>
      <point x="203" y="320" type="curve" smooth="yes"/>
      <point x="224" y="320"/>
      <point x="235" y="310"/>
      <point x="258" y="259" type="curve" smooth="yes"/>
      <point x="375" y="1" type="line" smooth="yes"/>
    </contour>
    <contour>
      <point x="177" y="-3"/>
      <point x="192" y="-3"/>
      <point x="194" y="1" type="curve" smooth="yes"/>
      <point x="290" y="232" type="line"/>
      <point x="278" y="244" type="line"/>
      <point x="185" y="19" type="line"/>
      <point x="205" y="43" type="line"/>
      <point x="94" y="286" type="line" smooth="yes"/>
      <point x="82" y="313"/>
      <point x="104" y="320"/>
      <point x="142" y="320" type="curve" smooth="yes"/>
      <point x="145" y="320"/>
      <point x="145" y="330"/>
      <point x="142" y="330" type="curve" smooth="yes"/>
      <point x="116" y="330"/>
      <point x="91" y="328"/>
      <point x="56" y="328" type="curve" smooth="yes"/>
      <point x="39" y="328"/>
      <point x="20" y="330"/>
      <point x="3" y="330" type="curve" smooth="yes"/>
      <point x="0" y="330"/>
      <point x="0" y="320"/>
      <point x="3" y="320" type="curve" smooth="yes"/>
      <point x="24" y="320"/>
      <point x="35" y="310"/>
      <point x="58" y="259" type="curve" smooth="yes"/>
      <point x="175" y="1" type="line" smooth="yes"/>
    </contour>
    <contour>
      <point x="277" y="330" type="move" name="top"/>
    </contour>
    <contour>
      <point x="285" y="0" type="move" name="bottom"/>
    </contour>
  </outline>
</glyph>
<glyph name="x" format="1">
  <advance width="375"/>
  <unicode hex="0078"/>
  <outline>
    <contour>
      <point x="247" y="0"/>
      <point x="273" y="2"/>
      <point x="310" y="2" type="curve" smooth="yes"/>
      <point x="327" y="2"/>
      <point x="346" y="0"/>
      <point x="363" y="0" type="curve" smooth="yes"/>
      <point x="366" y="0"/>
      <point x="366" y="10"/>
      <point x="363" y="10" type="curve" smooth="yes"/>
      <point x="342" y="10"/>
      <point x="308" y="23"/>
      <point x="276" y="71" type="curve" smooth="yes"/>
      <point x="133" y="286" type="line" smooth="yes"/>
      <point x="115" y="314"/>
      <point x="117" y="320"/>
      <point x="153" y="320" type="curve" smooth="yes"/>
      <point x="156" y="320"/>
      <point x="156" y="330"/>
      <point x="153" y="330" type="curve" smooth="yes"/>
      <point x="130" y="330"/>
      <point x="104" y="328"/>
      <point x="67" y="328" type="curve" smooth="yes"/>
      <point x="50" y="328"/>
      <point x="31" y="330"/>
      <point x="14" y="330" type="curve" smooth="yes"/>
      <point x="11" y="330"/>
      <point x="11" y="320"/>
      <point x="14" y="320" type="curve" smooth="yes"/>
      <point x="35" y="320"/>
      <point x="69" y="307"/>
      <point x="101" y="259" type="curve" smooth="yes"/>
      <point x="244" y="44" type="line" smooth="yes"/>
      <point x="262" y="16"/>
      <point x="260" y="10"/>
      <point x="224" y="10" type="curve" smooth="yes"/>
      <point x="221" y="10"/>
      <point x="221" y="0"/>
      <point x="224" y="0" type="curve" smooth="yes"/>
    </contour>
    <contour>
      <point x="34" y="0"/>
      <point x="45" y="2"/>
      <point x="69" y="2" type="curve" smooth="yes"/>
      <point x="108" y="2"/>
      <point x="128" y="0"/>
      <point x="155" y="0" type="curve" smooth="yes"/>
      <point x="158" y="0"/>
      <point x="158" y="10"/>
      <point x="155" y="10" type="curve" smooth="yes"/>
      <point x="91" y="10"/>
      <point x="96" y="29"/>
      <point x="120" y="64" type="curve" smooth="yes"/>
      <point x="187" y="162" type="line"/>
      <point x="177" y="169" type="line"/>
      <point x="105" y="69" type="line" smooth="yes"/>
      <point x="76" y="29"/>
      <point x="40" y="10"/>
      <point x="13" y="10" type="curve" smooth="yes"/>
      <point x="10" y="10"/>
      <point x="10" y="0"/>
      <point x="13" y="0" type="curve" smooth="yes"/>
    </contour>
    <contour>
      <point x="259" y="261" type="line" smooth="yes"/>
      <point x="291" y="304"/>
      <point x="324" y="320"/>
      <point x="351" y="320" type="curve" smooth="yes"/>
      <point x="354" y="320"/>
      <point x="354" y="330"/>
      <point x="351" y="330" type="curve" smooth="yes"/>
      <point x="330" y="330"/>
      <point x="319" y="328"/>
      <point x="295" y="328" type="curve" smooth="yes"/>
      <point x="256" y="328"/>
      <point x="236" y="330"/>
      <point x="209" y="330" type="curve" smooth="yes"/>
      <point x="206" y="330"/>
      <point x="206" y="320"/>
      <point x="209" y="320" type="curve" smooth="yes"/>
      <point x="273" y="320"/>
      <point x="270" y="304"/>
      <point x="244" y="266" type="curve" smooth="yes"/>
      <point x="181" y="173" type="line"/>
      <point x="189" y="165" type="line"/>
    </contour>
    <contour>
      <point x="188" y="330" type="move" name="top"/>
    </contour>
    <contour>
      <point x="188" y="0" type="move" name="bottom"/>
    </contour>
  </outline>
</glyph>
<glyph name="y" format="1">
  <advance width="374"/>
  <unicode hex="0079"/>
  <outline>
    <contour>
      <point x="346" y="330"/>
      <point x="335" y="328"/>
      <point x="311" y="328" type="curve" smooth="yes"/>
      <point x="272" y="328"/>
      <point x="252" y="330"/>
      <point x="225" y="330" type="curve" smooth="yes"/>
      <point x="222" y="330"/>
      <point x="222" y="320"/>
      <point x="225" y="320" type="curve" smooth="yes"/>
      <point x="289" y="320"/>
      <point x="304" y="307"/>
      <point x="287" y="257" type="curve" smooth="yes"/>
      <point x="201" y="9" type="line"/>
      <point x="218" y="41" type="line"/>
      <point x="98" y="286" type="line" smooth="yes"/>
      <point x="85" y="313"/>
      <point x="110" y="320"/>
      <point x="146" y="320" type="curve" smooth="yes"/>
      <point x="149" y="320"/>
      <point x="149" y="330"/>
      <point x="146" y="330" type="curve" smooth="yes"/>
      <point x="123" y="330"/>
      <point x="97" y="328"/>
      <point x="60" y="328" type="curve" smooth="yes"/>
      <point x="43" y="328"/>
      <point x="24" y="330"/>
      <point x="7" y="330" type="curve" smooth="yes"/>
      <point x="4" y="330"/>
      <point x="4" y="320"/>
      <point x="7" y="320" type="curve" smooth="yes"/>
      <point x="28" y="320"/>
      <point x="38" y="309"/>
      <point x="63" y="259" type="curve" smooth="yes"/>
      <point x="196" y="-11" type="line"/>
      <point x="196" y="8" type="line"/>
      <point x="134" y="-156"/>
      <point x="102" y="-207"/>
      <point x="59" y="-207" type="curve" smooth="yes"/>
      <point x="31" y="-207"/>
      <point x="27" y="-187"/>
      <point x="-6" y="-187" type="curve" smooth="yes"/>
      <point x="-18" y="-187"/>
      <point x="-29" y="-195"/>
      <point x="-29" y="-209" type="curve" smooth="yes"/>
      <point x="-29" y="-231"/>
      <point x="-9" y="-240"/>
      <point x="12" y="-240" type="curve" smooth="yes"/>
      <point x="89" y="-240"/>
      <point x="136" y="-189"/>
      <point x="198" y="-24" type="curve" smooth="yes"/>
      <point x="305" y="261" type="line" smooth="yes"/>
      <point x="322" y="307"/>
      <point x="340" y="320"/>
      <point x="367" y="320" type="curve" smooth="yes"/>
      <point x="370" y="320"/>
      <point x="370" y="330"/>
      <point x="367" y="330" type="curve" smooth="yes"/>
    </contour>
    <contour>
      <point x="192" y="330" type="move" name="top"/>
    </contour>
    <contour>
      <point x="266" y="0" type="move" name="bottom"/>
    </contour>
  </outline>
</glyph>
<glyph name="z" format="1">
  <advance width="346"/>
  <unicode hex="007A"/>
  <outline>
    <contour>
      <point x="35" y="6"/>
      <point x="39" y="0"/>
      <point x="44" y="0" type="curve" smooth="yes"/>
      <point x="129" y="0"/>
      <point x="223" y="0"/>
      <point x="304" y="0" type="curve" smooth="yes"/>
      <point x="309" y="0"/>
      <point x="312" y="5"/>
      <point x="312" y="9" type="curve" smooth="yes"/>
      <point x="314" y="93" type="line" smooth="yes"/>
      <point x="314" y="96"/>
      <point x="305" y="96"/>
      <point x="304" y="93" type="curve" smooth="yes"/>
      <point x="278" y="13"/>
      <point x="268" y="12"/>
      <point x="100" y="12" type="curve" smooth="yes"/>
      <point x="95" y="12"/>
      <point x="93" y="14"/>
      <point x="96" y="18" type="curve" smooth="yes"/>
      <point x="299" y="320" type="line" smooth="yes"/>
      <point x="302" y="324"/>
      <point x="297" y="330"/>
      <point x="292" y="330" type="curve" smooth="yes"/>
      <point x="212" y="330"/>
      <point x="155" y="330"/>
      <point x="115" y="330" type="curve" smooth="yes"/>
      <point x="82" y="330"/>
      <point x="71" y="334"/>
      <point x="75" y="352" type="curve" smooth="yes"/>
      <point x="76" y="355"/>
      <point x="66" y="356"/>
      <point x="65" y="353" type="curve" smooth="yes"/>
      <point x="38" y="249" type="line" smooth="yes"/>
      <point x="37" y="246"/>
      <point x="47" y="244"/>
      <point x="48" y="247" type="curve" smooth="yes"/>
      <point x="67" y="312"/>
      <point x="109" y="320"/>
      <point x="242" y="320" type="curve" smooth="yes"/>
      <point x="247" y="320"/>
      <point x="249" y="318"/>
      <point x="246" y="314" type="curve" smooth="yes"/>
      <point x="38" y="10" type="line" smooth="yes"/>
    </contour>
    <contour>
      <point x="173" y="330" type="move" name="top"/>
    </contour>
    <contour>
      <point x="173" y="0" type="move" name="bottom"/>
    </contour>
  </outline>
</glyph>
<glyph name="braceleft" format="1">
  <advance width="247"/>
  <unicode hex="007B"/>
  <outline>
    <contour>
      <point x="92" y="247"/>
      <point x="100" y="156"/>
      <point x="100" y="68" type="curve" smooth="yes"/>
      <point x="100" y="-74"/>
      <point x="119" y="-100"/>
      <point x="214" y="-100" type="curve" smooth="yes"/>
      <point x="218" y="-100"/>
      <point x="218" y="-90"/>
      <point x="214" y="-90" type="curve" smooth="yes"/>
      <point x="170" y="-90"/>
      <point x="145" y="-57"/>
      <point x="144" y="1" type="curve" smooth="yes"/>
      <point x="140" y="180"/>
      <point x="139" y="221"/>
      <point x="52" y="261" type="curve" smooth="yes"/>
      <point x="139" y="300"/>
      <point x="140" y="336"/>
      <point x="144" y="519" type="curve" smooth="yes"/>
      <point x="145" y="577"/>
      <point x="170" y="610"/>
      <point x="214" y="610" type="curve" smooth="yes"/>
      <point x="218" y="610"/>
      <point x="218" y="620"/>
      <point x="214" y="620" type="curve" smooth="yes"/>
      <point x="121" y="620"/>
      <point x="100" y="596"/>
      <point x="100" y="452" type="curve" smooth="yes"/>
      <point x="100" y="367"/>
      <point x="92" y="274"/>
      <point x="27" y="266" type="curve" smooth="yes"/>
      <point x="24" y="266"/>
      <point x="24" y="255"/>
      <point x="27" y="255" type="curve" smooth="yes"/>
    </contour>
  </outline>
</glyph>
<glyph name="sterling" format="1">
  <advance width="369"/>
  <unicode hex="00A3"/>
  <outline>
    <contour>
      <point x="90" y="26" type="line"/>
      <point x="119" y="46"/>
      <point x="147" y="69"/>
      <point x="147" y="126" type="curve" smooth="yes"/>
      <point x="147" y="194"/>
      <point x="113" y="243"/>
      <point x="113" y="311" type="curve" smooth="yes"/>
      <point x="113" y="354"/>
      <point x="135" y="399"/>
      <point x="201" y="399" type="curve" smooth="yes"/>
      <point x="264" y="399"/>
      <point x="293" y="340"/>
      <point x="297" y="294" type="curve" smooth="yes"/>
      <point x="298" y="289"/>
      <point x="307" y="289"/>
      <point x="307" y="294" type="curve" smooth="yes"/>
      <point x="301" y="380" type="line" smooth="yes"/>
      <point x="300" y="388"/>
      <point x="296" y="393"/>
      <point x="287" y="396" type="curve" smooth="yes"/>
      <point x="259" y="407"/>
      <point x="232" y="410"/>
      <point x="210" y="410" type="curve" smooth="yes"/>
      <point x="137" y="410"/>
      <point x="69" y="373"/>
      <point x="69" y="285" type="curve" smooth="yes"/>
      <point x="69" y="214"/>
      <point x="106" y="178"/>
      <point x="106" y="91" type="curve" smooth="yes"/>
      <point x="106" y="46"/>
      <point x="90" y="26"/>
      <point x="31" y="10" type="curve" smooth="yes"/>
      <point x="28" y="9"/>
      <point x="28" y="0"/>
      <point x="31" y="0" type="curve" smooth="yes"/>
      <point x="304" y="0" type="line" smooth="yes"/>
      <point x="314" y="0"/>
      <point x="317" y="3"/>
      <point x="317" y="13" type="curve" smooth="yes"/>
      <point x="317" y="42"/>
      <point x="321" y="80"/>
      <point x="325" y="104" type="curve" smooth="yes"/>
      <point x="325" y="107"/>
      <point x="315" y="108"/>
      <point x="315" y="105" type="curve" smooth="yes"/>
      <point x="302" y="45"/>
      <point x="287" y="34"/>
      <point x="215" y="34" type="curve" smooth="yes"/>
      <point x="85" y="34" type="line"/>
    </contour>
    <contour>
      <point x="39" y="205"/>
      <point x="39" y="188"/>
      <point x="47" y="188" type="curve" smooth="yes"/>
      <point x="234" y="188" type="line" smooth="yes"/>
      <point x="242" y="188"/>
      <point x="242" y="205"/>
      <point x="234" y="205" type="curve" smooth="yes"/>
      <point x="47" y="205" type="line" smooth="yes"/>
    </contour>
    <contour>
      <point x="124" y="534" type="move" name="top"/>
    </contour>
    <contour>
      <point x="237" y="0" type="move" name="bottom"/>
    </contour>
    <contour>
      <point x="413" y="534" type="move" name="topright"/>
    </contour>
  </outline>
</glyph>
<glyph name="currency" format="1">
  <advance width="354"/>
  <unicode hex="00A4"/>
  <outline>
    <contour>
      <point x="93" y="97" type="line"/>
      <point x="48" y="50" type="line"/>
      <point x="66" y="32" type="line"/>
      <point x="109" y="80" type="line"/>
    </contour>
    <contour>
      <point x="110" y="266" type="line"/>
      <point x="66" y="314" type="line"/>
      <point x="44" y="294" type="line"/>
      <point x="90" y="248" type="line"/>
    </contour>
    <contour>
      <point x="242" y="82" type="line"/>
      <point x="286" y="32" type="line"/>
      <point x="309" y="53" type="line"/>
      <point x="262" y="100" type="line"/>
    </contour>
    <contour>
      <point x="264" y="250" type="line"/>
      <point x="308" y="294" type="line"/>
      <point x="291" y="311" type="line"/>
      <point x="248" y="265" type="line"/>
    </contour>
    <contour>
      <point x="231" y="56"/>
      <point x="298" y="98"/>
      <point x="298" y="172" type="curve" smooth="yes"/>
      <point x="298" y="237"/>
      <point x="246" y="286"/>
      <point x="180" y="286" type="curve" smooth="yes"/>
      <point x="124" y="286"/>
      <point x="52" y="250"/>
      <point x="52" y="173" type="curve" smooth="yes"/>
      <point x="52" y="115"/>
      <point x="94" y="56"/>
      <point x="168" y="56" type="curve" smooth="yes"/>
    </contour>
    <contour>
      <point x="121" y="69"/>
      <point x="94" y="135"/>
      <point x="94" y="191" type="curve" smooth="yes"/>
      <point x="94" y="246"/>
      <point x="121" y="273"/>
      <point x="161" y="273" type="curve" smooth="yes"/>
      <point x="221" y="273"/>
      <point x="254" y="214"/>
      <point x="254" y="154" type="curve" smooth="yes"/>
      <point x="254" y="99"/>
      <point x="226" y="69"/>
      <point x="184" y="69" type="curve" smooth="yes"/>
    </contour>
  </outline>
</glyph>
<glyph name="yen" format="1">
  <advance width="408"/>
  <unicode hex="00A5"/>
  <outline>
    <contour>
      <point x="78" y="133"/>
      <point x="78" y="116"/>
      <point x="86" y="116" type="curve" smooth="yes"/>
      <point x="313" y="116" type="line" smooth="yes"/>
      <point x="321" y="116"/>
      <point x="321" y="133"/>
      <point x="313" y="133" type="curve" smooth="yes"/>
      <point x="86" y="133" type="line" smooth="yes"/>
    </contour>
    <contour>
      <point x="78" y="182"/>
      <point x="78" y="165"/>
      <point x="86" y="165" type="curve" smooth="yes"/>
      <point x="313" y="165" type="line" smooth="yes"/>
      <point x="321" y="165"/>
      <point x="321" y="182"/>
      <point x="313" y="182" type="curve" smooth="yes"/>
      <point x="86" y="182" type="line" smooth="yes"/>
    </contour>
    <contour>
      <point x="204" y="168" type="line"/>
      <point x="293" y="313" type="line" smooth="yes"/>
      <point x="323" y="362"/>
      <point x="360" y="390"/>
      <point x="398" y="390" type="curve" smooth="yes"/>
      <point x="401" y="390"/>
      <point x="401" y="400"/>
      <point x="398" y="400" type="curve" smooth="yes"/>
      <point x="377" y="400"/>
      <point x="366" y="398"/>
      <point x="342" y="398" type="curve" smooth="yes"/>
      <point x="303" y="398"/>
      <point x="285" y="400"/>
      <point x="258" y="400" type="curve" smooth="yes"/>
      <point x="255" y="400"/>
      <point x="255" y="390"/>
      <point x="258" y="390" type="curve" smooth="yes"/>
      <point x="291" y="390"/>
      <point x="305" y="361"/>
      <point x="277" y="314" type="curve" smooth="yes"/>
      <point x="192" y="168" type="line"/>
    </contour>
    <contour>
      <point x="222" y="201" type="line"/>
      <point x="120" y="356" type="line" smooth="yes"/>
      <point x="105" y="379"/>
      <point x="115" y="390"/>
      <point x="150" y="390" type="curve" smooth="yes"/>
      <point x="153" y="390"/>
      <point x="153" y="400"/>
      <point x="150" y="400" type="curve" smooth="yes"/>
      <point x="124" y="400"/>
      <point x="90" y="398"/>
      <point x="49" y="398" type="curve" smooth="yes"/>
      <point x="32" y="398"/>
      <point x="13" y="400"/>
      <point x="-4" y="400" type="curve" smooth="yes"/>
      <point x="-7" y="400"/>
      <point x="-7" y="390"/>
      <point x="-4" y="390" type="curve" smooth="yes"/>
      <point x="34" y="390"/>
      <point x="54" y="373"/>
      <point x="83" y="329" type="curve" smooth="yes"/>
      <point x="189" y="168" type="line"/>
    </contour>
    <contour>
      <point x="179" y="124" type="line"/>
      <point x="179" y="69" type="line" smooth="yes"/>
      <point x="179" y="20"/>
      <point x="167" y="10"/>
      <point x="102" y="10" type="curve" smooth="yes"/>
      <point x="99" y="10"/>
      <point x="99" y="0"/>
      <point x="102" y="0" type="curve" smooth="yes"/>
      <point x="129" y="0"/>
      <point x="165" y="2"/>
      <point x="200" y="2" type="curve" smooth="yes"/>
      <point x="239" y="2"/>
      <point x="271" y="0"/>
      <point x="298" y="0" type="curve" smooth="yes"/>
      <point x="301" y="0"/>
      <point x="301" y="10"/>
      <point x="298" y="10" type="curve" smooth="yes"/>
      <point x="232" y="10"/>
      <point x="222" y="20"/>
      <point x="222" y="69" type="curve" smooth="yes"/>
      <point x="222" y="124" type="line"/>
    </contour>
    <contour>
      <point x="222" y="171" type="line"/>
      <point x="222" y="203" type="line"/>
      <point x="179" y="195" type="line"/>
      <point x="179" y="171" type="line"/>
    </contour>
    <contour>
      <point x="205" y="400" type="move" name="top"/>
    </contour>
    <contour>
      <point x="202" y="0" type="move" name="bottom"/>
    </contour>
  </outline>
</glyph>
<glyph name="ordfeminine" format="1">
  <advance width="236"/>
  <unicode hex="00AA"/>
  <outline>
    <contour>
      <point x="221" y="246" type="line" smooth="yes"/>
      <point x="226" y="246"/>
      <point x="226" y="268"/>
      <point x="221" y="268" type="curve" smooth="yes"/>
      <point x="28" y="268" type="line" smooth="yes"/>
      <point x="24" y="268"/>
      <point x="24" y="246"/>
      <point x="29" y="246" type="curve" smooth="yes"/>
    </contour>
    <contour>
      <point x="235" y="340" type="line" smooth="yes"/>
      <point x="238" y="342"/>
      <point x="234" y="350"/>
      <point x="230" y="348" type="curve" smooth="yes"/>
      <point x="192" y="334"/>
      <point x="180" y="338"/>
      <point x="180" y="377" type="curve" smooth="yes"/>
      <point x="180" y="477" type="line" smooth="yes"/>
      <point x="180" y="520"/>
      <point x="160" y="539"/>
      <point x="134" y="539" type="curve" smooth="yes"/>
      <point x="98" y="539"/>
      <point x="32" y="503"/>
      <point x="32" y="477" type="curve" smooth="yes"/>
      <point x="32" y="470"/>
      <point x="39" y="462"/>
      <point x="50" y="462" type="curve" smooth="yes"/>
      <point x="63" y="462"/>
      <point x="65" y="472"/>
      <point x="67" y="480" type="curve" smooth="yes"/>
      <point x="72" y="504"/>
      <point x="86" y="523"/>
      <point x="111" y="523" type="curve" smooth="yes"/>
      <point x="133" y="523"/>
      <point x="154" y="518"/>
      <point x="154" y="460" type="curve" smooth="yes"/>
      <point x="154" y="358" type="line" smooth="yes"/>
      <point x="154" y="323"/>
      <point x="166" y="308"/>
      <point x="177" y="313" type="curve" smooth="yes"/>
    </contour>
    <contour>
      <point x="84" y="312"/>
      <point x="94" y="317"/>
      <point x="116" y="329" type="curve" smooth="yes"/>
      <point x="166" y="356" type="line"/>
      <point x="165" y="365" type="line"/>
      <point x="112" y="338" type="line" smooth="yes"/>
      <point x="106" y="335"/>
      <point x="98" y="333"/>
      <point x="90" y="333" type="curve" smooth="yes"/>
      <point x="75" y="333"/>
      <point x="65" y="343"/>
      <point x="65" y="356" type="curve" smooth="yes"/>
      <point x="65" y="367"/>
      <point x="71" y="370"/>
      <point x="88" y="377" type="curve" smooth="yes"/>
      <point x="161" y="405" type="line"/>
      <point x="160" y="414" type="line"/>
      <point x="83" y="386" type="line" smooth="yes"/>
      <point x="45" y="372"/>
      <point x="32" y="364"/>
      <point x="32" y="345" type="curve" smooth="yes"/>
      <point x="32" y="327"/>
      <point x="46" y="312"/>
      <point x="69" y="312" type="curve" smooth="yes"/>
    </contour>
    <contour>
      <point x="211" y="323" type="move" name="ogonek"/>
    </contour>
    <contour>
      <point x="118" y="534" type="move" name="top"/>
    </contour>
  </outline>
</glyph>
<glyph name="macron" format="1">
  <advance width="295"/>
  <unicode hex="00AF"/>
  <outline>
    <contour>
      <point x="255" y="415" type="line" smooth="yes"/>
      <point x="261" y="415"/>
      <point x="261" y="437"/>
      <point x="255" y="437" type="curve" smooth="yes"/>
      <point x="40" y="437" type="line" smooth="yes"/>
      <point x="34" y="437"/>
      <point x="34" y="415"/>
      <point x="40" y="415" type="curve" smooth="yes"/>
    </contour>
    <contour>
      <point x="148" y="330" type="move" name="_top"/>
    </contour>
  </outline>
</glyph>
<glyph name="degree" format="1">
  <advance width="284"/>
  <unicode hex="00B0"/>
  <outline>
    <contour>
      <point x="213" y="319"/>
      <point x="259" y="367"/>
      <point x="259" y="428" type="curve" smooth="yes"/>
      <point x="259" y="490"/>
      <point x="214" y="539"/>
      <point x="143" y="539" type="curve" smooth="yes"/>
      <point x="72" y="539"/>
      <point x="25" y="489"/>
      <point x="25" y="430" type="curve" smooth="yes"/>
      <point x="25" y="368"/>
      <point x="72" y="319"/>
      <point x="143" y="319" type="curve" smooth="yes"/>
    </contour>
    <contour>
      <point x="87" y="328"/>
      <point x="71" y="374"/>
      <point x="71" y="433" type="curve" smooth="yes"/>
      <point x="71" y="487"/>
      <point x="81" y="530"/>
      <point x="138" y="530" type="curve" smooth="yes"/>
      <point x="190" y="530"/>
      <point x="214" y="493"/>
      <point x="214" y="422" type="curve" smooth="yes"/>
      <point x="214" y="368"/>
      <point x="207" y="328"/>
      <point x="149" y="328" type="curve" smooth="yes"/>
    </contour>
    <contour>
      <point x="142" y="594" type="move" name="top"/>
    </contour>
  </outline>
</glyph>
<glyph name="threesuperior" format="1">
  <advance width="215"/>
  <unicode hex="00B3"/>
  <outline>
    <contour>
      <point x="81" y="480"/>
      <point x="87" y="472"/>
      <point x="91" y="475" type="curve" smooth="yes"/>
      <point x="125" y="493"/>
      <point x="172" y="531"/>
      <point x="172" y="563" type="curve" smooth="yes"/>
      <point x="172" y="592"/>
      <point x="151" y="623"/>
      <point x="104" y="623" type="curve" smooth="yes"/>
      <point x="58" y="623"/>
      <point x="35" y="593"/>
      <point x="25" y="558" type="curve" smooth="yes"/>
      <point x="24" y="554"/>
      <point x="34" y="552"/>
      <point x="35" y="556" type="curve" smooth="yes"/>
      <point x="42" y="584"/>
      <point x="64" y="606"/>
      <point x="91" y="606" type="curve" smooth="yes"/>
      <point x="119" y="606"/>
      <point x="137" y="583"/>
      <point x="137" y="557" type="curve" smooth="yes"/>
      <point x="137" y="526"/>
      <point x="117" y="499"/>
      <point x="84" y="482" type="curve" smooth="yes"/>
    </contour>
    <contour>
      <point x="142" y="477"/>
      <point x="148" y="444"/>
      <point x="148" y="421" type="curve" smooth="yes"/>
      <point x="148" y="369"/>
      <point x="119" y="351"/>
      <point x="94" y="351" type="curve" smooth="yes"/>
      <point x="64" y="351"/>
      <point x="38" y="369"/>
      <point x="30" y="400" type="curve" smooth="yes"/>
      <point x="29" y="404"/>
      <point x="19" y="402"/>
      <point x="20" y="398" type="curve" smooth="yes"/>
      <point x="28" y="363"/>
      <point x="48" y="339"/>
      <point x="91" y="339" type="curve" smooth="yes"/>
      <point x="149" y="339"/>
      <point x="183" y="392"/>
      <point x="183" y="428" type="curve" smooth="yes"/>
      <point x="183" y="458"/>
      <point x="159" y="485"/>
      <point x="124" y="501" type="curve" smooth="yes"/>
      <point x="120" y="504"/>
      <point x="114" y="496"/>
      <point x="117" y="494" type="curve" smooth="yes"/>
    </contour>
  </outline>
</glyph>
<glyph name="cedilla" format="1">
  <advance width="198"/>
  <unicode hex="00B8"/>
  <outline>
    <contour>
      <point x="86" y="-1" type="line"/>
      <point x="70" y="-45"/>
      <point x="69" y="-49"/>
      <point x="57" y="-78" type="curve" smooth="yes"/>
      <point x="50" y="-95"/>
      <point x="49" y="-95"/>
      <point x="66" y="-104" type="curve" smooth="yes"/>
      <point x="121" y="-134"/>
      <point x="139" y="-154"/>
      <point x="139" y="-184" type="curve" smooth="yes"/>
      <point x="139" y="-208"/>
      <point x="127" y="-219"/>
      <point x="108" y="-219" type="curve" smooth="yes"/>
      <point x="72" y="-219"/>
      <point x="80" y="-181"/>
      <point x="54" y="-181" type="curve" smooth="yes"/>
      <point x="41" y="-181"/>
      <point x="30" y="-190"/>
      <point x="30" y="-204" type="curve" smooth="yes"/>
      <point x="30" y="-225"/>
      <point x="55" y="-235"/>
      <point x="83" y="-235" type="curve" smooth="yes"/>
      <point x="143" y="-235"/>
      <point x="168" y="-191"/>
      <point x="168" y="-155" type="curve" smooth="yes"/>
      <point x="168" y="-121"/>
      <point x="145" y="-103"/>
      <point x="121" y="-89" type="curve" smooth="yes"/>
      <point x="78" y="-64"/>
      <point x="74" y="-69"/>
      <point x="97" y="-2" type="curve"/>
    </contour>
    <contour>
      <point x="99" y="0" type="move" name="_bottom"/>
    </contour>
  </outline>
</glyph>
<glyph name="ordmasculine" format="1">
  <advance width="268"/>
  <unicode hex="00BA"/>
  <outline>
    <contour>
      <point x="238" y="246" type="line" smooth="yes"/>
      <point x="243" y="246"/>
      <point x="243" y="268"/>
      <point x="238" y="268" type="curve" smooth="yes"/>
      <point x="30" y="268" type="line" smooth="yes"/>
      <point x="26" y="268"/>
      <point x="26" y="246"/>
      <point x="31" y="246" type="curve" smooth="yes"/>
    </contour>
    <contour>
      <point x="193" y="307"/>
      <point x="248" y="358"/>
      <point x="248" y="423" type="curve" smooth="yes"/>
      <point x="248" y="482"/>
      <point x="208" y="539"/>
      <point x="140" y="539" type="curve" smooth="yes"/>
      <point x="86" y="539"/>
      <point x="21" y="503"/>
      <point x="21" y="426" type="curve" smooth="yes"/>
      <point x="21" y="362"/>
      <point x="63" y="307"/>
      <point x="130" y="307" type="curve" smooth="yes"/>
    </contour>
    <contour>
      <point x="90" y="320"/>
      <point x="53" y="378"/>
      <point x="53" y="442" type="curve" smooth="yes"/>
      <point x="53" y="495"/>
      <point x="79" y="525"/>
      <point x="124" y="525" type="curve" smooth="yes"/>
      <point x="178" y="525"/>
      <point x="216" y="473"/>
      <point x="216" y="408" type="curve" smooth="yes"/>
      <point x="216" y="353"/>
      <point x="187" y="320"/>
      <point x="143" y="320" type="curve" smooth="yes"/>
    </contour>
    <contour>
      <point x="135" y="534" type="move" name="top"/>
    </contour>
  </outline>
</glyph>
<glyph name="guillemetright" format="1">
  <advance width="386"/>
  <unicode hex="00BB"/>
  <outline>
    <contour>
      <point x="183" y="312"/>
      <point x="178" y="306"/>
      <point x="179" y="304" type="curve" smooth="yes"/>
      <point x="290" y="171" type="line"/>
      <point x="179" y="39" type="line" smooth="yes"/>
      <point x="177" y="36"/>
      <point x="183" y="31"/>
      <point x="185" y="34" type="curve" smooth="yes"/>
      <point x="334" y="162" type="line" smooth="yes"/>
      <point x="339" y="167"/>
      <point x="339" y="176"/>
      <point x="334" y="181" type="curve" smooth="yes"/>
      <point x="185" y="309" type="line" smooth="yes"/>
    </contour>
    <contour>
      <point x="57" y="312"/>
      <point x="52" y="306"/>
      <point x="53" y="304" type="curve" smooth="yes"/>
      <point x="164" y="171" type="line"/>
      <point x="53" y="39" type="line" smooth="yes"/>
      <point x="51" y="36"/>
      <point x="57" y="31"/>
      <point x="59" y="34" type="curve" smooth="yes"/>
      <point x="208" y="162" type="line" smooth="yes"/>
      <point x="213" y="167"/>
      <point x="213" y="176"/>
      <point x="208" y="181" type="curve" smooth="yes"/>
      <point x="59" y="309" type="line" smooth="yes"/>
    </contour>
  </outline>
</glyph>
<glyph name="AE" format="1">
  <advance width="745"/>
  <unicode hex="00C6"/>
  <outline>
    <contour>
      <point x="34" y="0"/>
      <point x="50" y="3"/>
      <point x="86" y="3" type="curve" smooth="yes"/>
      <point x="130" y="3"/>
      <point x="153" y="0"/>
      <point x="187" y="0" type="curve" smooth="yes"/>
      <point x="192" y="0"/>
      <point x="192" y="10"/>
      <point x="187" y="10" type="curve" smooth="yes"/>
      <point x="114" y="10"/>
      <point x="101" y="40"/>
      <point x="146" y="105" type="curve" smooth="yes"/>
      <point x="432" y="516" type="line"/>
      <point x="413" y="503" type="line"/>
      <point x="413" y="69" type="line" smooth="yes"/>
      <point x="413" y="20"/>
      <point x="402" y="10"/>
      <point x="337" y="10" type="curve" smooth="yes"/>
      <point x="334" y="10"/>
      <point x="334" y="0"/>
      <point x="337" y="0" type="curve" smooth="yes"/>
      <point x="680" y="0" type="line" smooth="yes"/>
      <point x="690" y="0"/>
      <point x="693" y="3"/>
      <point x="693" y="13" type="curve" smooth="yes"/>
      <point x="693" y="48"/>
      <point x="697" y="94"/>
      <point x="701" y="124" type="curve" smooth="yes"/>
      <point x="701" y="127"/>
      <point x="691" y="128"/>
      <point x="691" y="125" type="curve" smooth="yes"/>
      <point x="682" y="60"/>
      <point x="646" y="16"/>
      <point x="601" y="16" type="curve" smooth="yes"/>
      <point x="532" y="16" type="line" smooth="yes"/>
      <point x="469" y="16"/>
      <point x="458" y="25"/>
      <point x="458" y="73" type="curve" smooth="yes"/>
      <point x="458" y="464" type="line" smooth="yes"/>
      <point x="458" y="510"/>
      <point x="469" y="518"/>
      <point x="532" y="518" type="curve" smooth="yes"/>
      <point x="581" y="518" type="line" smooth="yes"/>
      <point x="631" y="518"/>
      <point x="665" y="480"/>
      <point x="665" y="423" type="curve" smooth="yes"/>
      <point x="665" y="420"/>
      <point x="675" y="420"/>
      <point x="675" y="423" type="curve" smooth="yes"/>
      <point x="673" y="527" type="line" smooth="yes"/>
      <point x="673" y="532"/>
      <point x="671" y="534"/>
      <point x="665" y="534" type="curve" smooth="yes"/>
      <point x="337" y="534" type="line" smooth="yes"/>
      <point x="334" y="534"/>
      <point x="334" y="524"/>
      <point x="337" y="524" type="curve" smooth="yes"/>
      <point x="408" y="524"/>
      <point x="413" y="521"/>
      <point x="392" y="491" type="curve" smooth="yes"/>
      <point x="129" y="113" type="line" smooth="yes"/>
      <point x="85" y="50"/>
      <point x="37" y="10"/>
      <point x="4" y="10" type="curve" smooth="yes"/>
      <point x="-1" y="10"/>
      <point x="-1" y="0"/>
      <point x="4" y="0" type="curve" smooth="yes"/>
    </contour>
    <contour>
      <point x="443" y="270" type="line"/>
      <point x="437" y="286" type="line"/>
      <point x="261" y="286" type="line"/>
      <point x="248" y="270" type="line"/>
    </contour>
    <contour>
      <point x="632" y="198"/>
      <point x="642" y="198"/>
      <point x="642" y="201" type="curve" smooth="yes"/>
      <point x="642" y="229"/>
      <point x="640" y="252"/>
      <point x="640" y="278" type="curve" smooth="yes"/>
      <point x="640" y="298"/>
      <point x="641" y="312"/>
      <point x="641" y="345" type="curve" smooth="yes"/>
      <point x="641" y="348"/>
      <point x="631" y="348"/>
      <point x="631" y="345" type="curve" smooth="yes"/>
      <point x="631" y="302"/>
      <point x="613" y="286"/>
      <point x="561" y="286" type="curve" smooth="yes"/>
      <point x="437" y="286" type="line"/>
      <point x="437" y="270" type="line" smooth="yes"/>
      <point x="558" y="270" type="line" smooth="yes"/>
      <point x="613" y="270"/>
      <point x="632" y="252"/>
      <point x="632" y="201" type="curve" smooth="yes"/>
    </contour>
    <contour>
      <point x="495" y="534" type="move" name="top"/>
    </contour>
    <contour>
      <point x="373" y="0" type="move" name="bottom"/>
    </contour>
  </outline>
</glyph>
<glyph name="multiply" format="1">
  <advance width="323"/>
  <unicode hex="00D7"/>
  <outline>
    <contour>
      <point x="273" y="250" type="line" smooth="yes"/>
      <point x="276" y="254"/>
      <point x="254" y="276"/>
      <point x="250" y="273" type="curve" smooth="yes"/>
      <point x="50" y="73" type="line" smooth="yes"/>
      <point x="47" y="70"/>
      <point x="70" y="47"/>
      <point x="73" y="51" type="curve" smooth="yes"/>
    </contour>
    <contour>
      <point x="250" y="51" type="line" smooth="yes"/>
      <point x="254" y="48"/>
      <point x="276" y="70"/>
      <point x="273" y="74" type="curve" smooth="yes"/>
      <point x="73" y="274" type="line" smooth="yes"/>
      <point x="70" y="277"/>
      <point x="47" y="254"/>
      <point x="51" y="251" type="curve" smooth="yes"/>
    </contour>
  </outline>
</glyph>
<glyph name="Oslash" format="1">
  <advance width="655"/>
  <unicode hex="00D8"/>
  <outline>
    <contour>
      <point x="591" y="528" type="line" smooth="yes"/>
      <point x="595" y="532"/>
      <point x="582" y="541"/>
      <point x="579" y="538" type="curve" smooth="yes"/>
      <point x="55" y="6" type="line" smooth="yes"/>
      <point x="51" y="2"/>
      <point x="63" y="-9"/>
      <point x="66" y="-6" type="curve" smooth="yes"/>
    </contour>
    <component base="O"/>
    <contour>
      <point x="328" y="534" type="move" name="top"/>
    </contour>
    <contour>
      <point x="328" y="0" type="move" name="bottom"/>
    </contour>
  </outline>
</glyph>
<glyph name="Thorn" format="1">
  <advance width="457"/>
  <unicode hex="00DE"/>
  <outline>
    <contour>
      <point x="114" y="69" type="line" smooth="yes"/>
      <point x="114" y="20"/>
      <point x="103" y="10"/>
      <point x="38" y="10" type="curve" smooth="yes"/>
      <point x="35" y="10"/>
      <point x="35" y="0"/>
      <point x="38" y="0" type="curve" smooth="yes"/>
      <point x="65" y="0"/>
      <point x="100" y="2"/>
      <point x="137" y="2" type="curve" smooth="yes"/>
      <point x="187" y="2"/>
      <point x="229" y="0"/>
      <point x="266" y="0" type="curve" smooth="yes"/>
      <point x="269" y="0"/>
      <point x="269" y="10"/>
      <point x="266" y="10" type="curve" smooth="yes"/>
      <point x="173" y="10"/>
      <point x="159" y="21"/>
      <point x="159" y="73" type="curve" smooth="yes"/>
      <point x="159" y="461" type="line" smooth="yes"/>
      <point x="159" y="513"/>
      <point x="173" y="524"/>
      <point x="266" y="524" type="curve" smooth="yes"/>
      <point x="269" y="524"/>
      <point x="269" y="534"/>
      <point x="266" y="534" type="curve" smooth="yes"/>
      <point x="229" y="534"/>
      <point x="187" y="532"/>
      <point x="137" y="532" type="curve" smooth="yes"/>
      <point x="100" y="532"/>
      <point x="65" y="534"/>
      <point x="38" y="534" type="curve" smooth="yes"/>
      <point x="35" y="534"/>
      <point x="35" y="524"/>
      <point x="38" y="524" type="curve" smooth="yes"/>
      <point x="103" y="524"/>
      <point x="114" y="514"/>
      <point x="114" y="465" type="curve" smooth="yes"/>
    </contour>
    <contour>
      <point x="136" y="403" type="line"/>
      <point x="160" y="410"/>
      <point x="189" y="416"/>
      <point x="219" y="416" type="curve" smooth="yes"/>
      <point x="309" y="416"/>
      <point x="372" y="363"/>
      <point x="372" y="270" type="curve" smooth="yes"/>
      <point x="372" y="171"/>
      <point x="302" y="126"/>
      <point x="227" y="126" type="curve" smooth="yes"/>
      <point x="217" y="126"/>
      <point x="206" y="127"/>
      <point x="196" y="129" type="curve" smooth="yes"/>
      <point x="192" y="130"/>
      <point x="190" y="119"/>
      <point x="194" y="118" type="curve" smooth="yes"/>
      <point x="207" y="115"/>
      <point x="221" y="114"/>
      <point x="236" y="114" type="curve" smooth="yes"/>
      <point x="322" y="114"/>
      <point x="428" y="166"/>
      <point x="425" y="287" type="curve" smooth="yes"/>
      <point x="422" y="391"/>
      <point x="341" y="427"/>
      <point x="240" y="427" type="curve" smooth="yes"/>
      <point x="206" y="427"/>
      <point x="164" y="423"/>
      <point x="129" y="413" type="curve"/>
    </contour>
    <contour>
      <point x="229" y="534" type="move" name="top"/>
    </contour>
    <contour>
      <point x="229" y="0" type="move" name="bottom"/>
    </contour>
  </outline>
</glyph>
<glyph name="germandbls" format="1">
  <advance width="420"/>
  <unicode hex="00DF"/>
  <outline>
    <contour>
      <point x="359" y="-9"/>
      <point x="401" y="48"/>
      <point x="401" y="102" type="curve" smooth="yes"/>
      <point x="401" y="151"/>
      <point x="364" y="191"/>
      <point x="327" y="230" type="curve" smooth="yes"/>
      <point x="290" y="268"/>
      <point x="254" y="305"/>
      <point x="254" y="347" type="curve" smooth="yes"/>
      <point x="254" y="419"/>
      <point x="348" y="456"/>
      <point x="348" y="536" type="curve" smooth="yes"/>
      <point x="348" y="569"/>
      <point x="326" y="621"/>
      <point x="246" y="621" type="curve" smooth="yes"/>
      <point x="141" y="621"/>
      <point x="77" y="534"/>
      <point x="77" y="383" type="curve" smooth="yes"/>
      <point x="78" y="69" type="line" smooth="yes"/>
      <point x="78" y="20"/>
      <point x="68" y="10"/>
      <point x="17" y="10" type="curve" smooth="yes"/>
      <point x="14" y="10"/>
      <point x="14" y="0"/>
      <point x="17" y="0" type="curve" smooth="yes"/>
      <point x="39" y="0"/>
      <point x="69" y="1"/>
      <point x="99" y="1" type="curve" smooth="yes"/>
      <point x="126" y="1"/>
      <point x="149" y="0"/>
      <point x="176" y="0" type="curve" smooth="yes"/>
      <point x="179" y="0"/>
      <point x="179" y="10"/>
      <point x="176" y="10" type="curve" smooth="yes"/>
      <point x="127" y="10"/>
      <point x="119" y="20"/>
      <point x="119" y="69" type="curve" smooth="yes"/>
      <point x="119" y="381" type="line" smooth="yes"/>
      <point x="119" y="524"/>
      <point x="160" y="609"/>
      <point x="228" y="609" type="curve" smooth="yes"/>
      <point x="293" y="609"/>
      <point x="306" y="547"/>
      <point x="306" y="509" type="curve" smooth="yes"/>
      <point x="306" y="418"/>
      <point x="222" y="394"/>
      <point x="222" y="313" type="curve" smooth="yes"/>
      <point x="222" y="260"/>
      <point x="260" y="221"/>
      <point x="297" y="184" type="curve" smooth="yes"/>
      <point x="331" y="150"/>
      <point x="363" y="116"/>
      <point x="366" y="73" type="curve" smooth="yes"/>
      <point x="369" y="32"/>
      <point x="345" y="7"/>
      <point x="316" y="7" type="curve" smooth="yes"/>
      <point x="277" y="7"/>
      <point x="248" y="35"/>
      <point x="229" y="100" type="curve" smooth="yes"/>
      <point x="228" y="103"/>
      <point x="219" y="102"/>
      <point x="219" y="99" type="curve" smooth="yes"/>
      <point x="221" y="27" type="line" smooth="yes"/>
      <point x="221" y="22"/>
      <point x="223" y="19"/>
      <point x="226" y="17" type="curve" smooth="yes"/>
      <point x="248" y="-3"/>
      <point x="269" y="-9"/>
      <point x="291" y="-9" type="curve" smooth="yes"/>
    </contour>
    <contour>
      <point x="210" y="330" type="move" name="top"/>
    </contour>
    <contour>
      <point x="210" y="0" type="move" name="bottom"/>
    </contour>
  </outline>
</glyph>
<glyph name="ae" format="1">
  <advance width="504"/>
  <unicode hex="00E6"/>
  <outline>
    <contour>
      <point x="403" y="-10"/>
      <point x="437" y="3"/>
      <point x="474" y="38" type="curve" smooth="yes"/>
      <point x="477" y="41"/>
      <point x="471" y="48"/>
      <point x="468" y="46" type="curve" smooth="yes"/>
      <point x="445" y="25"/>
      <point x="419" y="15"/>
      <point x="383" y="15" type="curve" smooth="yes"/>
      <point x="273" y="15"/>
      <point x="268" y="130"/>
      <point x="266" y="184" type="curve" smooth="yes"/>
      <point x="265" y="225"/>
      <point x="259" y="233"/>
      <point x="259" y="256" type="curve" smooth="yes"/>
      <point x="259" y="306"/>
      <point x="221" y="338"/>
      <point x="176" y="338" type="curve" smooth="yes"/>
      <point x="117" y="338"/>
      <point x="44" y="283"/>
      <point x="44" y="245" type="curve" smooth="yes"/>
      <point x="44" y="232"/>
      <point x="52" y="221"/>
      <point x="70" y="221" type="curve" smooth="yes"/>
      <point x="92" y="221"/>
      <point x="95" y="239"/>
      <point x="96" y="249" type="curve" smooth="yes"/>
      <point x="101" y="285"/>
      <point x="113" y="324"/>
      <point x="157" y="324" type="curve" smooth="yes"/>
      <point x="217" y="324"/>
      <point x="220" y="268"/>
      <point x="225" y="145" type="curve" smooth="yes"/>
      <point x="230" y="29"/>
      <point x="284" y="-10"/>
      <point x="359" y="-10" type="curve" smooth="yes"/>
    </contour>
    <contour>
      <point x="122" y="-6"/>
      <point x="136" y="-1"/>
      <point x="171" y="17" type="curve" smooth="yes"/>
      <point x="256" y="60" type="line"/>
      <point x="255" y="69" type="line"/>
      <point x="164" y="26" type="line" smooth="yes"/>
      <point x="155" y="22"/>
      <point x="144" y="21"/>
      <point x="132" y="21" type="curve" smooth="yes"/>
      <point x="109" y="21"/>
      <point x="94" y="37"/>
      <point x="94" y="61" type="curve" smooth="yes"/>
      <point x="94" y="79"/>
      <point x="103" y="87"/>
      <point x="128" y="96" type="curve" smooth="yes"/>
      <point x="249" y="140" type="line"/>
      <point x="247" y="149" type="line"/>
      <point x="120" y="105" type="line" smooth="yes"/>
      <point x="63" y="85"/>
      <point x="43" y="72"/>
      <point x="43" y="44" type="curve" smooth="yes"/>
      <point x="43" y="16"/>
      <point x="64" y="-6"/>
      <point x="100" y="-6" type="curve" smooth="yes"/>
    </contour>
    <contour>
      <point x="428" y="234" type="line"/>
      <point x="428" y="247" type="line"/>
      <point x="251" y="243" type="line"/>
      <point x="252" y="233" type="line"/>
    </contour>
    <contour>
      <point x="266" y="267"/>
      <point x="300" y="321"/>
      <point x="357" y="321" type="curve" smooth="yes"/>
      <point x="397" y="321"/>
      <point x="423" y="291"/>
      <point x="418" y="234" type="curve"/>
      <point x="460" y="234" type="line" smooth="yes"/>
      <point x="468" y="234"/>
      <point x="470" y="240"/>
      <point x="470" y="253" type="curve" smooth="yes"/>
      <point x="470" y="305"/>
      <point x="440" y="338"/>
      <point x="386" y="338" type="curve" smooth="yes"/>
      <point x="325" y="338"/>
      <point x="274" y="305"/>
      <point x="244" y="256" type="curve"/>
      <point x="266" y="184" type="line"/>
    </contour>
    <contour>
      <point x="259" y="330" type="move" name="top"/>
    </contour>
    <contour>
      <point x="252" y="0" type="move" name="bottom"/>
    </contour>
  </outline>
</glyph>
<glyph name="eth" format="1">
  <advance width="402"/>
  <unicode hex="00F0"/>
  <outline>
    <contour>
      <point x="314" y="297" type="line"/>
      <point x="285" y="326"/>
      <point x="245" y="341"/>
      <point x="206" y="341" type="curve" smooth="yes"/>
      <point x="130" y="341"/>
      <point x="32" y="284"/>
      <point x="32" y="159" type="curve" smooth="yes"/>
      <point x="32" y="68"/>
      <point x="92" y="-11"/>
      <point x="191" y="-11" type="curve" smooth="yes"/>
      <point x="287" y="-11"/>
      <point x="370" y="49"/>
      <point x="370" y="194" type="curve" smooth="yes"/>
      <point x="370" y="361"/>
      <point x="259" y="537"/>
      <point x="82" y="620" type="curve" smooth="yes"/>
      <point x="78" y="622"/>
      <point x="73" y="614"/>
      <point x="77" y="612" type="curve" smooth="yes"/>
      <point x="210" y="530"/>
      <point x="321" y="353"/>
      <point x="321" y="163" type="curve" smooth="yes"/>
      <point x="321" y="42"/>
      <point x="278" y="4"/>
      <point x="215" y="4" type="curve" smooth="yes"/>
      <point x="133" y="4"/>
      <point x="80" y="87"/>
      <point x="80" y="184" type="curve" smooth="yes"/>
      <point x="80" y="275"/>
      <point x="132" y="326"/>
      <point x="195" y="326" type="curve" smooth="yes"/>
      <point x="257" y="326"/>
      <point x="306" y="289"/>
      <point x="323" y="229" type="curve"/>
    </contour>
    <contour>
      <point x="341" y="525" type="line" smooth="yes"/>
      <point x="346" y="527"/>
      <point x="340" y="542"/>
      <point x="336" y="540" type="curve" smooth="yes"/>
      <point x="102" y="429" type="line" smooth="yes"/>
      <point x="97" y="427"/>
      <point x="103" y="412"/>
      <point x="107" y="414" type="curve" smooth="yes"/>
    </contour>
    <contour>
      <point x="198" y="330" type="move" name="top"/>
    </contour>
  </outline>
</glyph>
<glyph name="oslash" format="1">
  <advance width="408"/>
  <unicode hex="00F8"/>
  <outline>
    <contour>
      <point x="373" y="330" type="line" smooth="yes"/>
      <point x="377" y="334"/>
      <point x="364" y="343"/>
      <point x="361" y="340" type="curve" smooth="yes"/>
      <point x="31" y="0" type="line" smooth="yes"/>
      <point x="27" y="-4"/>
      <point x="39" y="-15"/>
      <point x="42" y="-12" type="curve" smooth="yes"/>
    </contour>
    <component base="o"/>
    <contour>
      <point x="204" y="330" type="move" name="top"/>
    </contour>
  </outline>
</glyph>
<glyph name="thorn" format="1">
  <advance width="419"/>
  <unicode hex="00FE"/>
  <outline>
    <contour>
      <point x="33" y="-235"/>
      <point x="61" y="-233"/>
      <point x="90" y="-233" type="curve" smooth="yes"/>
      <point x="130" y="-233"/>
      <point x="167" y="-235"/>
      <point x="197" y="-235" type="curve" smooth="yes"/>
      <point x="200" y="-235"/>
      <point x="200" y="-225"/>
      <point x="197" y="-225" type="curve" smooth="yes"/>
      <point x="123" y="-225"/>
      <point x="109" y="-215"/>
      <point x="109" y="-166" type="curve" smooth="yes"/>
      <point x="109" y="614" type="line" smooth="yes"/>
      <point x="109" y="617"/>
      <point x="105" y="620"/>
      <point x="103" y="620" type="curve" smooth="yes"/>
      <point x="102" y="620"/>
      <point x="101" y="620"/>
      <point x="99" y="619" type="curve" smooth="yes"/>
      <point x="-4" y="569" type="line" smooth="yes"/>
      <point x="-9" y="567"/>
      <point x="-5" y="557"/>
      <point x="0" y="559" type="curve" smooth="yes"/>
      <point x="18" y="568"/>
      <point x="31" y="572"/>
      <point x="41" y="572" type="curve" smooth="yes"/>
      <point x="62" y="572"/>
      <point x="69" y="554"/>
      <point x="69" y="513" type="curve" smooth="yes"/>
      <point x="69" y="-166" type="line" smooth="yes"/>
      <point x="69" y="-215"/>
      <point x="60" y="-225"/>
      <point x="13" y="-225" type="curve" smooth="yes"/>
      <point x="10" y="-225"/>
      <point x="10" y="-235"/>
      <point x="13" y="-235" type="curve" smooth="yes"/>
    </contour>
    <contour>
      <point x="276" y="-11"/>
      <point x="387" y="48"/>
      <point x="387" y="184" type="curve" smooth="yes"/>
      <point x="387" y="284"/>
      <point x="326" y="341"/>
      <point x="257" y="341" type="curve" smooth="yes"/>
      <point x="202" y="341"/>
      <point x="150" y="311"/>
      <point x="92" y="244" type="curve"/>
      <point x="99" y="238" type="line"/>
      <point x="136" y="279"/>
      <point x="174" y="313"/>
      <point x="226" y="313" type="curve" smooth="yes"/>
      <point x="290" y="313"/>
      <point x="340" y="258"/>
      <point x="340" y="157" type="curve" smooth="yes"/>
      <point x="340" y="62"/>
      <point x="292" y="6"/>
      <point x="232" y="6" type="curve" smooth="yes"/>
      <point x="167" y="6"/>
      <point x="131" y="35"/>
      <point x="99" y="75" type="curve"/>
      <point x="91" y="30" type="line"/>
      <point x="130" y="-2"/>
      <point x="160" y="-11"/>
      <point x="204" y="-11" type="curve" smooth="yes"/>
    </contour>
    <contour>
      <point x="210" y="330" type="move" name="top"/>
    </contour>
    <contour>
      <point x="210" y="0" type="move" name="bottom"/>
    </contour>
  </outline>
</glyph>
<glyph name="Aogonek" format="1">
  <advance width="599"/>
  <unicode hex="0104"/>
  <outline>
    <contour>
      <point x="499" y="-235"/>
      <point x="528" y="-226"/>
      <point x="554" y="-207" type="curve" smooth="yes"/>
      <point x="557" y="-204"/>
      <point x="551" y="-198"/>
      <point x="548" y="-200" type="curve" smooth="yes"/>
      <point x="538" y="-206"/>
      <point x="523" y="-212"/>
      <point x="498" y="-212" type="curve" smooth="yes"/>
      <point x="426" y="-212"/>
      <point x="399" y="-160"/>
      <point x="399" y="-113" type="curve" smooth="yes"/>
      <point x="399" y="-45"/>
      <point x="455" y="1"/>
      <point x="515" y="1" type="curve" smooth="yes"/>
      <point x="540" y="1"/>
      <point x="561" y="-2"/>
      <point x="593" y="-2" type="curve" smooth="yes"/>
      <point x="598" y="-2"/>
      <point x="598" y="8"/>
      <point x="593" y="8" type="curve" smooth="yes"/>
      <point x="555" y="8"/>
      <point x="532" y="30"/>
      <point x="493" y="115" type="curve" smooth="yes"/>
      <point x="295" y="543" type="line" smooth="yes"/>
      <point x="294" y="546"/>
      <point x="286" y="546"/>
      <point x="285" y="543" type="curve" smooth="yes"/>
      <point x="106" y="113" type="line" smooth="yes"/>
      <point x="72" y="31"/>
      <point x="48" y="10"/>
      <point x="2" y="10" type="curve" smooth="yes"/>
      <point x="-3" y="10"/>
      <point x="-3" y="0"/>
      <point x="2" y="0" type="curve" smooth="yes"/>
      <point x="36" y="0"/>
      <point x="54" y="3"/>
      <point x="94" y="3" type="curve" smooth="yes"/>
      <point x="138" y="3"/>
      <point x="161" y="0"/>
      <point x="195" y="0" type="curve" smooth="yes"/>
      <point x="200" y="0"/>
      <point x="200" y="10"/>
      <point x="195" y="10" type="curve" smooth="yes"/>
      <point x="117" y="10"/>
      <point x="93" y="35"/>
      <point x="122" y="105" type="curve" smooth="yes"/>
      <point x="286" y="502" type="line"/>
      <point x="270" y="482" type="line"/>
      <point x="464" y="70" type="line" smooth="yes"/>
      <point x="501" y="-8"/>
      <point x="358" y="-31"/>
      <point x="358" y="-142" type="curve" smooth="yes"/>
      <point x="358" y="-200"/>
      <point x="399" y="-235"/>
      <point x="465" y="-235" type="curve" smooth="yes"/>
    </contour>
    <contour>
      <point x="378" y="290" type="line"/>
      <point x="372" y="306" type="line"/>
      <point x="196" y="306" type="line"/>
      <point x="183" y="290" type="line"/>
    </contour>
    <contour>
      <point x="569" y="10" type="move" name="ogonek"/>
    </contour>
    <contour>
      <point x="291" y="534" type="move" name="top"/>
    </contour>
  </outline>
</glyph>
<glyph name="dcroat" format="1">
  <advance width="439"/>
  <unicode hex="0111"/>
  <outline>
    <contour>
      <point x="410" y="428" type="line" smooth="yes"/>
      <point x="415" y="428"/>
      <point x="415" y="444"/>
      <point x="410" y="444" type="curve" smooth="yes"/>
      <point x="165" y="444" type="line" smooth="yes"/>
      <point x="160" y="444"/>
      <point x="160" y="428"/>
      <point x="165" y="428" type="curve" smooth="yes"/>
    </contour>
    <component base="d"/>
  </outline>
</glyph>
<glyph name="Eogonek" format="1">
  <advance width="456"/>
  <unicode hex="0118"/>
  <outline>
    <component base="E"/>
    <component base="ogonek" xOffset="203"/>
    <contour>
      <point x="228" y="534" type="move" name="top"/>
    </contour>
  </outline>
</glyph>
<glyph name="eogonek" format="1">
  <advance width="346"/>
  <unicode hex="0119"/>
  <outline>
    <contour>
      <point x="266" y="-235"/>
      <point x="291" y="-224"/>
      <point x="319" y="-197" type="curve" smooth="yes"/>
      <point x="322" y="-194"/>
      <point x="316" y="-188"/>
      <point x="313" y="-190" type="curve" smooth="yes"/>
      <point x="300" y="-201"/>
      <point x="287" y="-212"/>
      <point x="262" y="-212" type="curve" smooth="yes"/>
      <point x="217" y="-212"/>
      <point x="193" y="-180"/>
      <point x="193" y="-128" type="curve" smooth="yes"/>
      <point x="193" y="-74"/>
      <point x="222" y="-29"/>
      <point x="291" y="23" type="curve"/>
      <point x="282" y="27" type="line"/>
      <point x="195" y="-35"/>
      <point x="152" y="-94"/>
      <point x="152" y="-153" type="curve" smooth="yes"/>
      <point x="152" y="-203"/>
      <point x="181" y="-235"/>
      <point x="237" y="-235" type="curve" smooth="yes"/>
    </contour>
    <component base="e"/>
    <contour>
      <point x="173" y="330" type="move" name="top"/>
    </contour>
  </outline>
</glyph>
<glyph name="Hbar" format="1">
  <advance width="648"/>
  <unicode hex="0126"/>
  <outline>
    <contour>
      <point x="494" y="69" type="line" smooth="yes"/>
      <point x="494" y="20"/>
      <point x="484" y="10"/>
      <point x="418" y="10" type="curve" smooth="yes"/>
      <point x="415" y="10"/>
      <point x="415" y="0"/>
      <point x="418" y="0" type="curve" smooth="yes"/>
      <point x="445" y="0"/>
      <point x="478" y="2"/>
      <point x="517" y="2" type="curve" smooth="yes"/>
      <point x="554" y="2"/>
      <point x="589" y="0"/>
      <point x="616" y="0" type="curve" smooth="yes"/>
      <point x="619" y="0"/>
      <point x="619" y="10"/>
      <point x="616" y="10" type="curve" smooth="yes"/>
      <point x="551" y="10"/>
      <point x="539" y="20"/>
      <point x="539" y="69" type="curve" smooth="yes"/>
      <point x="539" y="465" type="line" smooth="yes"/>
      <point x="539" y="514"/>
      <point x="551" y="524"/>
      <point x="616" y="524" type="curve" smooth="yes"/>
      <point x="619" y="524"/>
      <point x="619" y="534"/>
      <point x="616" y="534" type="curve" smooth="yes"/>
      <point x="589" y="534"/>
      <point x="554" y="532"/>
      <point x="517" y="532" type="curve" smooth="yes"/>
      <point x="478" y="532"/>
      <point x="445" y="534"/>
      <point x="418" y="534" type="curve" smooth="yes"/>
      <point x="415" y="534"/>
      <point x="415" y="524"/>
      <point x="418" y="524" type="curve" smooth="yes"/>
      <point x="484" y="524"/>
      <point x="494" y="512"/>
      <point x="494" y="463" type="curve" smooth="yes"/>
    </contour>
    <contour>
      <point x="513" y="350" type="line"/>
      <point x="513" y="366" type="line"/>
      <point x="128" y="366" type="line"/>
      <point x="128" y="350" type="line"/>
    </contour>
    <contour>
      <point x="108" y="20"/>
      <point x="96" y="10"/>
      <point x="31" y="10" type="curve" smooth="yes"/>
      <point x="28" y="10"/>
      <point x="28" y="0"/>
      <point x="31" y="0" type="curve" smooth="yes"/>
      <point x="58" y="0"/>
      <point x="93" y="2"/>
      <point x="130" y="2" type="curve" smooth="yes"/>
      <point x="169" y="2"/>
      <point x="202" y="0"/>
      <point x="229" y="0" type="curve" smooth="yes"/>
      <point x="232" y="0"/>
      <point x="232" y="10"/>
      <point x="229" y="10" type="curve" smooth="yes"/>
      <point x="163" y="10"/>
      <point x="153" y="20"/>
      <point x="153" y="69" type="curve" smooth="yes"/>
      <point x="153" y="463" type="line" smooth="yes"/>
      <point x="153" y="512"/>
      <point x="164" y="524"/>
      <point x="229" y="524" type="curve" smooth="yes"/>
      <point x="232" y="524"/>
      <point x="232" y="534"/>
      <point x="229" y="534" type="curve" smooth="yes"/>
      <point x="203" y="534"/>
      <point x="169" y="532"/>
      <point x="130" y="532" type="curve" smooth="yes"/>
      <point x="93" y="532"/>
      <point x="59" y="534"/>
      <point x="32" y="534" type="curve" smooth="yes"/>
      <point x="29" y="534"/>
      <point x="29" y="524"/>
      <point x="32" y="524" type="curve" smooth="yes"/>
      <point x="97" y="524"/>
      <point x="108" y="514"/>
      <point x="108" y="465" type="curve" smooth="yes"/>
      <point x="108" y="69" type="line" smooth="yes"/>
    </contour>
    <contour>
      <point x="513" y="190" type="line"/>
      <point x="513" y="206" type="line"/>
      <point x="128" y="206" type="line"/>
      <point x="128" y="190" type="line"/>
    </contour>
    <contour>
      <point x="324" y="267" type="move" name="center"/>
    </contour>
    <contour>
      <point x="324" y="534" type="move" name="top"/>
    </contour>
  </outline>
</glyph>
<glyph name="idotless" format="1">
  <advance width="235"/>
  <unicode hex="0131"/>
  <outline>
    <contour>
      <point x="69" y="0"/>
      <point x="96" y="2"/>
      <point x="125" y="2" type="curve" smooth="yes"/>
      <point x="154" y="2"/>
      <point x="181" y="0"/>
      <point x="201" y="0" type="curve" smooth="yes"/>
      <point x="204" y="0"/>
      <point x="204" y="10"/>
      <point x="201" y="10" type="curve" smooth="yes"/>
      <point x="153" y="10"/>
      <point x="145" y="20"/>
      <point x="145" y="69" type="curve" smooth="yes"/>
      <point x="145" y="232" type="line" smooth="yes"/>
      <point x="145" y="285"/>
      <point x="147" y="323"/>
      <point x="147" y="332" type="curve" smooth="yes"/>
      <point x="147" y="335"/>
      <point x="144" y="338"/>
      <point x="141" y="338" type="curve" smooth="yes"/>
      <point x="140" y="338"/>
      <point x="140" y="338"/>
      <point x="138" y="337" type="curve" smooth="yes"/>
      <point x="32" y="287" type="line" smooth="yes"/>
      <point x="27" y="285"/>
      <point x="31" y="275"/>
      <point x="36" y="277" type="curve" smooth="yes"/>
      <point x="54" y="286"/>
      <point x="67" y="290"/>
      <point x="77" y="290" type="curve" smooth="yes"/>
      <point x="98" y="290"/>
      <point x="105" y="272"/>
      <point x="105" y="231" type="curve" smooth="yes"/>
      <point x="105" y="69" type="line" smooth="yes"/>
      <point x="105" y="20"/>
      <point x="96" y="10"/>
      <point x="49" y="10" type="curve" smooth="yes"/>
      <point x="46" y="10"/>
      <point x="46" y="0"/>
      <point x="49" y="0" type="curve" smooth="yes"/>
    </contour>
    <contour>
      <point x="210" y="17" type="move" name="ogonek"/>
    </contour>
    <contour>
      <point x="118" y="0" type="move" name="bottom"/>
    </contour>
    <contour>
      <point x="118" y="330" type="move" name="top"/>
    </contour>
  </outline>
</glyph>
<glyph name="kgreenlandic" format="1">
  <advance width="435"/>
  <unicode hex="0138"/>
  <outline>
    <contour>
      <point x="278" y="0"/>
      <point x="307" y="2"/>
      <point x="349" y="2" type="curve" smooth="yes"/>
      <point x="378" y="2"/>
      <point x="405" y="0"/>
      <point x="425" y="0" type="curve" smooth="yes"/>
      <point x="428" y="0"/>
      <point x="428" y="10"/>
      <point x="425" y="10" type="curve" smooth="yes"/>
      <point x="391" y="10"/>
      <point x="356" y="25"/>
      <point x="325" y="69" type="curve" smooth="yes"/>
      <point x="216" y="222" type="line"/>
      <point x="181" y="197" type="line"/>
      <point x="290" y="45" type="line" smooth="yes"/>
      <point x="308" y="19"/>
      <point x="296" y="10"/>
      <point x="253" y="10" type="curve" smooth="yes"/>
      <point x="250" y="10"/>
      <point x="250" y="0"/>
      <point x="253" y="0" type="curve" smooth="yes"/>
    </contour>
    <contour>
      <point x="273" y="261" type="line" smooth="yes"/>
      <point x="327" y="302"/>
      <point x="375" y="320"/>
      <point x="415" y="320" type="curve" smooth="yes"/>
      <point x="418" y="320"/>
      <point x="418" y="330"/>
      <point x="415" y="330" type="curve" smooth="yes"/>
      <point x="392" y="330"/>
      <point x="371" y="328"/>
      <point x="329" y="328" type="curve" smooth="yes"/>
      <point x="283" y="328"/>
      <point x="260" y="330"/>
      <point x="233" y="330" type="curve" smooth="yes"/>
      <point x="230" y="330"/>
      <point x="230" y="320"/>
      <point x="233" y="320" type="curve" smooth="yes"/>
      <point x="293" y="320"/>
      <point x="305" y="299"/>
      <point x="258" y="263" type="curve" smooth="yes"/>
      <point x="119" y="156" type="line"/>
      <point x="123" y="147" type="line"/>
    </contour>
    <contour>
      <point x="58" y="0"/>
      <point x="85" y="2"/>
      <point x="114" y="2" type="curve" smooth="yes"/>
      <point x="143" y="2"/>
      <point x="170" y="0"/>
      <point x="190" y="0" type="curve" smooth="yes"/>
      <point x="193" y="0"/>
      <point x="193" y="10"/>
      <point x="190" y="10" type="curve" smooth="yes"/>
      <point x="142" y="10"/>
      <point x="134" y="20"/>
      <point x="134" y="69" type="curve" smooth="yes"/>
      <point x="134" y="269" type="line" smooth="yes"/>
      <point x="134" y="314"/>
      <point x="118" y="338"/>
      <point x="110" y="338" type="curve" smooth="yes"/>
      <point x="109" y="338"/>
      <point x="108" y="338"/>
      <point x="106" y="337" type="curve" smooth="yes"/>
      <point x="11" y="292" type="line" smooth="yes"/>
      <point x="6" y="290"/>
      <point x="10" y="281"/>
      <point x="15" y="283" type="curve" smooth="yes"/>
      <point x="36" y="291"/>
      <point x="51" y="296"/>
      <point x="63" y="296" type="curve" smooth="yes"/>
      <point x="86" y="296"/>
      <point x="94" y="279"/>
      <point x="94" y="240" type="curve" smooth="yes"/>
      <point x="94" y="69" type="line" smooth="yes"/>
      <point x="94" y="20"/>
      <point x="85" y="10"/>
      <point x="38" y="10" type="curve" smooth="yes"/>
      <point x="35" y="10"/>
      <point x="35" y="0"/>
      <point x="38" y="0" type="curve" smooth="yes"/>
    </contour>
    <contour>
      <point x="218" y="330" type="move" name="top"/>
    </contour>
    <contour>
      <point x="225" y="0" type="move" name="bottom"/>
    </contour>
  </outline>
</glyph>
<glyph name="lslash" format="1">
  <advance width="218"/>
  <unicode hex="0142"/>
  <outline>
    <contour>
      <point x="194" y="333" type="line" smooth="yes"/>
      <point x="198" y="335"/>
      <point x="190" y="349"/>
      <point x="186" y="347" type="curve" smooth="yes"/>
      <point x="34" y="259" type="line" smooth="yes"/>
      <point x="30" y="257"/>
      <point x="38" y="243"/>
      <point x="42" y="245" type="curve" smooth="yes"/>
    </contour>
    <component base="l" xOffset="2"/>
  </outline>
</glyph>
